M48
; DRILL file {KiCad 9.0.6} date 2026-02-08T22:02:41+0800
; FORMAT={-:-/ absolute / metric / decimal}
; #@! TF.CreationDate,2026-02-08T22:02:41+08:00
; #@! TF.GenerationSoftware,Kicad,Pcbnew,9.0.6
; #@! TF.FileFunction,Plated,1,2,PTH
FMAT,2
METRIC
; #@! TA.AperFunction,Plated,PTH,ViaDrill
T1C0.300
; #@! TA.AperFunction,Plated,PTH,ComponentDrill
T2C1.168
%
G90
G05
T1
X142.7Y-70.5
X148.5Y-64.7
X148.9Y-81.7
X160.8Y-74.7
T2
X145.8Y-39.54
X145.8Y-42.08
X145.8Y-44.62
X145.8Y-47.16
X145.8Y-49.7
X145.8Y-52.24
X145.8Y-54.78
X145.8Y-57.32
X145.8Y-59.86
X145.8Y-62.4
X145.8Y-69.54
X145.8Y-72.08
X145.8Y-74.62
X145.8Y-77.16
X145.8Y-79.7
X145.8Y-82.24
X145.8Y-84.78
X145.8Y-87.32
X145.8Y-89.86
X145.8Y-92.4
X155.0Y-39.52
X155.0Y-42.06
X155.0Y-44.6
X155.0Y-47.14
X155.0Y-49.68
X155.0Y-52.22
X155.0Y-54.76
X155.0Y-57.3
X155.0Y-59.84
X155.0Y-62.38
X155.0Y-64.92
X155.0Y-67.46
X155.0Y-73.91
X155.0Y-76.45
X155.0Y-83.52
X155.0Y-86.06
X155.0Y-88.6
X155.0Y-91.14
X155.0Y-93.68
X155.262Y-102.48
X155.262Y-105.02
X163.038Y-102.93
X163.038Y-105.47
X163.038Y-108.01
X163.038Y-110.55
X164.4Y-39.46
X164.4Y-42.0
X164.4Y-44.54
X164.4Y-47.08
X164.4Y-49.62
X164.4Y-52.16
X164.4Y-54.7
X164.4Y-57.24
X164.4Y-63.38
X164.4Y-65.92
X164.4Y-68.46
X164.4Y-71.0
X164.4Y-73.54
X164.4Y-76.08
X164.4Y-78.62
X164.4Y-81.16
X164.5Y-87.35
X164.5Y-89.89
X164.5Y-92.43
X164.5Y-94.97
X177.424Y-51.481
X177.424Y-54.021
X177.424Y-56.561
X177.486Y-62.381
X177.486Y-64.921
X177.486Y-67.461
X177.486Y-73.581
X177.486Y-76.121
X177.486Y-78.661
X177.624Y-107.421
X177.624Y-109.961
X177.624Y-112.501
X177.662Y-39.92
X177.662Y-42.46
X177.662Y-45.0
X177.686Y-85.181
X177.686Y-87.721
X177.686Y-90.261
X177.686Y-96.281
X177.686Y-98.821
X177.686Y-101.361
X177.762Y-118.82
X177.762Y-121.36
X177.762Y-123.9
X178.024Y-130.181
X178.024Y-132.721
X178.024Y-135.261
X187.9Y-73.82
X187.9Y-76.36
X187.9Y-78.9
X187.9Y-81.44
X187.9Y-83.98
X187.9Y-86.52
X187.9Y-89.06
X187.9Y-91.6
X187.9Y-121.72
X187.9Y-124.26
X187.9Y-126.8
X187.9Y-129.34
X187.9Y-131.88
X187.9Y-134.42
X187.9Y-136.96
X187.9Y-139.5
X187.938Y-50.05
X187.938Y-52.59
X187.938Y-55.13
X187.938Y-57.67
X187.938Y-60.21
X187.938Y-62.75
X187.938Y-65.29
X187.938Y-67.83
X187.938Y-97.8
X187.938Y-100.34
X187.938Y-102.88
X187.938Y-105.42
X187.938Y-107.96
X187.938Y-110.5
X187.938Y-113.04
X187.938Y-115.58
M30
