%TF.GenerationSoftware,KiCad,Pcbnew,9.0.6*%
%TF.CreationDate,2026-02-08T22:01:27+08:00*%
%TF.ProjectId,Dart_launcher_robot_pcb,44617274-5f6c-4617-956e-636865725f72,rev?*%
%TF.SameCoordinates,Original*%
%TF.FileFunction,Legend,Bot*%
%TF.FilePolarity,Positive*%
%FSLAX46Y46*%
G04 Gerber Fmt 4.6, Leading zero omitted, Abs format (unit mm)*
G04 Created by KiCad (PCBNEW 9.0.6) date 2026-02-08 22:01:27*
%MOMM*%
%LPD*%
G01*
G04 APERTURE LIST*
%ADD10C,0.300000*%
%ADD11C,0.000000*%
%ADD12C,0.508000*%
G04 APERTURE END LIST*
D10*
X149749757Y-125278572D02*
X149678328Y-125135715D01*
X149678328Y-125135715D02*
X149678328Y-124921429D01*
X149678328Y-124921429D02*
X149749757Y-124707143D01*
X149749757Y-124707143D02*
X149892614Y-124564286D01*
X149892614Y-124564286D02*
X150035471Y-124492857D01*
X150035471Y-124492857D02*
X150321185Y-124421429D01*
X150321185Y-124421429D02*
X150535471Y-124421429D01*
X150535471Y-124421429D02*
X150821185Y-124492857D01*
X150821185Y-124492857D02*
X150964042Y-124564286D01*
X150964042Y-124564286D02*
X151106900Y-124707143D01*
X151106900Y-124707143D02*
X151178328Y-124921429D01*
X151178328Y-124921429D02*
X151178328Y-125064286D01*
X151178328Y-125064286D02*
X151106900Y-125278572D01*
X151106900Y-125278572D02*
X151035471Y-125350000D01*
X151035471Y-125350000D02*
X150535471Y-125350000D01*
X150535471Y-125350000D02*
X150535471Y-125064286D01*
X149678328Y-126207143D02*
X150035471Y-126207143D01*
X149892614Y-125850000D02*
X150035471Y-126207143D01*
X150035471Y-126207143D02*
X149892614Y-126564286D01*
X150321185Y-125992857D02*
X150035471Y-126207143D01*
X150035471Y-126207143D02*
X150321185Y-126421429D01*
X149678328Y-127350000D02*
X150035471Y-127350000D01*
X149892614Y-126992857D02*
X150035471Y-127350000D01*
X150035471Y-127350000D02*
X149892614Y-127707143D01*
X150321185Y-127135714D02*
X150035471Y-127350000D01*
X150035471Y-127350000D02*
X150321185Y-127564286D01*
X149678328Y-128492857D02*
X150035471Y-128492857D01*
X149892614Y-128135714D02*
X150035471Y-128492857D01*
X150035471Y-128492857D02*
X149892614Y-128850000D01*
X150321185Y-128278571D02*
X150035471Y-128492857D01*
X150035471Y-128492857D02*
X150321185Y-128707143D01*
D11*
%TO.C,G\u002A\u002A\u002A*%
G36*
X145763028Y-111588180D02*
G01*
X145940909Y-111588180D01*
X146176595Y-111588180D01*
X146351733Y-111588180D01*
X146837115Y-111588180D01*
X147024870Y-111588180D01*
X151250418Y-111588180D01*
X151876083Y-111588180D01*
X158936643Y-111588180D01*
X158936643Y-112706058D01*
X158936643Y-113823936D01*
X158801536Y-113782249D01*
X158615905Y-113730549D01*
X158256974Y-113667048D01*
X157968876Y-113669703D01*
X157957193Y-113671348D01*
X157769757Y-113671247D01*
X157617157Y-113630619D01*
X157508749Y-113590844D01*
X157417004Y-113624224D01*
X157397530Y-113641300D01*
X157285236Y-113686324D01*
X157181085Y-113671027D01*
X157135224Y-113599763D01*
X157125398Y-113557868D01*
X157050157Y-113509693D01*
X157014015Y-113504949D01*
X156945074Y-113454556D01*
X156891408Y-113432762D01*
X156739827Y-113408720D01*
X156515370Y-113387560D01*
X156242819Y-113372187D01*
X155995823Y-113358619D01*
X155760666Y-113337440D01*
X155594256Y-113312845D01*
X155522252Y-113287837D01*
X155467447Y-113234015D01*
X155310877Y-113182275D01*
X155130743Y-113206756D01*
X155039138Y-113229481D01*
X154923644Y-113195607D01*
X154873398Y-113163087D01*
X154778899Y-113196557D01*
X154732633Y-113223501D01*
X154611224Y-113206941D01*
X154514642Y-113170654D01*
X154358037Y-113150328D01*
X154246108Y-113131439D01*
X154192907Y-113060482D01*
X154191456Y-113045190D01*
X154124606Y-112969861D01*
X153952915Y-112914932D01*
X153669253Y-112877918D01*
X153519837Y-112865189D01*
X153072983Y-112825136D01*
X152726157Y-112789929D01*
X152463962Y-112757481D01*
X152271003Y-112725704D01*
X152131883Y-112692511D01*
X152031205Y-112655815D01*
X151860995Y-112582192D01*
X151609114Y-112494302D01*
X151421235Y-112465694D01*
X151274183Y-112491334D01*
X151162083Y-112514664D01*
X151031618Y-112460121D01*
X151021676Y-112443198D01*
X151817060Y-112443198D01*
X151839804Y-112469861D01*
X151874528Y-112479454D01*
X151954895Y-112465120D01*
X151953965Y-112444622D01*
X151876083Y-112433582D01*
X151817060Y-112443198D01*
X151021676Y-112443198D01*
X150933867Y-112293735D01*
X150913976Y-112252881D01*
X150829655Y-112189108D01*
X150747264Y-112220647D01*
X150710165Y-112338771D01*
X150694369Y-112437524D01*
X150646574Y-112488889D01*
X150627172Y-112485777D01*
X150616035Y-112435410D01*
X150622463Y-112374128D01*
X150528823Y-112298074D01*
X150320141Y-112230491D01*
X149999200Y-112172209D01*
X149568787Y-112124055D01*
X149296788Y-112101590D01*
X149018129Y-112085276D01*
X148814872Y-112084960D01*
X148662006Y-112100863D01*
X148534521Y-112133206D01*
X148508509Y-112141713D01*
X148362340Y-112180486D01*
X148279484Y-112170307D01*
X148217496Y-112107770D01*
X148183586Y-112071181D01*
X148098428Y-112031599D01*
X147953377Y-112016519D01*
X147718749Y-112020763D01*
X147296618Y-112038534D01*
X147564294Y-113089362D01*
X147613264Y-113280744D01*
X147694188Y-113594266D01*
X147720515Y-113696264D01*
X147845770Y-114178030D01*
X147980691Y-114694105D01*
X148005893Y-114790001D01*
X148116940Y-115212547D01*
X148218203Y-115595593D01*
X148246179Y-115701418D01*
X148332282Y-116026202D01*
X148456644Y-116496050D01*
X148577495Y-116953441D01*
X148688001Y-117372471D01*
X148781326Y-117727241D01*
X148850634Y-117991848D01*
X148934678Y-118294836D01*
X149047927Y-118625474D01*
X149167143Y-118865514D01*
X149239007Y-118953002D01*
X149303633Y-119031678D01*
X149468699Y-119140686D01*
X149673645Y-119209261D01*
X149716735Y-119218523D01*
X149779432Y-119228941D01*
X149932478Y-119254373D01*
X150261683Y-119298924D01*
X150699570Y-119351638D01*
X151241358Y-119411978D01*
X151882266Y-119479405D01*
X152617512Y-119553381D01*
X153442316Y-119633368D01*
X153472269Y-119636225D01*
X153830400Y-119670229D01*
X154137794Y-119698831D01*
X154413409Y-119723456D01*
X154676200Y-119745528D01*
X154945123Y-119766473D01*
X155239132Y-119787714D01*
X155261058Y-119789203D01*
X155577184Y-119810676D01*
X155978235Y-119836785D01*
X156414657Y-119864505D01*
X156461239Y-119867464D01*
X156504728Y-119870195D01*
X156624822Y-119877738D01*
X156684870Y-119881509D01*
X156744917Y-119885280D01*
X156804964Y-119889052D01*
X156925059Y-119896595D01*
X157015130Y-119902252D01*
X157045153Y-119904138D01*
X157165248Y-119911817D01*
X157356475Y-119924044D01*
X157405437Y-119927323D01*
X157649170Y-119943645D01*
X157759631Y-119951042D01*
X158005910Y-119968477D01*
X158118646Y-119976458D01*
X158126004Y-119977016D01*
X158414583Y-119998895D01*
X158628509Y-120016956D01*
X158741489Y-120029246D01*
X158936643Y-120060288D01*
X158936643Y-122209714D01*
X158936643Y-124359140D01*
X158606383Y-124433049D01*
X158466881Y-124465977D01*
X158329341Y-124503350D01*
X158276122Y-124525112D01*
X158282608Y-124550071D01*
X158335851Y-124660822D01*
X158350187Y-124686183D01*
X158424661Y-124817931D01*
X158527007Y-124984852D01*
X158620857Y-125125041D01*
X158684177Y-125201952D01*
X158751884Y-125313367D01*
X158793715Y-125498369D01*
X158800290Y-125705261D01*
X158765762Y-125885097D01*
X158732035Y-125989062D01*
X158718659Y-126072521D01*
X158713039Y-126089657D01*
X158635874Y-126162476D01*
X158492024Y-126262655D01*
X158311041Y-126371910D01*
X158122475Y-126471956D01*
X157955877Y-126544507D01*
X157929448Y-126554452D01*
X157814487Y-126618337D01*
X157813658Y-126670398D01*
X157921893Y-126705667D01*
X157945862Y-126707193D01*
X158134122Y-126719175D01*
X158162391Y-126719828D01*
X158385185Y-126750660D01*
X158419299Y-126761355D01*
X158584477Y-126813137D01*
X158696532Y-126867527D01*
X158712755Y-126886985D01*
X158627655Y-126873611D01*
X158498829Y-126871114D01*
X158428061Y-126945699D01*
X158427647Y-127000765D01*
X158484923Y-127112360D01*
X158486288Y-127113937D01*
X158522736Y-127156041D01*
X158587874Y-127231287D01*
X158606383Y-127246681D01*
X158707886Y-127331101D01*
X158793877Y-127374121D01*
X158816342Y-127385360D01*
X158856457Y-127374937D01*
X158884628Y-127367618D01*
X158888837Y-127390353D01*
X158894668Y-127520028D01*
X158900309Y-127757408D01*
X158905707Y-128095237D01*
X158910813Y-128526257D01*
X158915574Y-129043211D01*
X158919938Y-129638840D01*
X158923855Y-130305889D01*
X158927272Y-131037100D01*
X158930139Y-131825214D01*
X158932404Y-132662976D01*
X158934015Y-133543128D01*
X158934922Y-134458411D01*
X158939053Y-141623898D01*
X156701086Y-141593481D01*
X156528468Y-141591023D01*
X155864684Y-141579960D01*
X155135018Y-141565691D01*
X154376664Y-141549060D01*
X153626816Y-141530915D01*
X152922669Y-141512100D01*
X152301418Y-141493461D01*
X152057384Y-141486172D01*
X151300683Y-141469294D01*
X150436923Y-141457453D01*
X149475616Y-141450697D01*
X148426274Y-141449076D01*
X147298410Y-141452639D01*
X146101536Y-141461435D01*
X142063357Y-141499011D01*
X142063351Y-141360262D01*
X142063345Y-141221513D01*
X146732026Y-141241231D01*
X147762701Y-141244396D01*
X149011159Y-141244541D01*
X150146455Y-141240177D01*
X151167826Y-141231323D01*
X152074512Y-141217995D01*
X152865752Y-141200212D01*
X153540783Y-141177991D01*
X154098844Y-141151352D01*
X154539174Y-141120311D01*
X154861010Y-141084886D01*
X155063593Y-141045096D01*
X155363829Y-140956800D01*
X155123640Y-140959681D01*
X155110775Y-140959740D01*
X154961630Y-140956329D01*
X154718608Y-140947018D01*
X154404329Y-140932821D01*
X154041414Y-140914750D01*
X153652482Y-140893817D01*
X153496140Y-140886204D01*
X153095486Y-140872694D01*
X152579561Y-140861455D01*
X151951561Y-140852514D01*
X151214687Y-140845895D01*
X150372136Y-140841624D01*
X149427109Y-140839726D01*
X148382804Y-140840227D01*
X147242419Y-140843151D01*
X146352457Y-140846222D01*
X145555768Y-140848778D01*
X144864392Y-140850606D01*
X144270865Y-140851558D01*
X143767722Y-140851487D01*
X143347495Y-140850246D01*
X143002722Y-140847688D01*
X142725935Y-140843666D01*
X142509671Y-140838033D01*
X142346462Y-140830641D01*
X142228845Y-140821344D01*
X142149354Y-140809995D01*
X142100523Y-140796447D01*
X142074888Y-140780552D01*
X142064982Y-140762163D01*
X142063342Y-140741135D01*
X142063416Y-140734813D01*
X142066635Y-140716014D01*
X142079703Y-140699404D01*
X142109513Y-140684847D01*
X142162952Y-140672204D01*
X142246913Y-140661336D01*
X142368286Y-140652104D01*
X142533960Y-140644371D01*
X142750825Y-140637998D01*
X143025773Y-140632847D01*
X143365693Y-140628779D01*
X143777476Y-140625655D01*
X144268012Y-140623338D01*
X144844191Y-140621689D01*
X145512903Y-140620569D01*
X146281039Y-140619841D01*
X147155489Y-140619365D01*
X148143144Y-140619003D01*
X148143395Y-140619003D01*
X149335921Y-140617924D01*
X150411256Y-140615489D01*
X151372297Y-140611645D01*
X152221941Y-140606335D01*
X152963085Y-140599507D01*
X153598625Y-140591106D01*
X154131457Y-140581076D01*
X154564479Y-140569363D01*
X154900586Y-140555914D01*
X155142676Y-140540673D01*
X155293645Y-140523586D01*
X155356389Y-140504598D01*
X155333806Y-140483655D01*
X155292843Y-140465445D01*
X155204740Y-140393090D01*
X155204196Y-140392356D01*
X155127006Y-140370696D01*
X154937161Y-140350233D01*
X154641859Y-140331091D01*
X154248297Y-140313395D01*
X153763672Y-140297267D01*
X153195183Y-140282832D01*
X152550027Y-140270213D01*
X151835401Y-140259535D01*
X151058503Y-140250921D01*
X150226531Y-140244495D01*
X149346681Y-140240381D01*
X148426151Y-140238703D01*
X147472140Y-140239584D01*
X146491843Y-140243149D01*
X145770703Y-140246725D01*
X145032588Y-140250191D01*
X144399584Y-140252713D01*
X143863617Y-140254110D01*
X143416614Y-140254198D01*
X143050500Y-140252795D01*
X142757203Y-140249718D01*
X142528648Y-140244785D01*
X142356763Y-140237812D01*
X142233472Y-140228617D01*
X142150703Y-140217017D01*
X142100381Y-140202830D01*
X142074434Y-140185872D01*
X142064787Y-140165961D01*
X142063367Y-140142914D01*
X142063488Y-140133436D01*
X142067019Y-140114674D01*
X142080664Y-140098115D01*
X142111296Y-140083619D01*
X142165790Y-140071048D01*
X142251019Y-140060264D01*
X142373857Y-140051127D01*
X142541178Y-140043500D01*
X142759856Y-140037244D01*
X143036764Y-140032220D01*
X143378776Y-140028289D01*
X143792766Y-140025314D01*
X144285608Y-140023155D01*
X144864176Y-140021674D01*
X145535343Y-140020733D01*
X146305983Y-140020192D01*
X147182970Y-140019914D01*
X148173178Y-140019759D01*
X148276614Y-140019745D01*
X149255903Y-140019556D01*
X150122873Y-140019185D01*
X150884598Y-140018497D01*
X151548151Y-140017358D01*
X152120606Y-140015633D01*
X152609037Y-140013190D01*
X153020518Y-140009892D01*
X153362123Y-140005607D01*
X153640925Y-140000198D01*
X153864000Y-139993534D01*
X154038420Y-139985478D01*
X154171260Y-139975897D01*
X154269594Y-139964656D01*
X154340495Y-139951621D01*
X154391037Y-139936658D01*
X154428295Y-139919633D01*
X154459342Y-139900410D01*
X154635705Y-139781869D01*
X154219153Y-139711378D01*
X154097837Y-139695562D01*
X153846450Y-139672883D01*
X153513228Y-139649704D01*
X153120054Y-139627363D01*
X152688807Y-139607195D01*
X152241371Y-139590538D01*
X152007624Y-139583999D01*
X151537235Y-139574622D01*
X150976125Y-139567005D01*
X150340509Y-139561126D01*
X149646604Y-139556959D01*
X148910626Y-139554480D01*
X148148790Y-139553666D01*
X147377313Y-139554492D01*
X146612410Y-139556934D01*
X145870298Y-139560969D01*
X145167192Y-139566571D01*
X144519308Y-139573717D01*
X143942862Y-139582383D01*
X143454070Y-139592544D01*
X143069148Y-139604177D01*
X142063357Y-139642129D01*
X142063357Y-137114209D01*
X142063508Y-136800397D01*
X142064952Y-136209697D01*
X142067066Y-135888782D01*
X143444444Y-135888782D01*
X143445524Y-135910042D01*
X143502407Y-136007731D01*
X143630516Y-136027620D01*
X143808675Y-135965263D01*
X143877213Y-135911522D01*
X143924822Y-135815145D01*
X143913651Y-135750497D01*
X143853472Y-135739212D01*
X143734029Y-135826897D01*
X143714713Y-135843641D01*
X143616180Y-135896250D01*
X143583546Y-135855366D01*
X143633164Y-135735765D01*
X143671295Y-135645800D01*
X143662439Y-135564882D01*
X143605956Y-135560527D01*
X143532169Y-135633622D01*
X143470361Y-135754883D01*
X143444444Y-135888782D01*
X142067066Y-135888782D01*
X142068137Y-135726206D01*
X142073324Y-135341131D01*
X142076963Y-135196821D01*
X142674016Y-135196821D01*
X142686383Y-135241642D01*
X142778550Y-135337114D01*
X142917477Y-135362202D01*
X143057442Y-135304113D01*
X143111577Y-135245671D01*
X143144815Y-135163775D01*
X143128654Y-135146454D01*
X143864775Y-135146454D01*
X143871322Y-135190777D01*
X143950158Y-135326497D01*
X144082450Y-135439661D01*
X144222719Y-135486997D01*
X144335966Y-135451559D01*
X144462909Y-135355580D01*
X144547259Y-135243239D01*
X144585342Y-135145415D01*
X144584197Y-135127764D01*
X144536292Y-135070917D01*
X144439868Y-135093888D01*
X144325138Y-135191344D01*
X144296209Y-135223564D01*
X144211737Y-135278980D01*
X144130298Y-135242916D01*
X144093206Y-135207864D01*
X144075539Y-135139519D01*
X144133635Y-135030280D01*
X144208646Y-134902668D01*
X144212625Y-134841497D01*
X144144294Y-134826477D01*
X144123046Y-134828745D01*
X144007953Y-134895044D01*
X143907667Y-135017197D01*
X143864775Y-135146454D01*
X143128654Y-135146454D01*
X143110236Y-135126714D01*
X143069336Y-135138026D01*
X142963762Y-135186923D01*
X142916786Y-135207053D01*
X142826034Y-135200394D01*
X142806078Y-135124532D01*
X142872024Y-135008797D01*
X142923968Y-134927219D01*
X142915955Y-134863878D01*
X142843242Y-134867267D01*
X142756765Y-134947015D01*
X142691078Y-135069635D01*
X142674016Y-135196821D01*
X142076963Y-135196821D01*
X142080774Y-135045685D01*
X142090747Y-134831076D01*
X142103505Y-134688516D01*
X142119307Y-134609213D01*
X142138416Y-134584379D01*
X142189638Y-134575232D01*
X142302289Y-134514468D01*
X142344170Y-134470248D01*
X143144208Y-134470248D01*
X143144932Y-134484286D01*
X143206328Y-134613771D01*
X143333792Y-134721450D01*
X143480847Y-134766430D01*
X143586728Y-134744680D01*
X143605956Y-134735142D01*
X143731319Y-134672954D01*
X143776155Y-134636068D01*
X143849711Y-134533082D01*
X143859063Y-134459422D01*
X144543140Y-134459422D01*
X144579589Y-134575538D01*
X144664815Y-134660529D01*
X144825313Y-134707181D01*
X145001699Y-134686449D01*
X145146485Y-134596572D01*
X145208719Y-134512204D01*
X145245862Y-134416430D01*
X145245642Y-134409966D01*
X145199851Y-134352342D01*
X145105041Y-134362294D01*
X145005673Y-134436170D01*
X144981132Y-134463100D01*
X144863290Y-134529886D01*
X144772237Y-134504942D01*
X144738355Y-134411500D01*
X144752045Y-134376123D01*
X144825531Y-134376123D01*
X144855555Y-134406146D01*
X144885579Y-134376123D01*
X144855555Y-134346099D01*
X144825531Y-134376123D01*
X144752045Y-134376123D01*
X144775282Y-134316075D01*
X144945626Y-134316075D01*
X144975650Y-134346099D01*
X145005673Y-134316075D01*
X144975650Y-134286052D01*
X144945626Y-134316075D01*
X144775282Y-134316075D01*
X144792029Y-134272796D01*
X144853367Y-134166779D01*
X144855555Y-134159826D01*
X144885579Y-134064410D01*
X144866535Y-134013348D01*
X144800359Y-134025821D01*
X144708787Y-134109586D01*
X144615058Y-134248803D01*
X144574472Y-134330576D01*
X144543140Y-134459422D01*
X143859063Y-134459422D01*
X143861012Y-134444067D01*
X143800439Y-134406146D01*
X143745142Y-134423828D01*
X143643032Y-134499217D01*
X143539892Y-134562047D01*
X143418108Y-134563264D01*
X143341656Y-134488175D01*
X143346425Y-134429544D01*
X143411740Y-134327334D01*
X143483606Y-134232733D01*
X143494942Y-134141878D01*
X143417825Y-134105910D01*
X143375596Y-134116296D01*
X143270425Y-134201821D01*
X143181606Y-134335370D01*
X143144208Y-134470248D01*
X142344170Y-134470248D01*
X142384641Y-134427516D01*
X142396498Y-134350762D01*
X142340476Y-134326154D01*
X142210343Y-134383696D01*
X142172511Y-134406259D01*
X142080862Y-134430211D01*
X142069890Y-134382233D01*
X142153427Y-134286052D01*
X142202141Y-134236167D01*
X142243498Y-134152180D01*
X142230725Y-134126828D01*
X142153427Y-134127625D01*
X142140063Y-134129978D01*
X142117580Y-134112326D01*
X142099884Y-134055400D01*
X142086424Y-133947656D01*
X142079516Y-133827431D01*
X142398754Y-133827431D01*
X142415854Y-133861036D01*
X142534981Y-133955910D01*
X142704207Y-133993314D01*
X142877568Y-133969297D01*
X142915955Y-133943209D01*
X143009101Y-133879908D01*
X143066851Y-133771783D01*
X143073882Y-133728487D01*
X143776105Y-133728487D01*
X143834773Y-133904205D01*
X143903704Y-133980915D01*
X144065152Y-134046659D01*
X144144294Y-134032617D01*
X144242260Y-134015236D01*
X144400842Y-133887647D01*
X144448018Y-133822909D01*
X144500236Y-133719146D01*
X145426004Y-133719146D01*
X145427565Y-133725139D01*
X145486052Y-133745626D01*
X145502510Y-133743183D01*
X145546099Y-133682035D01*
X145541384Y-133660316D01*
X145486052Y-133655555D01*
X145468082Y-133667880D01*
X145426004Y-133719146D01*
X144500236Y-133719146D01*
X144514155Y-133691487D01*
X144507662Y-133624211D01*
X144438125Y-133636963D01*
X144315130Y-133745626D01*
X144294867Y-133766550D01*
X144156731Y-133850905D01*
X144027210Y-133851499D01*
X143942948Y-133766297D01*
X143942385Y-133682371D01*
X144034903Y-133561518D01*
X144122531Y-133473390D01*
X144165011Y-133390729D01*
X144164228Y-133378661D01*
X144115296Y-133328523D01*
X144018464Y-133347835D01*
X143913232Y-133430378D01*
X143831037Y-133543643D01*
X143776105Y-133728487D01*
X143073882Y-133728487D01*
X143083378Y-133670009D01*
X143048596Y-133625532D01*
X143047794Y-133625559D01*
X142978568Y-133660660D01*
X142864622Y-133742271D01*
X142833706Y-133764592D01*
X142696270Y-133821647D01*
X142587783Y-133808946D01*
X142543735Y-133728060D01*
X142543741Y-133727392D01*
X142582462Y-133640880D01*
X142674074Y-133524556D01*
X142723572Y-133463632D01*
X142762376Y-133365797D01*
X142723648Y-133324353D01*
X142615914Y-133362982D01*
X142574176Y-133394503D01*
X142466569Y-133531121D01*
X142399933Y-133692886D01*
X142398754Y-133827431D01*
X142079516Y-133827431D01*
X142076649Y-133777546D01*
X142070006Y-133533528D01*
X142065944Y-133204054D01*
X142064902Y-132985380D01*
X143024113Y-132985380D01*
X143024125Y-132988173D01*
X143070774Y-133136350D01*
X143187968Y-133216705D01*
X143346196Y-133227181D01*
X143417825Y-133201246D01*
X143515948Y-133165719D01*
X143667712Y-133030262D01*
X143725168Y-132930851D01*
X143720802Y-132852657D01*
X143646669Y-132848846D01*
X143525937Y-132934988D01*
X143478231Y-132973497D01*
X143355054Y-133019899D01*
X143249213Y-133006840D01*
X143204255Y-132934400D01*
X143232976Y-132851140D01*
X143324349Y-132740913D01*
X143410354Y-132653616D01*
X143438119Y-132573654D01*
X143364840Y-132544681D01*
X143280371Y-132572608D01*
X143159720Y-132681231D01*
X143063443Y-132832864D01*
X143024113Y-132985380D01*
X142064902Y-132985380D01*
X142063911Y-132777580D01*
X142063357Y-132242560D01*
X142063357Y-130713239D01*
X143924822Y-130713239D01*
X143954846Y-130743262D01*
X143984870Y-130713239D01*
X143954846Y-130683215D01*
X143924822Y-130713239D01*
X142063357Y-130713239D01*
X142063357Y-130577477D01*
X143830771Y-130577477D01*
X143853516Y-130604140D01*
X143888240Y-130613733D01*
X143954846Y-130601853D01*
X143968607Y-130599399D01*
X143967677Y-130578901D01*
X143889795Y-130567861D01*
X143830771Y-130577477D01*
X142063357Y-130577477D01*
X142063357Y-130322931D01*
X142663829Y-130316259D01*
X142723648Y-130315580D01*
X142852596Y-130314116D01*
X143136228Y-130310052D01*
X143329068Y-130304670D01*
X143450423Y-130296282D01*
X143519597Y-130283197D01*
X143555898Y-130263725D01*
X143578631Y-130236176D01*
X143604618Y-130207029D01*
X143623666Y-130240366D01*
X143665142Y-130285708D01*
X143781533Y-130307919D01*
X143807059Y-130308542D01*
X143889795Y-130334264D01*
X143945516Y-130351588D01*
X144020704Y-130474278D01*
X144043997Y-130693316D01*
X144044184Y-130710635D01*
X144057100Y-130889610D01*
X144083778Y-131023576D01*
X144098739Y-131090350D01*
X144059583Y-131073522D01*
X144021281Y-131022547D01*
X143967640Y-130893380D01*
X143955678Y-130870632D01*
X143942317Y-130928275D01*
X143936008Y-131073522D01*
X143938943Y-131230768D01*
X143954432Y-131294253D01*
X143984870Y-131253664D01*
X144010147Y-131196873D01*
X144033642Y-131175126D01*
X144040696Y-131268676D01*
X144057355Y-131352795D01*
X144109011Y-131403782D01*
X144140731Y-131380391D01*
X144134988Y-131283688D01*
X144117321Y-131217210D01*
X144122988Y-131167188D01*
X144169911Y-131211527D01*
X144246082Y-131343735D01*
X144256378Y-131365162D01*
X144294471Y-131477923D01*
X144280504Y-131523877D01*
X144270397Y-131523038D01*
X144225059Y-131473865D01*
X144217432Y-131456727D01*
X144141601Y-131434117D01*
X144031562Y-131443364D01*
X143946061Y-131482622D01*
X143910168Y-131494218D01*
X143773273Y-131509504D01*
X143562063Y-131519986D01*
X143304334Y-131523877D01*
X143127612Y-131524965D01*
X142914657Y-131529907D01*
X142773737Y-131537929D01*
X142728881Y-131548023D01*
X142739692Y-131551489D01*
X142842859Y-131563064D01*
X143035952Y-131576268D01*
X143296760Y-131589729D01*
X143364840Y-131592473D01*
X143603071Y-131602073D01*
X144115296Y-131620111D01*
X144452242Y-131631976D01*
X144866535Y-132039805D01*
X144870078Y-132043293D01*
X144975650Y-132140792D01*
X145061668Y-132220233D01*
X145486052Y-132551007D01*
X145486438Y-132551308D01*
X145949483Y-132845190D01*
X146423384Y-133087037D01*
X146880717Y-133262007D01*
X147294064Y-133355260D01*
X147564002Y-133413918D01*
X147797286Y-133540032D01*
X147822548Y-133560886D01*
X147940804Y-133636721D01*
X148015869Y-133650715D01*
X148018897Y-133649152D01*
X148053737Y-133684850D01*
X148068085Y-133802130D01*
X148068097Y-133806971D01*
X148089714Y-133948572D01*
X148151204Y-133977544D01*
X148250585Y-133892902D01*
X148316040Y-133837438D01*
X148372202Y-133872001D01*
X148406632Y-133896947D01*
X148506882Y-133878894D01*
X148681193Y-133789015D01*
X148760045Y-133739782D01*
X149012620Y-133542774D01*
X149233967Y-133314798D01*
X149398878Y-133084451D01*
X149482146Y-132880331D01*
X149482632Y-132877748D01*
X149521015Y-132735510D01*
X149590029Y-132676479D01*
X149731113Y-132664775D01*
X149939642Y-132664775D01*
X149760430Y-132889953D01*
X149716030Y-132944438D01*
X149562483Y-133119749D01*
X149425124Y-133260703D01*
X149407132Y-133277813D01*
X149309034Y-133385494D01*
X149269030Y-133455857D01*
X149299223Y-133485820D01*
X149410291Y-133502937D01*
X149563019Y-133496602D01*
X149714571Y-133469314D01*
X149822107Y-133423575D01*
X149925776Y-133300518D01*
X150014812Y-133095206D01*
X150049645Y-132874931D01*
X150049652Y-132867154D01*
X150055236Y-132802196D01*
X150087203Y-132764420D01*
X150168919Y-132748962D01*
X150323749Y-132750958D01*
X150575059Y-132765542D01*
X150653595Y-132769768D01*
X150917750Y-132774763D01*
X151147358Y-132766316D01*
X151299903Y-132745595D01*
X151334506Y-132735572D01*
X151370307Y-132714159D01*
X151315940Y-132699290D01*
X151161435Y-132689416D01*
X150896820Y-132682987D01*
X150731733Y-132678069D01*
X150483003Y-132661717D01*
X150290832Y-132637935D01*
X150186988Y-132609992D01*
X150143728Y-132581473D01*
X150153000Y-132565185D01*
X150268209Y-132581917D01*
X150309548Y-132587660D01*
X150553265Y-132573598D01*
X150840377Y-132500172D01*
X150952264Y-132453881D01*
X151800295Y-132453881D01*
X151813425Y-132457003D01*
X151888149Y-132410844D01*
X151993710Y-132302420D01*
X152026173Y-132262475D01*
X152115451Y-132134433D01*
X152151300Y-132051597D01*
X152148792Y-132042590D01*
X152103150Y-132065465D01*
X152018263Y-132161287D01*
X152004132Y-132179490D01*
X151899935Y-132303233D01*
X151824849Y-132376286D01*
X151805139Y-132394207D01*
X151800295Y-132453881D01*
X150952264Y-132453881D01*
X151129370Y-132380607D01*
X151378731Y-132228130D01*
X151512300Y-132114819D01*
X151712266Y-131918798D01*
X151893122Y-131715996D01*
X152148792Y-131402361D01*
X152151300Y-131399284D01*
X152151300Y-131651730D01*
X152152960Y-131720457D01*
X152167795Y-131835982D01*
X152193012Y-131862465D01*
X152201607Y-131831282D01*
X152212758Y-131696493D01*
X152219951Y-131476105D01*
X152222609Y-131191432D01*
X152220152Y-130863789D01*
X152218123Y-130701195D01*
X152219626Y-130497133D01*
X152272036Y-130497133D01*
X152309032Y-130995493D01*
X152315289Y-131076163D01*
X152335164Y-131293985D01*
X152353990Y-131451329D01*
X152368399Y-131518514D01*
X152378556Y-131521135D01*
X152464750Y-131495150D01*
X152602852Y-131428962D01*
X152654286Y-131399525D01*
X152746034Y-131331192D01*
X152753329Y-131294214D01*
X152705038Y-131232632D01*
X152694051Y-131119186D01*
X152731236Y-131024004D01*
X152758896Y-131012524D01*
X152843517Y-131044888D01*
X152875497Y-131061062D01*
X152919456Y-131017844D01*
X152954029Y-130869261D01*
X152962810Y-130822760D01*
X152971647Y-130795591D01*
X153474139Y-130795591D01*
X153501749Y-130901662D01*
X153594774Y-131032176D01*
X153705405Y-131114068D01*
X153891466Y-131163593D01*
X154022721Y-131144603D01*
X154108570Y-131094268D01*
X154122884Y-131062297D01*
X154086215Y-131065240D01*
X154039922Y-131074572D01*
X153912314Y-131046203D01*
X153764900Y-130979775D01*
X153643125Y-130897656D01*
X153592435Y-130822212D01*
X153587524Y-130791029D01*
X153532387Y-130743262D01*
X153518503Y-130744345D01*
X153474139Y-130795591D01*
X152971647Y-130795591D01*
X153010290Y-130676789D01*
X153066925Y-130602920D01*
X153072398Y-130600450D01*
X153064144Y-130577989D01*
X152961938Y-130564127D01*
X152931683Y-130562504D01*
X152737570Y-130547589D01*
X152526916Y-130526392D01*
X152272036Y-130497133D01*
X152219626Y-130497133D01*
X152220246Y-130413002D01*
X154553191Y-130413002D01*
X154583215Y-130443026D01*
X154613238Y-130413002D01*
X154583215Y-130382979D01*
X154553191Y-130413002D01*
X152220246Y-130413002D01*
X152220688Y-130352955D01*
X152991962Y-130352955D01*
X153021985Y-130382979D01*
X153042001Y-130362963D01*
X153252167Y-130362963D01*
X153260968Y-130370149D01*
X153332230Y-130362963D01*
X153341624Y-130344902D01*
X153292198Y-130322931D01*
X153260409Y-130327265D01*
X153252167Y-130362963D01*
X153042001Y-130362963D01*
X153052009Y-130352955D01*
X153021985Y-130322931D01*
X152991962Y-130352955D01*
X152220688Y-130352955D01*
X152220995Y-130311334D01*
X153440727Y-130311334D01*
X153469671Y-130317765D01*
X153532387Y-130279982D01*
X153548400Y-130270335D01*
X153556158Y-130262427D01*
X153584938Y-130218439D01*
X153514786Y-130236721D01*
X153458747Y-130266667D01*
X153440727Y-130311334D01*
X152220995Y-130311334D01*
X152221587Y-130230943D01*
X152235472Y-130034584D01*
X152271394Y-130034584D01*
X152271394Y-130035312D01*
X152272036Y-130041774D01*
X152282731Y-130149429D01*
X152340738Y-130192757D01*
X152481560Y-130192445D01*
X152586701Y-130177506D01*
X152605987Y-130165840D01*
X153132460Y-130165840D01*
X153165016Y-130202837D01*
X153182629Y-130200595D01*
X153262174Y-130142789D01*
X153271794Y-130119739D01*
X153239238Y-130082742D01*
X153221625Y-130084984D01*
X153142080Y-130142789D01*
X153132460Y-130165840D01*
X152605987Y-130165840D01*
X152678483Y-130121988D01*
X152661549Y-130052719D01*
X152811820Y-130052719D01*
X152841843Y-130082742D01*
X152871867Y-130052719D01*
X152841843Y-130022695D01*
X152811820Y-130052719D01*
X152661549Y-130052719D01*
X152656320Y-130031332D01*
X152620507Y-129999096D01*
X153232151Y-129999096D01*
X153239238Y-130006750D01*
X153242106Y-130009848D01*
X153292198Y-130017881D01*
X153322222Y-130022695D01*
X153363628Y-130016143D01*
X153412293Y-129964532D01*
X153399542Y-129939685D01*
X153322222Y-129940933D01*
X153279105Y-129960377D01*
X153232151Y-129999096D01*
X152620507Y-129999096D01*
X152519817Y-129908463D01*
X152466767Y-129872577D01*
X152751773Y-129872577D01*
X152781796Y-129902600D01*
X152811820Y-129872577D01*
X153112056Y-129872577D01*
X153142080Y-129902600D01*
X153172104Y-129872577D01*
X153232151Y-129872577D01*
X153262174Y-129902600D01*
X153292198Y-129872577D01*
X153262174Y-129842553D01*
X153232151Y-129872577D01*
X153172104Y-129872577D01*
X153142080Y-129842553D01*
X153112056Y-129872577D01*
X152811820Y-129872577D01*
X152781796Y-129842553D01*
X152751773Y-129872577D01*
X152466767Y-129872577D01*
X152465255Y-129871554D01*
X152347157Y-129822645D01*
X152287735Y-129874349D01*
X152271394Y-130034584D01*
X152235472Y-130034584D01*
X152247866Y-129859299D01*
X152269408Y-129752482D01*
X152931914Y-129752482D01*
X152961938Y-129782506D01*
X152991962Y-129752482D01*
X152961938Y-129722458D01*
X152931914Y-129752482D01*
X152269408Y-129752482D01*
X152278097Y-129709397D01*
X152759588Y-129709397D01*
X152781796Y-129692373D01*
X152792237Y-129684369D01*
X152838947Y-129641775D01*
X152841843Y-129640396D01*
X152886533Y-129619116D01*
X153131733Y-129619116D01*
X153142080Y-129662680D01*
X153147130Y-129683942D01*
X153174087Y-129734378D01*
X153238575Y-129782506D01*
X153262174Y-129780791D01*
X153264837Y-129780597D01*
X153284031Y-129745900D01*
X153200753Y-129661270D01*
X153182966Y-129646760D01*
X153156330Y-129632388D01*
X154012765Y-129632388D01*
X154042789Y-129662411D01*
X154072813Y-129632388D01*
X156955082Y-129632388D01*
X156985106Y-129662411D01*
X157015130Y-129632388D01*
X156985106Y-129602364D01*
X156955082Y-129632388D01*
X154072813Y-129632388D01*
X154042789Y-129602364D01*
X154012765Y-129632388D01*
X153156330Y-129632388D01*
X153131733Y-129619116D01*
X152886533Y-129619116D01*
X152961938Y-129583211D01*
X152997248Y-129573063D01*
X153021985Y-129559325D01*
X153024383Y-129557993D01*
X152936618Y-129561253D01*
X152838803Y-129588873D01*
X152766916Y-129662411D01*
X152759588Y-129709397D01*
X152278097Y-129709397D01*
X152293627Y-129632388D01*
X152571631Y-129632388D01*
X152601654Y-129662411D01*
X152631678Y-129632388D01*
X152601654Y-129602364D01*
X152571631Y-129632388D01*
X152293627Y-129632388D01*
X152306186Y-129570110D01*
X152347157Y-129478412D01*
X152362271Y-129444586D01*
X153894497Y-129444586D01*
X153909266Y-129463435D01*
X153958235Y-129405947D01*
X154005885Y-129349804D01*
X154042789Y-129341771D01*
X154076503Y-129334432D01*
X154087785Y-129340969D01*
X154131632Y-129343421D01*
X154093349Y-129282633D01*
X154084771Y-129276183D01*
X154009605Y-129287067D01*
X153930147Y-129356260D01*
X153894497Y-129444586D01*
X152362271Y-129444586D01*
X152405773Y-129347223D01*
X152484650Y-129256436D01*
X154218951Y-129256436D01*
X154241696Y-129283099D01*
X154276420Y-129292693D01*
X154356786Y-129278359D01*
X154355857Y-129257861D01*
X154277974Y-129246821D01*
X154218951Y-129256436D01*
X152484650Y-129256436D01*
X152555852Y-129174483D01*
X152601654Y-129144192D01*
X152754873Y-129042861D01*
X153608501Y-129042861D01*
X153622070Y-129102967D01*
X153709926Y-129180640D01*
X153825882Y-129215677D01*
X153955075Y-129163122D01*
X153996614Y-129132395D01*
X154024480Y-129091962D01*
X154252955Y-129091962D01*
X154277974Y-129116982D01*
X154282978Y-129121986D01*
X154313002Y-129091962D01*
X154311795Y-129090755D01*
X154505973Y-129090755D01*
X154513159Y-129162017D01*
X154531221Y-129171411D01*
X154553191Y-129121986D01*
X154548858Y-129090197D01*
X154513159Y-129081954D01*
X154505973Y-129090755D01*
X154311795Y-129090755D01*
X154282978Y-129061938D01*
X154252955Y-129091962D01*
X154024480Y-129091962D01*
X154039355Y-129070378D01*
X154008423Y-129031915D01*
X154373049Y-129031915D01*
X154403073Y-129061938D01*
X154433096Y-129031915D01*
X154403073Y-129001891D01*
X154373049Y-129031915D01*
X154008423Y-129031915D01*
X153987358Y-129005722D01*
X153952740Y-128983201D01*
X153818717Y-128952298D01*
X153685297Y-128974015D01*
X153608501Y-129042861D01*
X152754873Y-129042861D01*
X152765648Y-129035735D01*
X153024383Y-128923504D01*
X153044388Y-128914827D01*
X153131733Y-128885650D01*
X153139097Y-128883190D01*
X154022887Y-128883190D01*
X154036570Y-128926612D01*
X154053912Y-128949691D01*
X154084771Y-128956270D01*
X154124155Y-128964667D01*
X154234936Y-128918908D01*
X154493144Y-128918908D01*
X154497053Y-128927121D01*
X154513159Y-128922731D01*
X154553191Y-128911820D01*
X154570966Y-128899484D01*
X154583215Y-128883605D01*
X154613238Y-128844685D01*
X154609329Y-128836472D01*
X154553191Y-128851773D01*
X154535416Y-128864110D01*
X154493144Y-128918908D01*
X154234936Y-128918908D01*
X154256362Y-128910058D01*
X154270008Y-128902912D01*
X154282978Y-128895138D01*
X154385637Y-128833604D01*
X154403073Y-128817085D01*
X154429841Y-128791726D01*
X154673286Y-128791726D01*
X154680841Y-128801887D01*
X154753349Y-128839624D01*
X154791168Y-128844751D01*
X154833412Y-128791726D01*
X154823854Y-128758255D01*
X154753349Y-128743828D01*
X154719496Y-128758439D01*
X154673286Y-128791726D01*
X154429841Y-128791726D01*
X154433096Y-128788642D01*
X154432508Y-128786464D01*
X154377580Y-128795336D01*
X154260568Y-128847836D01*
X154251563Y-128852403D01*
X154121085Y-128899094D01*
X154040775Y-128894414D01*
X154022887Y-128883190D01*
X153139097Y-128883190D01*
X153399542Y-128796189D01*
X153401297Y-128795603D01*
X153486349Y-128768310D01*
X153584938Y-128733063D01*
X153625171Y-128718679D01*
X153868035Y-128718679D01*
X153886697Y-128751338D01*
X154013745Y-128756110D01*
X154119001Y-128749861D01*
X154303482Y-128724001D01*
X154389825Y-128678649D01*
X154393323Y-128607829D01*
X154387283Y-128552969D01*
X154432508Y-128555716D01*
X154456090Y-128557148D01*
X154502234Y-128585105D01*
X154519279Y-128647899D01*
X154511834Y-128665947D01*
X154549647Y-128701655D01*
X154598948Y-128685834D01*
X154600427Y-128645541D01*
X154913931Y-128645541D01*
X154965863Y-128716666D01*
X155020822Y-128780714D01*
X155070945Y-128821749D01*
X155081482Y-128820763D01*
X155081679Y-128801733D01*
X155353821Y-128801733D01*
X155362622Y-128808920D01*
X155433884Y-128801733D01*
X155439089Y-128791726D01*
X156895035Y-128791726D01*
X156925059Y-128821749D01*
X156955082Y-128791726D01*
X157915839Y-128791726D01*
X157945862Y-128821749D01*
X157975886Y-128791726D01*
X157945862Y-128761702D01*
X157915839Y-128791726D01*
X156955082Y-128791726D01*
X156925059Y-128761702D01*
X156895035Y-128791726D01*
X155439089Y-128791726D01*
X155443279Y-128783672D01*
X155393853Y-128761702D01*
X155362064Y-128766035D01*
X155353821Y-128801733D01*
X155081679Y-128801733D01*
X155081888Y-128781641D01*
X154988534Y-128693995D01*
X154957960Y-128670424D01*
X155166493Y-128670424D01*
X155173680Y-128741686D01*
X155191741Y-128751080D01*
X155200365Y-128731678D01*
X155994326Y-128731678D01*
X156024349Y-128761702D01*
X156054373Y-128731678D01*
X156714893Y-128731678D01*
X156744917Y-128761702D01*
X156774940Y-128731678D01*
X156744917Y-128701655D01*
X156714893Y-128731678D01*
X156054373Y-128731678D01*
X156024349Y-128701655D01*
X155994326Y-128731678D01*
X155200365Y-128731678D01*
X155213711Y-128701655D01*
X155209619Y-128671631D01*
X156174468Y-128671631D01*
X156204491Y-128701655D01*
X156227427Y-128678719D01*
X158035933Y-128678719D01*
X158039843Y-128686932D01*
X158095981Y-128671631D01*
X158113756Y-128659294D01*
X158156028Y-128604496D01*
X158152118Y-128596282D01*
X158095981Y-128611584D01*
X158078205Y-128623920D01*
X158035933Y-128678719D01*
X156227427Y-128678719D01*
X156234515Y-128671631D01*
X156204491Y-128641607D01*
X156174468Y-128671631D01*
X155209619Y-128671631D01*
X155209378Y-128669866D01*
X155173680Y-128661623D01*
X155166493Y-128670424D01*
X154957960Y-128670424D01*
X154945026Y-128660452D01*
X154913931Y-128645541D01*
X154600427Y-128645541D01*
X154601494Y-128616463D01*
X154600272Y-128614990D01*
X154692568Y-128614990D01*
X154703309Y-128639768D01*
X154743960Y-128632371D01*
X154753349Y-128628013D01*
X154788744Y-128611584D01*
X155033569Y-128611584D01*
X155063593Y-128641607D01*
X155093617Y-128611584D01*
X155063593Y-128581560D01*
X155033569Y-128611584D01*
X154788744Y-128611584D01*
X154853427Y-128581560D01*
X154894192Y-128548130D01*
X154883451Y-128523352D01*
X154842800Y-128530749D01*
X154733333Y-128581560D01*
X154692568Y-128614990D01*
X154600272Y-128614990D01*
X154521788Y-128520368D01*
X154467794Y-128491489D01*
X154973522Y-128491489D01*
X155003546Y-128521513D01*
X155033569Y-128491489D01*
X155003546Y-128461466D01*
X154973522Y-128491489D01*
X154467794Y-128491489D01*
X154452298Y-128483201D01*
X154346918Y-128490387D01*
X154176516Y-128554087D01*
X154164115Y-128559458D01*
X153959820Y-128655572D01*
X153868035Y-128718679D01*
X153625171Y-128718679D01*
X153738098Y-128678306D01*
X153818717Y-128645590D01*
X153977880Y-128581000D01*
X154180245Y-128487834D01*
X154319742Y-128410249D01*
X154370921Y-128359687D01*
X154346252Y-128286092D01*
X154282978Y-128161229D01*
X154251953Y-128087386D01*
X154210916Y-127883772D01*
X154196710Y-127643544D01*
X154210905Y-127417534D01*
X154255067Y-127256572D01*
X154321149Y-127186130D01*
X154465233Y-127140425D01*
X154472901Y-127140508D01*
X154582262Y-127167078D01*
X154614084Y-127220771D01*
X154549317Y-127271819D01*
X154519525Y-127301089D01*
X154475967Y-127422477D01*
X154447002Y-127597887D01*
X154438416Y-127785639D01*
X154452298Y-127910738D01*
X154455995Y-127944054D01*
X154484709Y-128012507D01*
X154559275Y-128134717D01*
X154609329Y-128203589D01*
X154655244Y-128266765D01*
X154750803Y-128381085D01*
X154824135Y-128450111D01*
X154853427Y-128446275D01*
X154850033Y-128431711D01*
X155169400Y-128431711D01*
X155173680Y-128435266D01*
X155240200Y-128490513D01*
X155324977Y-128548119D01*
X155393853Y-128576784D01*
X155405330Y-128581560D01*
X155448357Y-128574465D01*
X155423006Y-128536903D01*
X155351830Y-128501497D01*
X155894247Y-128501497D01*
X155903048Y-128508684D01*
X155974310Y-128501497D01*
X155979515Y-128491489D01*
X156174468Y-128491489D01*
X156204491Y-128521513D01*
X156234515Y-128491489D01*
X156594799Y-128491489D01*
X156624822Y-128521513D01*
X156654846Y-128491489D01*
X156624822Y-128461466D01*
X156594799Y-128491489D01*
X156234515Y-128491489D01*
X156204491Y-128461466D01*
X156174468Y-128491489D01*
X155979515Y-128491489D01*
X155983704Y-128483436D01*
X155934278Y-128461466D01*
X155902490Y-128465799D01*
X155894247Y-128501497D01*
X155351830Y-128501497D01*
X155288770Y-128470128D01*
X155194586Y-128431442D01*
X155453900Y-128431442D01*
X155483924Y-128461466D01*
X155513948Y-128431442D01*
X156774940Y-128431442D01*
X156804964Y-128461466D01*
X156834988Y-128431442D01*
X158156028Y-128431442D01*
X158186052Y-128461466D01*
X158216075Y-128431442D01*
X158186052Y-128401418D01*
X158156028Y-128431442D01*
X156834988Y-128431442D01*
X156804964Y-128401418D01*
X156774940Y-128431442D01*
X155513948Y-128431442D01*
X155483924Y-128401418D01*
X155453900Y-128431442D01*
X155194586Y-128431442D01*
X155190102Y-128429600D01*
X155169400Y-128431711D01*
X154850033Y-128431711D01*
X154845373Y-128411710D01*
X154825636Y-128371395D01*
X155033569Y-128371395D01*
X155063593Y-128401418D01*
X155093617Y-128371395D01*
X156474704Y-128371395D01*
X156504728Y-128401418D01*
X156534751Y-128371395D01*
X157195271Y-128371395D01*
X157225295Y-128401418D01*
X157240391Y-128386323D01*
X158419814Y-128386323D01*
X158484913Y-128342512D01*
X158516528Y-128315060D01*
X158710174Y-128315060D01*
X158754243Y-128302411D01*
X158818697Y-128211407D01*
X158858328Y-128131265D01*
X158856457Y-128108080D01*
X158782101Y-128174811D01*
X158719803Y-128252087D01*
X158710174Y-128315060D01*
X158516528Y-128315060D01*
X158521749Y-128310526D01*
X158573081Y-128242212D01*
X158522736Y-128221276D01*
X158489934Y-128235252D01*
X158431290Y-128319841D01*
X158424217Y-128338881D01*
X158419814Y-128386323D01*
X157240391Y-128386323D01*
X157255319Y-128371395D01*
X157225295Y-128341371D01*
X157195271Y-128371395D01*
X156534751Y-128371395D01*
X156504728Y-128341371D01*
X156474704Y-128371395D01*
X155093617Y-128371395D01*
X155063593Y-128341371D01*
X155033569Y-128371395D01*
X154825636Y-128371395D01*
X154796237Y-128311347D01*
X156895035Y-128311347D01*
X156925059Y-128341371D01*
X156955082Y-128311347D01*
X156925059Y-128281324D01*
X156895035Y-128311347D01*
X154796237Y-128311347D01*
X154794626Y-128308056D01*
X154719863Y-128189557D01*
X154647726Y-128096590D01*
X154604855Y-128069533D01*
X154585693Y-128051032D01*
X154570898Y-127948105D01*
X154565266Y-127791595D01*
X154569907Y-127617179D01*
X154571973Y-127596982D01*
X154865114Y-127596982D01*
X154883451Y-127764965D01*
X154885783Y-127786328D01*
X154891096Y-127812865D01*
X154913931Y-127937188D01*
X154923353Y-127988485D01*
X154942402Y-128116164D01*
X154952678Y-128172287D01*
X154991692Y-128259463D01*
X155003546Y-128259321D01*
X155005689Y-128259295D01*
X155006060Y-128251300D01*
X156594799Y-128251300D01*
X156624822Y-128281324D01*
X156654846Y-128251300D01*
X157375413Y-128251300D01*
X157405437Y-128281324D01*
X157435461Y-128251300D01*
X157405437Y-128221276D01*
X157375413Y-128251300D01*
X156654846Y-128251300D01*
X156624822Y-128221276D01*
X156594799Y-128251300D01*
X155006060Y-128251300D01*
X155008844Y-128191253D01*
X156714893Y-128191253D01*
X156744917Y-128221276D01*
X156774940Y-128191253D01*
X156744917Y-128161229D01*
X156714893Y-128191253D01*
X155008844Y-128191253D01*
X155009853Y-128169488D01*
X155005646Y-128131206D01*
X156474704Y-128131206D01*
X156504728Y-128161229D01*
X156534751Y-128131206D01*
X158456264Y-128131206D01*
X158486288Y-128161229D01*
X158516312Y-128131206D01*
X158486288Y-128101182D01*
X158456264Y-128131206D01*
X156534751Y-128131206D01*
X156504728Y-128101182D01*
X156474704Y-128131206D01*
X155005646Y-128131206D01*
X154999046Y-128071158D01*
X156895035Y-128071158D01*
X156925059Y-128101182D01*
X156925515Y-128100726D01*
X158640340Y-128100726D01*
X158711465Y-128048794D01*
X158734714Y-128030074D01*
X158811851Y-127950249D01*
X158793877Y-127921040D01*
X158762868Y-127942960D01*
X158688794Y-128026123D01*
X158655250Y-128069631D01*
X158640340Y-128100726D01*
X156925515Y-128100726D01*
X156955082Y-128071158D01*
X156925059Y-128041135D01*
X156895035Y-128071158D01*
X154999046Y-128071158D01*
X154993547Y-128021119D01*
X156734909Y-128021119D01*
X156743710Y-128028305D01*
X156744917Y-128028183D01*
X156804964Y-128022128D01*
X156814972Y-128021119D01*
X156820177Y-128011111D01*
X157375413Y-128011111D01*
X157405437Y-128041135D01*
X157435461Y-128011111D01*
X157405437Y-127981087D01*
X157375413Y-128011111D01*
X156820177Y-128011111D01*
X156824366Y-128003058D01*
X156774940Y-127981087D01*
X156743152Y-127985421D01*
X156734909Y-128021119D01*
X154993547Y-128021119D01*
X154987713Y-127968035D01*
X154986630Y-127961072D01*
X157095193Y-127961072D01*
X157103994Y-127968258D01*
X157175256Y-127961072D01*
X157180461Y-127951064D01*
X158576359Y-127951064D01*
X158606383Y-127981087D01*
X158636406Y-127951064D01*
X158606383Y-127921040D01*
X158576359Y-127951064D01*
X157180461Y-127951064D01*
X157184650Y-127943010D01*
X157135224Y-127921040D01*
X157103435Y-127925374D01*
X157095193Y-127961072D01*
X154986630Y-127961072D01*
X154939571Y-127658409D01*
X154927697Y-127478818D01*
X154931485Y-127470685D01*
X154973522Y-127470685D01*
X155003546Y-127500709D01*
X155033569Y-127470685D01*
X155003546Y-127440662D01*
X154973522Y-127470685D01*
X154931485Y-127470685D01*
X154973399Y-127380690D01*
X155003546Y-127353943D01*
X155009193Y-127348933D01*
X154981693Y-127295594D01*
X154971651Y-127290625D01*
X154914008Y-127318634D01*
X154876509Y-127430919D01*
X154865114Y-127596982D01*
X154571973Y-127596982D01*
X154585928Y-127460538D01*
X154586474Y-127457244D01*
X154658843Y-127284617D01*
X154797181Y-127170449D01*
X154973522Y-127170449D01*
X155003546Y-127200473D01*
X155033569Y-127170449D01*
X155003546Y-127140425D01*
X154973522Y-127170449D01*
X154797181Y-127170449D01*
X154825212Y-127147315D01*
X154893451Y-127104641D01*
X154971651Y-127036524D01*
X155003546Y-127008741D01*
X155010762Y-127002455D01*
X155013058Y-126940268D01*
X155233727Y-126940268D01*
X155242528Y-126947454D01*
X155313790Y-126940268D01*
X155323184Y-126922207D01*
X155273758Y-126900236D01*
X155241970Y-126904570D01*
X155233727Y-126940268D01*
X155013058Y-126940268D01*
X155013429Y-126930220D01*
X154901021Y-126889401D01*
X154863164Y-126878626D01*
X155442981Y-126878626D01*
X155443683Y-126919450D01*
X155483924Y-126930209D01*
X155545324Y-126946626D01*
X155642895Y-126940906D01*
X155724681Y-126899317D01*
X155710299Y-126859451D01*
X155611106Y-126840189D01*
X155529525Y-126846310D01*
X155442981Y-126878626D01*
X154863164Y-126878626D01*
X154842501Y-126872745D01*
X154691553Y-126757815D01*
X154561320Y-126564010D01*
X154468769Y-126321279D01*
X154431539Y-126064184D01*
X154807950Y-126064184D01*
X154826707Y-126236020D01*
X154874656Y-126415568D01*
X154945425Y-126560926D01*
X155005497Y-126632999D01*
X155033569Y-126636032D01*
X155052505Y-126621140D01*
X155063593Y-126627325D01*
X155126482Y-126662406D01*
X155185141Y-126733882D01*
X155141494Y-126788934D01*
X155104927Y-126826352D01*
X155172722Y-126839269D01*
X155184515Y-126839164D01*
X155190102Y-126836719D01*
X155227913Y-126820173D01*
X155894247Y-126820173D01*
X155903048Y-126827360D01*
X155934278Y-126824210D01*
X155974310Y-126820173D01*
X155983704Y-126802112D01*
X155974437Y-126797993D01*
X156272007Y-126797993D01*
X156279550Y-126819910D01*
X156306731Y-126827841D01*
X156429669Y-126819910D01*
X156439854Y-126799059D01*
X156354609Y-126789623D01*
X156272007Y-126797993D01*
X155974437Y-126797993D01*
X155934278Y-126780142D01*
X155902490Y-126784475D01*
X155894247Y-126820173D01*
X155227913Y-126820173D01*
X155251939Y-126809659D01*
X155243946Y-126742157D01*
X157481915Y-126742157D01*
X157525531Y-126763545D01*
X157599526Y-126788054D01*
X157720685Y-126854003D01*
X157773931Y-126880161D01*
X157774800Y-126877665D01*
X157960087Y-126877665D01*
X157960805Y-126900605D01*
X158043813Y-126921276D01*
X158152118Y-126927909D01*
X158186052Y-126929987D01*
X158190507Y-126930260D01*
X158196465Y-126930230D01*
X158347898Y-126906132D01*
X158426449Y-126847964D01*
X158429188Y-126840412D01*
X158419299Y-126792601D01*
X158322050Y-126809863D01*
X158222832Y-126836138D01*
X158055949Y-126862135D01*
X157960087Y-126877665D01*
X157774800Y-126877665D01*
X157795744Y-126817518D01*
X157794646Y-126800758D01*
X157743679Y-126740268D01*
X157600591Y-126727060D01*
X157556992Y-126729168D01*
X157481915Y-126742157D01*
X155243946Y-126742157D01*
X155239905Y-126708028D01*
X155218330Y-126628302D01*
X155241549Y-126609537D01*
X155273758Y-126628267D01*
X155340941Y-126667336D01*
X155437311Y-126712658D01*
X155611106Y-126715091D01*
X155634042Y-126715412D01*
X155725185Y-126686082D01*
X155715058Y-126672349D01*
X155592550Y-126666033D01*
X155588800Y-126665902D01*
X155442960Y-126640675D01*
X155357523Y-126589795D01*
X155355096Y-126581423D01*
X155872791Y-126581423D01*
X155889091Y-126634875D01*
X155934278Y-126649604D01*
X155941561Y-126651978D01*
X156024349Y-126649736D01*
X156064229Y-126648656D01*
X156204491Y-126627561D01*
X156056995Y-126586138D01*
X156023324Y-126579984D01*
X156374625Y-126579984D01*
X156383426Y-126587171D01*
X156454688Y-126579984D01*
X156464082Y-126561923D01*
X156414657Y-126539953D01*
X157555555Y-126539953D01*
X157557172Y-126554199D01*
X157600591Y-126590430D01*
X157612059Y-126600000D01*
X157628905Y-126597709D01*
X157705673Y-126539953D01*
X157711322Y-126509016D01*
X157649170Y-126479905D01*
X157604431Y-126487254D01*
X157555555Y-126539953D01*
X156414657Y-126539953D01*
X156382868Y-126544286D01*
X156374625Y-126579984D01*
X156023324Y-126579984D01*
X155948081Y-126566232D01*
X155872791Y-126581423D01*
X155355096Y-126581423D01*
X155345912Y-126549735D01*
X155412103Y-126557149D01*
X155467514Y-126569031D01*
X155542344Y-126542585D01*
X155516725Y-126513803D01*
X155409161Y-126517732D01*
X155313857Y-126532098D01*
X155107934Y-126540759D01*
X154986894Y-126487891D01*
X154929470Y-126356874D01*
X154928044Y-126335521D01*
X157945862Y-126335521D01*
X157956541Y-126428611D01*
X157990898Y-126479905D01*
X157997915Y-126479252D01*
X158035933Y-126426368D01*
X158071208Y-126382662D01*
X158181424Y-126336314D01*
X158198434Y-126331410D01*
X158348656Y-126259330D01*
X158505921Y-126149174D01*
X158605959Y-126049548D01*
X158675703Y-125909982D01*
X158705703Y-125704571D01*
X158704563Y-125564120D01*
X158651518Y-125320208D01*
X158545743Y-125123215D01*
X158402736Y-125008739D01*
X158395911Y-125006106D01*
X158350187Y-125000922D01*
X158392685Y-125064538D01*
X158429055Y-125143299D01*
X158427268Y-125291090D01*
X158423991Y-125302898D01*
X158411464Y-125378018D01*
X158445617Y-125346326D01*
X158484106Y-125309999D01*
X158569645Y-125304834D01*
X158616942Y-125352884D01*
X158634572Y-125424061D01*
X158591371Y-125451991D01*
X158574335Y-125449596D01*
X158441431Y-125467712D01*
X158398043Y-125564184D01*
X158399268Y-125604974D01*
X158413350Y-125636383D01*
X158461781Y-125562921D01*
X158509431Y-125506778D01*
X158580049Y-125491406D01*
X158611927Y-125547905D01*
X158632252Y-125675551D01*
X158633215Y-125824454D01*
X158615017Y-125947988D01*
X158577860Y-125999527D01*
X158573951Y-125999129D01*
X158545991Y-125939574D01*
X158555777Y-125804373D01*
X158569324Y-125720204D01*
X158564050Y-125654493D01*
X158517700Y-125678822D01*
X158516142Y-125680316D01*
X158459862Y-125787982D01*
X158427586Y-125946402D01*
X158426387Y-125959424D01*
X158390052Y-126097483D01*
X158329055Y-126166596D01*
X158284487Y-126170419D01*
X158336170Y-126125113D01*
X158358760Y-126108450D01*
X158381962Y-126070201D01*
X158296045Y-126060494D01*
X158210507Y-126054811D01*
X158055856Y-126025403D01*
X158046328Y-126022628D01*
X158023678Y-126029469D01*
X158095981Y-126081108D01*
X158167566Y-126127035D01*
X158202020Y-126174388D01*
X158143892Y-126210671D01*
X158084420Y-126226844D01*
X157993773Y-126220747D01*
X157962200Y-126237247D01*
X157945862Y-126335521D01*
X154928044Y-126335521D01*
X154914394Y-126131090D01*
X154913150Y-126070662D01*
X154892739Y-125934360D01*
X154846959Y-125913454D01*
X154824758Y-125941965D01*
X154807950Y-126064184D01*
X154431539Y-126064184D01*
X154430871Y-126059574D01*
X154423870Y-125908249D01*
X154986351Y-125908249D01*
X154993538Y-125979511D01*
X155011599Y-125988905D01*
X155033569Y-125939480D01*
X155029236Y-125907691D01*
X154993538Y-125899448D01*
X154986351Y-125908249D01*
X154423870Y-125908249D01*
X154423057Y-125890674D01*
X154405122Y-125815377D01*
X154375995Y-125849409D01*
X154357630Y-125916859D01*
X154345197Y-126079142D01*
X154356305Y-126254978D01*
X154386888Y-126399995D01*
X154432876Y-126469824D01*
X154450266Y-126478966D01*
X154459950Y-126545081D01*
X154452224Y-126565081D01*
X154493144Y-126600000D01*
X154516414Y-126604804D01*
X154523167Y-126660047D01*
X154512890Y-126682449D01*
X154535203Y-126720094D01*
X154582398Y-126746540D01*
X154659350Y-126840189D01*
X154674651Y-126865315D01*
X154697070Y-126929295D01*
X154645203Y-126955341D01*
X154496184Y-126960284D01*
X154425782Y-126958980D01*
X154300761Y-126935396D01*
X154209294Y-126860178D01*
X154108470Y-126705083D01*
X154073968Y-126641136D01*
X153976673Y-126405564D01*
X153917599Y-126179669D01*
X153904689Y-126106350D01*
X153861519Y-125936554D01*
X153815933Y-125833022D01*
X153789892Y-125782395D01*
X153854154Y-125794411D01*
X153919208Y-125802824D01*
X153952718Y-125732195D01*
X153950175Y-125716335D01*
X154742114Y-125716335D01*
X154753993Y-125835540D01*
X154756386Y-125840893D01*
X154775183Y-125831864D01*
X154781674Y-125729314D01*
X154781278Y-125710667D01*
X154770882Y-125630911D01*
X154751768Y-125655398D01*
X154742114Y-125716335D01*
X153950175Y-125716335D01*
X153944917Y-125683543D01*
X153902679Y-125663082D01*
X153878902Y-125667322D01*
X153852639Y-125607532D01*
X153865887Y-125556686D01*
X153929558Y-125584893D01*
X153989013Y-125615823D01*
X154114704Y-125585765D01*
X154166151Y-125545491D01*
X154156410Y-125532426D01*
X154322351Y-125532426D01*
X154403073Y-125573743D01*
X154482605Y-125608205D01*
X154568203Y-125635023D01*
X154596955Y-125592259D01*
X154604787Y-125478108D01*
X154833577Y-125478108D01*
X154846959Y-125509513D01*
X154861373Y-125543339D01*
X154931821Y-125537834D01*
X154962514Y-125510036D01*
X154940635Y-125489125D01*
X157195271Y-125489125D01*
X157225295Y-125519149D01*
X157255319Y-125489125D01*
X157225295Y-125459101D01*
X157195271Y-125489125D01*
X154940635Y-125489125D01*
X154923023Y-125472292D01*
X154886872Y-125439086D01*
X156975098Y-125439086D01*
X156983899Y-125446272D01*
X156985106Y-125446150D01*
X157055161Y-125439086D01*
X157064555Y-125421025D01*
X157015130Y-125399054D01*
X156983341Y-125403388D01*
X156975098Y-125439086D01*
X154886872Y-125439086D01*
X154879514Y-125432327D01*
X154908940Y-125379038D01*
X156494720Y-125379038D01*
X156503521Y-125386225D01*
X156504728Y-125386103D01*
X156574783Y-125379038D01*
X156579988Y-125369031D01*
X157375413Y-125369031D01*
X157405437Y-125399054D01*
X157435461Y-125369031D01*
X157405437Y-125339007D01*
X157375413Y-125369031D01*
X156579988Y-125369031D01*
X156584177Y-125360977D01*
X156534751Y-125339007D01*
X156502962Y-125343340D01*
X156494720Y-125379038D01*
X154908940Y-125379038D01*
X154925980Y-125348179D01*
X154948423Y-125318991D01*
X156674862Y-125318991D01*
X156683663Y-125326178D01*
X156754925Y-125318991D01*
X156764319Y-125300930D01*
X156714893Y-125278960D01*
X156683104Y-125283293D01*
X156674862Y-125318991D01*
X154948423Y-125318991D01*
X154953406Y-125312510D01*
X154970355Y-125279120D01*
X154902032Y-125328385D01*
X154854648Y-125385841D01*
X154833577Y-125478108D01*
X154604787Y-125478108D01*
X154605061Y-125474113D01*
X154601087Y-125410811D01*
X154590292Y-125368272D01*
X154571712Y-125437598D01*
X154526508Y-125529416D01*
X154414759Y-125541449D01*
X154353728Y-125530461D01*
X154322351Y-125532426D01*
X154156410Y-125532426D01*
X154147872Y-125520975D01*
X154104878Y-125498613D01*
X154072813Y-125401721D01*
X154066619Y-125359291D01*
X154005532Y-125209759D01*
X153981181Y-125168544D01*
X154990734Y-125168544D01*
X154993538Y-125184822D01*
X154997812Y-125209635D01*
X155016348Y-125236309D01*
X155067137Y-125278960D01*
X155075531Y-125278375D01*
X155086731Y-125248936D01*
X156474704Y-125248936D01*
X156504728Y-125278960D01*
X156524743Y-125258944D01*
X157155240Y-125258944D01*
X157164041Y-125266130D01*
X157225295Y-125259953D01*
X157235303Y-125258944D01*
X157244697Y-125240883D01*
X157195271Y-125218912D01*
X157163483Y-125223246D01*
X157155240Y-125258944D01*
X156524743Y-125258944D01*
X156534751Y-125248936D01*
X156504728Y-125218912D01*
X156474704Y-125248936D01*
X155086731Y-125248936D01*
X155088755Y-125243616D01*
X155024291Y-125183155D01*
X154990734Y-125168544D01*
X153981181Y-125168544D01*
X153961911Y-125135929D01*
X154793380Y-125135929D01*
X154797290Y-125144143D01*
X154850510Y-125129636D01*
X156144981Y-125129636D01*
X156160564Y-125168980D01*
X156194001Y-125192908D01*
X156302771Y-125206168D01*
X156307224Y-125198897D01*
X156975098Y-125198897D01*
X156983899Y-125206083D01*
X157015130Y-125202934D01*
X157055161Y-125198897D01*
X157064555Y-125180835D01*
X157015130Y-125158865D01*
X156983341Y-125163199D01*
X156975098Y-125198897D01*
X156307224Y-125198897D01*
X156319817Y-125178336D01*
X156239328Y-125142725D01*
X156232977Y-125141084D01*
X156144981Y-125129636D01*
X154850510Y-125129636D01*
X154853427Y-125128841D01*
X156714893Y-125128841D01*
X156744917Y-125158865D01*
X156774940Y-125128841D01*
X156744917Y-125098818D01*
X156714893Y-125128841D01*
X154853427Y-125128841D01*
X154871203Y-125116505D01*
X154913475Y-125061707D01*
X154909565Y-125053493D01*
X154853427Y-125068794D01*
X154835652Y-125081131D01*
X154793380Y-125135929D01*
X153961911Y-125135929D01*
X153901724Y-125034060D01*
X153882710Y-125008747D01*
X156474704Y-125008747D01*
X156504728Y-125038771D01*
X156534751Y-125008747D01*
X156504728Y-124978723D01*
X156474704Y-125008747D01*
X153882710Y-125008747D01*
X153837607Y-124948700D01*
X155994326Y-124948700D01*
X156024349Y-124978723D01*
X156054373Y-124948700D01*
X156895035Y-124948700D01*
X156925059Y-124978723D01*
X156955082Y-124948700D01*
X158216075Y-124948700D01*
X158246099Y-124978723D01*
X158276122Y-124948700D01*
X158246099Y-124918676D01*
X158216075Y-124948700D01*
X156955082Y-124948700D01*
X156925059Y-124918676D01*
X156895035Y-124948700D01*
X156054373Y-124948700D01*
X156024349Y-124918676D01*
X155994326Y-124948700D01*
X153837607Y-124948700D01*
X153792502Y-124888652D01*
X156294562Y-124888652D01*
X156324586Y-124918676D01*
X156354609Y-124888652D01*
X156594799Y-124888652D01*
X156624822Y-124918676D01*
X156654846Y-124888652D01*
X158095981Y-124888652D01*
X158126004Y-124918676D01*
X158156028Y-124888652D01*
X158126004Y-124858629D01*
X158095981Y-124888652D01*
X156654846Y-124888652D01*
X156624822Y-124858629D01*
X156594799Y-124888652D01*
X156354609Y-124888652D01*
X156324586Y-124858629D01*
X156294562Y-124888652D01*
X153792502Y-124888652D01*
X153783225Y-124876301D01*
X153730822Y-124828605D01*
X157975886Y-124828605D01*
X158005910Y-124858629D01*
X158035933Y-124828605D01*
X158005910Y-124798581D01*
X157975886Y-124828605D01*
X153730822Y-124828605D01*
X153678065Y-124780586D01*
X153675011Y-124778566D01*
X158236091Y-124778566D01*
X158244892Y-124785752D01*
X158246099Y-124785630D01*
X158316154Y-124778566D01*
X158325548Y-124760504D01*
X158276122Y-124738534D01*
X158244334Y-124742868D01*
X158236091Y-124778566D01*
X153675011Y-124778566D01*
X153655239Y-124765489D01*
X153622131Y-124708510D01*
X157135224Y-124708510D01*
X157165248Y-124738534D01*
X157195271Y-124708510D01*
X157165248Y-124678487D01*
X157135224Y-124708510D01*
X153622131Y-124708510D01*
X153594242Y-124660513D01*
X153597091Y-124648463D01*
X156774940Y-124648463D01*
X156804964Y-124678487D01*
X156834988Y-124648463D01*
X156804964Y-124618440D01*
X156774940Y-124648463D01*
X153597091Y-124648463D01*
X153621108Y-124546880D01*
X153648790Y-124528369D01*
X154012765Y-124528369D01*
X154042789Y-124558392D01*
X154072813Y-124528369D01*
X154042789Y-124498345D01*
X154012765Y-124528369D01*
X153648790Y-124528369D01*
X153727541Y-124475707D01*
X153749091Y-124464248D01*
X153673501Y-124462689D01*
X153512931Y-124472578D01*
X153144192Y-124539721D01*
X152801073Y-124701939D01*
X152497432Y-124969062D01*
X152463743Y-125006749D01*
X152273488Y-125244842D01*
X152177923Y-125423334D01*
X152173076Y-125549333D01*
X152152998Y-125633014D01*
X152057605Y-125726167D01*
X152037124Y-125741325D01*
X151955038Y-125846060D01*
X151910748Y-125971030D01*
X151913154Y-126075722D01*
X151971158Y-126119622D01*
X152009690Y-126153107D01*
X152031205Y-126262387D01*
X152049464Y-126363460D01*
X152121276Y-126479905D01*
X152170164Y-126529352D01*
X152211347Y-126609696D01*
X152229510Y-126649466D01*
X152312630Y-126757618D01*
X152440322Y-126896009D01*
X152440982Y-126896675D01*
X152596875Y-127037527D01*
X152721379Y-127100702D01*
X152853193Y-127105872D01*
X152982185Y-127108805D01*
X153137404Y-127195306D01*
X153190934Y-127260001D01*
X153188407Y-127309769D01*
X153082054Y-127345220D01*
X152965787Y-127362314D01*
X152870347Y-127349651D01*
X152829392Y-127336376D01*
X152716021Y-127367745D01*
X152614011Y-127459428D01*
X152567825Y-127577881D01*
X152564172Y-127655247D01*
X152548917Y-127665583D01*
X152506493Y-127567066D01*
X152478042Y-127453473D01*
X152482973Y-127316113D01*
X152486829Y-127302765D01*
X152472966Y-127224629D01*
X152362068Y-127189710D01*
X152346897Y-127187473D01*
X152265571Y-127155697D01*
X152191119Y-127076829D01*
X152107605Y-126928933D01*
X151999092Y-126690071D01*
X151817737Y-126313277D01*
X151397056Y-125649627D01*
X150872347Y-125045530D01*
X150770217Y-124945091D01*
X150538806Y-124733001D01*
X150356830Y-124596751D01*
X150205296Y-124523517D01*
X150065212Y-124500473D01*
X150044758Y-124500062D01*
X149984538Y-124490603D01*
X149974084Y-124450719D01*
X150017472Y-124356265D01*
X150118775Y-124183097D01*
X150199538Y-124049623D01*
X150339114Y-123825131D01*
X150457401Y-123641584D01*
X150500759Y-123572821D01*
X150565281Y-123447671D01*
X150565308Y-123447518D01*
X151733639Y-123447518D01*
X151736544Y-123520008D01*
X151762405Y-123526598D01*
X151837387Y-123441211D01*
X151877326Y-123395769D01*
X152027889Y-123289288D01*
X152202591Y-123279136D01*
X152429857Y-123361486D01*
X152582664Y-123446193D01*
X152669266Y-123535668D01*
X152692438Y-123648028D01*
X152704395Y-123768186D01*
X152741384Y-123965903D01*
X152792711Y-124181907D01*
X152847379Y-124370556D01*
X152894390Y-124486209D01*
X152904792Y-124496346D01*
X153006200Y-124502192D01*
X153186458Y-124452373D01*
X153311283Y-124418282D01*
X154092829Y-124418282D01*
X154101629Y-124425468D01*
X154172892Y-124418282D01*
X154182286Y-124400221D01*
X154132860Y-124378250D01*
X154101071Y-124382584D01*
X154092829Y-124418282D01*
X153311283Y-124418282D01*
X153369193Y-124402466D01*
X153623888Y-124355427D01*
X153684306Y-124348227D01*
X156234515Y-124348227D01*
X156264539Y-124378250D01*
X156294562Y-124348227D01*
X156264539Y-124318203D01*
X156234515Y-124348227D01*
X153684306Y-124348227D01*
X153887069Y-124324064D01*
X154042789Y-124311500D01*
X154132860Y-124304233D01*
X154331821Y-124288180D01*
X154363246Y-124228132D01*
X155994326Y-124228132D01*
X156024349Y-124258156D01*
X156054373Y-124228132D01*
X156024349Y-124198109D01*
X155994326Y-124228132D01*
X154363246Y-124228132D01*
X154411214Y-124136472D01*
X156182876Y-124136472D01*
X156264539Y-124079994D01*
X156324586Y-124036178D01*
X156347092Y-124019755D01*
X156391472Y-123987943D01*
X156474704Y-123987943D01*
X156504728Y-124017967D01*
X156534751Y-123987943D01*
X156504728Y-123957919D01*
X156474704Y-123987943D01*
X156391472Y-123987943D01*
X156409653Y-123974911D01*
X156414285Y-123969722D01*
X156371970Y-123957919D01*
X156318357Y-123978696D01*
X156226856Y-124063002D01*
X156186759Y-124115568D01*
X156182876Y-124136472D01*
X154411214Y-124136472D01*
X154457518Y-124047990D01*
X154477995Y-124005418D01*
X154557591Y-123714743D01*
X154577627Y-123361602D01*
X154538516Y-122981249D01*
X154440670Y-122608937D01*
X154391067Y-122445355D01*
X154334873Y-122175541D01*
X154322067Y-122038674D01*
X155036152Y-122038674D01*
X155093617Y-122095886D01*
X155264074Y-122179751D01*
X155535306Y-122207406D01*
X155821547Y-122126135D01*
X155948081Y-122043029D01*
X156024349Y-121992937D01*
X156107520Y-121938311D01*
X156144981Y-121904186D01*
X156209818Y-121845124D01*
X156304107Y-121742082D01*
X156327220Y-121688765D01*
X156322495Y-121685913D01*
X156252741Y-121710983D01*
X156144207Y-121796440D01*
X156072406Y-121861311D01*
X156004604Y-121910395D01*
X156007756Y-121885251D01*
X156077077Y-121796534D01*
X156207781Y-121654899D01*
X156272806Y-121583745D01*
X156368529Y-121438474D01*
X156364872Y-121347389D01*
X156260995Y-121315839D01*
X156227490Y-121313772D01*
X156181730Y-121281139D01*
X156203366Y-121193020D01*
X156218597Y-121165721D01*
X156294562Y-121165721D01*
X156324586Y-121195745D01*
X156354609Y-121165721D01*
X156324586Y-121135697D01*
X156294562Y-121165721D01*
X156218597Y-121165721D01*
X156285602Y-121045626D01*
X156654846Y-121045626D01*
X156684870Y-121075650D01*
X156714893Y-121045626D01*
X156684870Y-121015603D01*
X156654846Y-121045626D01*
X156285602Y-121045626D01*
X156294787Y-121029163D01*
X156324586Y-120977602D01*
X156326892Y-120973612D01*
X156371970Y-120877114D01*
X156388419Y-120841902D01*
X156411911Y-120752420D01*
X156393937Y-120727737D01*
X156331068Y-120790425D01*
X156293806Y-120836429D01*
X156222273Y-120889185D01*
X156194879Y-120832396D01*
X156210008Y-120664377D01*
X156218928Y-120565248D01*
X156594799Y-120565248D01*
X156624822Y-120595272D01*
X156654846Y-120565248D01*
X156624822Y-120535224D01*
X156594799Y-120565248D01*
X156218928Y-120565248D01*
X156220196Y-120551159D01*
X156172964Y-120281994D01*
X156128546Y-120214972D01*
X156374625Y-120214972D01*
X156383426Y-120222159D01*
X156414657Y-120219009D01*
X156454688Y-120214972D01*
X156464082Y-120196911D01*
X156414657Y-120174941D01*
X156382868Y-120179274D01*
X156374625Y-120214972D01*
X156128546Y-120214972D01*
X156030893Y-120067626D01*
X155809489Y-119925911D01*
X155524260Y-119874704D01*
X155261058Y-119874704D01*
X155447550Y-120048914D01*
X155522059Y-120122995D01*
X155595086Y-120230372D01*
X155626770Y-120365475D01*
X155633392Y-120574328D01*
X155632845Y-120615858D01*
X155597953Y-120952850D01*
X155516595Y-121286408D01*
X155399796Y-121587374D01*
X155258577Y-121826587D01*
X155103961Y-121974889D01*
X155084572Y-121986647D01*
X155036152Y-122038674D01*
X154322067Y-122038674D01*
X154313002Y-121941784D01*
X154314463Y-121868536D01*
X154354130Y-121625491D01*
X154461310Y-121414289D01*
X154466996Y-121405910D01*
X155333806Y-121405910D01*
X155363829Y-121435934D01*
X155393853Y-121405910D01*
X155363829Y-121375886D01*
X155333806Y-121405910D01*
X154466996Y-121405910D01*
X154590292Y-121224225D01*
X154609619Y-121195745D01*
X154434831Y-121195745D01*
X154305191Y-121210288D01*
X154227724Y-121248036D01*
X154161515Y-121292815D01*
X154029027Y-121335405D01*
X153992944Y-121345169D01*
X153801693Y-121439931D01*
X153574179Y-121602189D01*
X153338447Y-121807964D01*
X153122537Y-122033279D01*
X152954494Y-122254159D01*
X152948576Y-122263453D01*
X152783404Y-122586445D01*
X152709571Y-122901651D01*
X152677006Y-123217174D01*
X152536977Y-123077145D01*
X152533440Y-123073638D01*
X152407704Y-122977097D01*
X152300200Y-122937116D01*
X152287205Y-122937389D01*
X152098973Y-122991129D01*
X151919989Y-123115666D01*
X151786221Y-123278596D01*
X151733639Y-123447518D01*
X150565308Y-123447518D01*
X150576463Y-123383871D01*
X150575223Y-123382812D01*
X150497653Y-123384679D01*
X150341696Y-123425186D01*
X150136863Y-123493738D01*
X149912668Y-123579736D01*
X149698620Y-123672586D01*
X149524231Y-123761690D01*
X149475052Y-123789362D01*
X149332926Y-123854444D01*
X149278517Y-123850959D01*
X149309097Y-123786641D01*
X149421935Y-123669226D01*
X149614302Y-123506449D01*
X149788659Y-123378248D01*
X150218389Y-123116858D01*
X150653206Y-122907092D01*
X151190543Y-122907092D01*
X151220567Y-122937116D01*
X151250591Y-122907092D01*
X151234924Y-122891425D01*
X151456776Y-122891425D01*
X151479521Y-122918088D01*
X151514245Y-122927681D01*
X151594611Y-122913347D01*
X151594328Y-122907092D01*
X152571631Y-122907092D01*
X152601654Y-122937116D01*
X152631678Y-122907092D01*
X152601654Y-122877068D01*
X152571631Y-122907092D01*
X151594328Y-122907092D01*
X151593682Y-122892849D01*
X151515799Y-122881809D01*
X151456776Y-122891425D01*
X151234924Y-122891425D01*
X151220567Y-122877068D01*
X151190543Y-122907092D01*
X150653206Y-122907092D01*
X150686554Y-122891004D01*
X150808943Y-122847045D01*
X152091252Y-122847045D01*
X152121276Y-122877068D01*
X152151300Y-122847045D01*
X152451536Y-122847045D01*
X152481560Y-122877068D01*
X152511583Y-122847045D01*
X152481560Y-122817021D01*
X152451536Y-122847045D01*
X152151300Y-122847045D01*
X152121276Y-122817021D01*
X152091252Y-122847045D01*
X150808943Y-122847045D01*
X150976126Y-122786997D01*
X152211347Y-122786997D01*
X152241371Y-122817021D01*
X152271394Y-122786997D01*
X152241371Y-122756974D01*
X152211347Y-122786997D01*
X150976126Y-122786997D01*
X151137861Y-122728906D01*
X151158998Y-122722677D01*
X151220567Y-122696917D01*
X151419824Y-122613549D01*
X151515799Y-122552113D01*
X151657208Y-122461594D01*
X151840028Y-122290385D01*
X151937161Y-122123496D01*
X151948730Y-122052657D01*
X151907057Y-122016462D01*
X151776232Y-122022042D01*
X151662095Y-122018438D01*
X151450900Y-121989101D01*
X151183681Y-121938117D01*
X150892252Y-121870926D01*
X150818719Y-121852755D01*
X150425549Y-121769569D01*
X150112489Y-121735685D01*
X149853721Y-121752331D01*
X149623426Y-121820737D01*
X149395787Y-121942130D01*
X149250828Y-122047063D01*
X149073286Y-122233070D01*
X148925186Y-122476882D01*
X148794771Y-122799215D01*
X148670290Y-123220786D01*
X148610231Y-123442711D01*
X148529590Y-123722280D01*
X148456880Y-123955362D01*
X148402673Y-124106939D01*
X148383800Y-124153378D01*
X148329928Y-124303906D01*
X148308274Y-124395592D01*
X148310641Y-124424863D01*
X148338047Y-124426832D01*
X148397422Y-124323760D01*
X148490352Y-124112548D01*
X148618427Y-123790097D01*
X148694451Y-123600580D01*
X148772093Y-123426446D01*
X148825433Y-123330422D01*
X148845915Y-123329819D01*
X148832652Y-123461333D01*
X148787516Y-123678715D01*
X148721326Y-123928404D01*
X148645449Y-124167972D01*
X148571251Y-124354992D01*
X148477418Y-124552731D01*
X148262299Y-124437435D01*
X148182257Y-124399189D01*
X147961457Y-124316211D01*
X147730849Y-124251346D01*
X147377745Y-124220050D01*
X147000052Y-124289758D01*
X146592142Y-124466438D01*
X146347169Y-124598553D01*
X146373349Y-124461601D01*
X146367168Y-124350461D01*
X146285046Y-124170380D01*
X146139660Y-123995716D01*
X145956116Y-123862515D01*
X145858901Y-123817538D01*
X145759731Y-123800015D01*
X145752723Y-123859063D01*
X145839490Y-123992879D01*
X145852308Y-124010064D01*
X145943246Y-124220780D01*
X145963700Y-124462470D01*
X145907753Y-124675925D01*
X145874108Y-124720180D01*
X145750563Y-124828978D01*
X145584764Y-124940461D01*
X145454020Y-125033704D01*
X145258207Y-125200094D01*
X145034573Y-125409437D01*
X144810377Y-125637207D01*
X144499836Y-125991210D01*
X144174567Y-126448819D01*
X143939729Y-126909779D01*
X143781743Y-127397324D01*
X143748519Y-127546825D01*
X143722561Y-127706630D01*
X143705219Y-127887618D01*
X143695665Y-128109553D01*
X143693070Y-128392202D01*
X143696607Y-128755330D01*
X143705448Y-129218704D01*
X143714657Y-129645681D01*
X143534515Y-129584163D01*
X143392825Y-129522451D01*
X143293228Y-129418408D01*
X143286072Y-129377187D01*
X143391362Y-129377187D01*
X143394455Y-129427620D01*
X143405077Y-129468120D01*
X143428037Y-129395536D01*
X143447677Y-129332815D01*
X143479121Y-129328940D01*
X143539038Y-129425559D01*
X143542615Y-129431961D01*
X143600628Y-129510277D01*
X143622458Y-129479267D01*
X143605179Y-129400902D01*
X143528817Y-129291269D01*
X143432435Y-129242080D01*
X143403967Y-129271868D01*
X143391362Y-129377187D01*
X143286072Y-129377187D01*
X143265222Y-129257092D01*
X143262799Y-129185347D01*
X143240781Y-129141786D01*
X143174473Y-129129522D01*
X143039119Y-129144510D01*
X142809964Y-129182705D01*
X142652987Y-129209433D01*
X142439177Y-129245770D01*
X142288028Y-129271376D01*
X142122391Y-129299328D01*
X142234866Y-129075550D01*
X142244376Y-129056351D01*
X142341370Y-128837186D01*
X142422101Y-128620748D01*
X142454351Y-128514655D01*
X142462682Y-128410230D01*
X142410040Y-128324723D01*
X142280109Y-128211057D01*
X142171358Y-128103091D01*
X142071309Y-127900214D01*
X142076936Y-127661652D01*
X142186758Y-127374132D01*
X142257912Y-127214101D01*
X142277219Y-127078660D01*
X142242328Y-126926715D01*
X142209927Y-126805800D01*
X142220216Y-126681562D01*
X142303158Y-126540498D01*
X142353436Y-126458875D01*
X142377402Y-126372611D01*
X142336864Y-126363702D01*
X142243498Y-126449882D01*
X142194308Y-126498870D01*
X142116051Y-126539953D01*
X142111029Y-126529076D01*
X142099895Y-126423204D01*
X142089782Y-126214320D01*
X142080941Y-125914378D01*
X142073627Y-125535334D01*
X142068089Y-125089144D01*
X142064582Y-124587762D01*
X142063357Y-124043145D01*
X142063357Y-122880612D01*
X148488416Y-122880612D01*
X148490134Y-122894018D01*
X148548463Y-122937116D01*
X148577160Y-122925658D01*
X148608510Y-122843501D01*
X148599869Y-122800610D01*
X148548463Y-122786997D01*
X148532064Y-122799288D01*
X148488416Y-122880612D01*
X142063357Y-122880612D01*
X142063357Y-122666903D01*
X148308274Y-122666903D01*
X148338297Y-122696927D01*
X148368321Y-122666903D01*
X148338297Y-122636879D01*
X148308274Y-122666903D01*
X142063357Y-122666903D01*
X142063357Y-121646099D01*
X152571631Y-121646099D01*
X152601654Y-121676123D01*
X152631678Y-121646099D01*
X152601654Y-121616075D01*
X152571631Y-121646099D01*
X142063357Y-121646099D01*
X142063357Y-121546337D01*
X143069148Y-121585798D01*
X143243747Y-121591373D01*
X143432435Y-121595626D01*
X143571445Y-121598760D01*
X143993828Y-121605931D01*
X144496364Y-121612731D01*
X145064520Y-121619003D01*
X145683764Y-121624590D01*
X146339563Y-121629336D01*
X147017385Y-121633084D01*
X147702697Y-121635679D01*
X147926351Y-121636305D01*
X148338297Y-121637228D01*
X148548463Y-121637699D01*
X148676075Y-121637985D01*
X149315391Y-121638340D01*
X149851916Y-121636916D01*
X150293267Y-121633259D01*
X150647058Y-121626915D01*
X150920907Y-121617430D01*
X151122429Y-121604351D01*
X151259242Y-121587224D01*
X151338961Y-121565595D01*
X151369203Y-121539011D01*
X151357584Y-121507017D01*
X151311720Y-121469161D01*
X151239228Y-121424987D01*
X151211488Y-121412925D01*
X151107447Y-121389970D01*
X151030137Y-121381592D01*
X152511457Y-121381592D01*
X152537185Y-121427687D01*
X152601654Y-121495832D01*
X152621394Y-121516698D01*
X152658604Y-121544160D01*
X152824234Y-121598630D01*
X153086761Y-121615680D01*
X153155772Y-121614654D01*
X153423911Y-121582351D01*
X153617725Y-121499652D01*
X153793134Y-121384019D01*
X153152232Y-121364941D01*
X152940682Y-121360655D01*
X152718565Y-121361512D01*
X152567301Y-121368704D01*
X152511457Y-121381592D01*
X151030137Y-121381592D01*
X150935423Y-121371328D01*
X150684996Y-121356470D01*
X150345747Y-121344865D01*
X149907256Y-121335982D01*
X149359101Y-121329292D01*
X149051904Y-121327500D01*
X148572596Y-121327839D01*
X148033390Y-121331073D01*
X147449287Y-121336897D01*
X146835284Y-121345006D01*
X146206381Y-121355092D01*
X145577577Y-121366851D01*
X144963872Y-121379978D01*
X144380263Y-121394165D01*
X143841752Y-121409109D01*
X143363336Y-121424502D01*
X142960014Y-121440040D01*
X142646787Y-121455417D01*
X142438652Y-121470326D01*
X142063357Y-121506648D01*
X142063357Y-121290605D01*
X142063357Y-121074563D01*
X143459456Y-121120142D01*
X143574669Y-121123513D01*
X143923699Y-121131061D01*
X144372576Y-121138050D01*
X144907116Y-121144373D01*
X145513132Y-121149924D01*
X146176442Y-121154598D01*
X146882859Y-121158289D01*
X147618200Y-121160890D01*
X148368279Y-121162296D01*
X149118912Y-121162401D01*
X149600555Y-121162000D01*
X150565710Y-121160963D01*
X151420461Y-121159586D01*
X152121276Y-121157849D01*
X152171449Y-121157725D01*
X152241371Y-121157459D01*
X152481560Y-121156545D01*
X152825315Y-121155236D01*
X152940682Y-121154568D01*
X153388703Y-121151975D01*
X153868253Y-121147799D01*
X154270608Y-121142564D01*
X154434831Y-121139378D01*
X154602409Y-121136127D01*
X154770882Y-121131232D01*
X154870299Y-121128344D01*
X154909565Y-121126615D01*
X154970355Y-121123938D01*
X154990734Y-121123041D01*
X155080920Y-121119071D01*
X155240912Y-121108164D01*
X155356919Y-121095481D01*
X155363829Y-121094198D01*
X155435582Y-121080877D01*
X155483543Y-121064209D01*
X155507443Y-121045333D01*
X155513926Y-121024105D01*
X155513157Y-121022540D01*
X155441690Y-121009192D01*
X155260765Y-120996705D01*
X154979933Y-120985118D01*
X154608747Y-120974471D01*
X154156757Y-120964802D01*
X153633515Y-120956152D01*
X153048573Y-120948560D01*
X152411481Y-120942065D01*
X151731792Y-120936707D01*
X151019058Y-120932525D01*
X150282828Y-120929558D01*
X149532656Y-120927847D01*
X148778092Y-120927430D01*
X148028688Y-120928347D01*
X147293996Y-120930638D01*
X146583567Y-120934341D01*
X145906952Y-120939497D01*
X145273703Y-120946145D01*
X144693372Y-120954324D01*
X144175510Y-120964073D01*
X143729669Y-120975433D01*
X142063357Y-121025335D01*
X142063357Y-120638305D01*
X143087924Y-120638305D01*
X143146566Y-120668646D01*
X143225908Y-120676927D01*
X143415636Y-120685010D01*
X143705343Y-120692737D01*
X144084905Y-120700057D01*
X144544200Y-120706924D01*
X145073105Y-120713286D01*
X145661496Y-120719094D01*
X146299250Y-120724301D01*
X146976245Y-120728856D01*
X147682356Y-120732711D01*
X148407463Y-120735816D01*
X149141440Y-120738122D01*
X149874165Y-120739580D01*
X150595515Y-120740140D01*
X151295367Y-120739755D01*
X151963598Y-120738374D01*
X152590085Y-120735948D01*
X153164704Y-120732429D01*
X153677333Y-120727766D01*
X154117848Y-120721912D01*
X154193417Y-120720664D01*
X154658909Y-120711197D01*
X155016275Y-120700012D01*
X155275991Y-120686405D01*
X155448533Y-120669672D01*
X155544375Y-120649109D01*
X155573995Y-120624011D01*
X155520078Y-120605611D01*
X155355448Y-120587701D01*
X155089672Y-120571110D01*
X154732415Y-120555876D01*
X154293342Y-120542039D01*
X153782116Y-120529636D01*
X153208402Y-120518706D01*
X152581865Y-120509287D01*
X151912168Y-120501419D01*
X151208977Y-120495139D01*
X150481956Y-120490486D01*
X149740769Y-120487499D01*
X148995080Y-120486216D01*
X148254554Y-120486675D01*
X147528856Y-120488916D01*
X146827649Y-120492976D01*
X146160598Y-120498894D01*
X145537368Y-120506708D01*
X144967623Y-120516458D01*
X144461027Y-120528181D01*
X144027245Y-120541917D01*
X143675940Y-120557703D01*
X143416779Y-120575577D01*
X143228039Y-120594766D01*
X143110588Y-120615225D01*
X143087924Y-120638305D01*
X142063357Y-120638305D01*
X142063357Y-120413949D01*
X142063357Y-120214787D01*
X143440060Y-120214787D01*
X143470630Y-120233166D01*
X143611232Y-120250557D01*
X143852929Y-120266844D01*
X144186782Y-120281910D01*
X144603853Y-120295640D01*
X145095207Y-120307917D01*
X145651904Y-120318626D01*
X146265007Y-120327649D01*
X146925579Y-120334871D01*
X147624682Y-120340176D01*
X148353379Y-120343448D01*
X148995080Y-120344409D01*
X149102731Y-120344570D01*
X149863802Y-120343427D01*
X150627653Y-120339902D01*
X151385348Y-120333879D01*
X152127948Y-120325242D01*
X152477455Y-120320179D01*
X153073362Y-120310123D01*
X153626473Y-120299007D01*
X154125745Y-120287155D01*
X154560136Y-120274891D01*
X154918605Y-120262540D01*
X155190111Y-120250426D01*
X155363611Y-120238876D01*
X155428064Y-120228212D01*
X155432197Y-120222637D01*
X155441597Y-120212328D01*
X155446733Y-120203229D01*
X155440791Y-120195255D01*
X155416958Y-120188322D01*
X155368420Y-120182345D01*
X155288363Y-120177239D01*
X155169975Y-120172918D01*
X155006441Y-120169299D01*
X154790948Y-120166296D01*
X154516683Y-120163825D01*
X154176831Y-120161800D01*
X153764580Y-120160137D01*
X153273116Y-120158751D01*
X152695625Y-120157557D01*
X152025294Y-120156470D01*
X151255310Y-120155405D01*
X150378858Y-120154278D01*
X149389125Y-120153003D01*
X149284206Y-120152869D01*
X148232384Y-120152050D01*
X147296403Y-120152362D01*
X146472377Y-120153841D01*
X145756423Y-120156529D01*
X145144656Y-120160463D01*
X144633191Y-120165682D01*
X144218143Y-120172225D01*
X143895630Y-120180131D01*
X143661765Y-120189439D01*
X143512664Y-120200187D01*
X143444444Y-120212415D01*
X143440060Y-120214787D01*
X142063357Y-120214787D01*
X142063357Y-119802564D01*
X142348581Y-119837283D01*
X142394880Y-119840744D01*
X142561439Y-119847035D01*
X142827767Y-119853503D01*
X143183869Y-119860082D01*
X143619753Y-119866707D01*
X144125425Y-119873310D01*
X144690892Y-119879826D01*
X145306160Y-119886187D01*
X145961236Y-119892329D01*
X146646125Y-119898185D01*
X147350836Y-119903687D01*
X148065374Y-119908772D01*
X148232384Y-119909847D01*
X148779745Y-119913371D01*
X149483957Y-119917418D01*
X150168016Y-119920848D01*
X150821929Y-119923595D01*
X151435701Y-119925591D01*
X151999340Y-119926771D01*
X152502852Y-119927068D01*
X152936243Y-119926417D01*
X153289521Y-119924750D01*
X153552691Y-119922002D01*
X153715760Y-119918106D01*
X153768735Y-119912997D01*
X153735687Y-119904414D01*
X153597398Y-119886751D01*
X153367534Y-119864501D01*
X153063004Y-119839137D01*
X152700716Y-119812129D01*
X152297577Y-119784949D01*
X152103689Y-119772322D01*
X151660335Y-119742028D01*
X151233060Y-119711044D01*
X150847815Y-119681341D01*
X150530550Y-119654892D01*
X150307213Y-119633668D01*
X150122234Y-119614874D01*
X149703691Y-119582839D01*
X149400208Y-119577924D01*
X149210372Y-119600147D01*
X149132769Y-119649527D01*
X149114732Y-119654007D01*
X149072376Y-119577096D01*
X149020836Y-119424350D01*
X149015097Y-119404259D01*
X149163711Y-119404259D01*
X149176267Y-119454373D01*
X149202309Y-119424350D01*
X149749409Y-119424350D01*
X149779432Y-119454373D01*
X149809456Y-119424350D01*
X149779432Y-119394326D01*
X149749409Y-119424350D01*
X149202309Y-119424350D01*
X149216796Y-119407648D01*
X149236318Y-119314778D01*
X149218825Y-119250291D01*
X149190851Y-119256103D01*
X149165133Y-119338439D01*
X149163711Y-119404259D01*
X149015097Y-119404259D01*
X148935077Y-119124113D01*
X149208983Y-119124113D01*
X149218825Y-119133955D01*
X149239007Y-119154137D01*
X149269030Y-119124113D01*
X149239007Y-119094090D01*
X149208983Y-119124113D01*
X148935077Y-119124113D01*
X148546616Y-119084444D01*
X148452164Y-119075910D01*
X148203834Y-119057783D01*
X147883679Y-119037934D01*
X147522816Y-119018236D01*
X147152364Y-119000561D01*
X146897442Y-118987805D01*
X146598376Y-118968331D01*
X146360458Y-118947520D01*
X146203314Y-118927158D01*
X146146572Y-118909033D01*
X146162243Y-118835966D01*
X146191480Y-118748818D01*
X146707727Y-118748818D01*
X146727909Y-118768014D01*
X146837611Y-118786648D01*
X147013713Y-118793853D01*
X147152813Y-118791636D01*
X147293159Y-118782836D01*
X147347517Y-118769625D01*
X147331597Y-118757143D01*
X147302614Y-118751657D01*
X147445057Y-118751657D01*
X147452600Y-118773574D01*
X147479781Y-118781505D01*
X147602718Y-118773574D01*
X147612904Y-118752724D01*
X147527659Y-118743287D01*
X147445057Y-118751657D01*
X147302614Y-118751657D01*
X147232106Y-118738311D01*
X147077580Y-118726684D01*
X146910412Y-118723640D01*
X146772996Y-118730558D01*
X146707727Y-118748818D01*
X146191480Y-118748818D01*
X146206365Y-118704450D01*
X146209044Y-118697195D01*
X146220892Y-118628144D01*
X146359169Y-118628144D01*
X146393378Y-118707872D01*
X146431838Y-118727205D01*
X146475682Y-118706181D01*
X146449771Y-118588078D01*
X146437590Y-118555807D01*
X146404447Y-118509068D01*
X146369860Y-118571143D01*
X146359169Y-118628144D01*
X146220892Y-118628144D01*
X146230954Y-118569497D01*
X146209272Y-118400431D01*
X146139938Y-118156487D01*
X146115631Y-118079449D01*
X146058134Y-117870737D01*
X146041529Y-117761832D01*
X146062417Y-117757021D01*
X146117402Y-117860587D01*
X146203087Y-118076818D01*
X146272677Y-118255502D01*
X146330250Y-118380366D01*
X146361315Y-118418984D01*
X146360844Y-118404427D01*
X146334237Y-118297215D01*
X146314989Y-118231555D01*
X146688001Y-118231555D01*
X146702313Y-118288759D01*
X146738285Y-118303581D01*
X146847427Y-118298052D01*
X146887716Y-118288063D01*
X146910412Y-118273681D01*
X146924757Y-118264591D01*
X146849537Y-118225279D01*
X146753143Y-118205961D01*
X146688001Y-118231555D01*
X146314989Y-118231555D01*
X146300214Y-118181153D01*
X147270296Y-118181153D01*
X147271597Y-118247760D01*
X147355984Y-118352511D01*
X147360938Y-118357748D01*
X147466398Y-118453885D01*
X147527659Y-118487819D01*
X147538126Y-118493617D01*
X147577121Y-118473148D01*
X147564230Y-118403546D01*
X147947990Y-118403546D01*
X147955528Y-118455114D01*
X148013866Y-118488999D01*
X148116122Y-118421560D01*
X148177176Y-118337964D01*
X148174130Y-118274363D01*
X148093197Y-118277027D01*
X148043687Y-118294795D01*
X147973103Y-118313475D01*
X147961658Y-118323435D01*
X147947990Y-118403546D01*
X147564230Y-118403546D01*
X147562456Y-118393968D01*
X147486400Y-118235101D01*
X147446213Y-118165098D01*
X147382026Y-118107553D01*
X147310628Y-118139031D01*
X147270296Y-118181153D01*
X146300214Y-118181153D01*
X146276525Y-118100342D01*
X146270623Y-118081313D01*
X147828695Y-118081313D01*
X147838055Y-118173213D01*
X147840574Y-118186183D01*
X147865974Y-118235619D01*
X147923585Y-118212618D01*
X148038061Y-118109303D01*
X148174130Y-117977762D01*
X148218203Y-117935155D01*
X148038184Y-117979078D01*
X147977969Y-117993994D01*
X147865173Y-118031428D01*
X147828695Y-118081313D01*
X146270623Y-118081313D01*
X146217452Y-117909870D01*
X146451254Y-117909870D01*
X146520327Y-117978867D01*
X146656086Y-118027766D01*
X146753143Y-118035897D01*
X146756945Y-118036216D01*
X146807092Y-118014550D01*
X146807076Y-118013867D01*
X146757469Y-117961007D01*
X146648024Y-117900919D01*
X146597527Y-117882248D01*
X147047281Y-117882248D01*
X147050448Y-117903998D01*
X147111323Y-117985684D01*
X147181298Y-118010119D01*
X147200212Y-117972536D01*
X147138803Y-117894348D01*
X147089591Y-117863120D01*
X147287470Y-117863120D01*
X147317494Y-117893144D01*
X147347517Y-117863120D01*
X147339395Y-117854998D01*
X147478627Y-117854998D01*
X147505791Y-117964139D01*
X147584247Y-118013239D01*
X147618028Y-117992245D01*
X147664138Y-117897022D01*
X147668453Y-117842551D01*
X147626575Y-117761387D01*
X147552694Y-117739676D01*
X147490041Y-117801210D01*
X147478627Y-117854998D01*
X147339395Y-117854998D01*
X147317494Y-117833097D01*
X147287470Y-117863120D01*
X147089591Y-117863120D01*
X147081590Y-117858043D01*
X147047281Y-117882248D01*
X146597527Y-117882248D01*
X146532100Y-117858057D01*
X146463059Y-117856877D01*
X146451254Y-117909870D01*
X146217452Y-117909870D01*
X146192815Y-117830433D01*
X146187253Y-117813081D01*
X146827107Y-117813081D01*
X146835908Y-117820267D01*
X146907171Y-117813081D01*
X146916565Y-117795020D01*
X146867139Y-117773049D01*
X146835350Y-117777383D01*
X146827107Y-117813081D01*
X146187253Y-117813081D01*
X146088215Y-117504113D01*
X146050977Y-117390868D01*
X146266666Y-117390868D01*
X146269836Y-117403536D01*
X146331077Y-117484005D01*
X146404447Y-117553860D01*
X146439061Y-117586815D01*
X146463059Y-117605548D01*
X146552484Y-117675353D01*
X146630044Y-117713002D01*
X146638886Y-117712782D01*
X146684567Y-117683428D01*
X146661492Y-117659200D01*
X147767848Y-117659200D01*
X147795134Y-117680622D01*
X147897981Y-117689792D01*
X147987450Y-117668351D01*
X148055998Y-117599941D01*
X148032838Y-117517630D01*
X148005893Y-117509445D01*
X147912008Y-117536539D01*
X147813479Y-117596704D01*
X147767848Y-117659200D01*
X146661492Y-117659200D01*
X146626950Y-117622931D01*
X146594476Y-117584221D01*
X146574665Y-117501630D01*
X146819921Y-117501630D01*
X146827107Y-117572892D01*
X146845169Y-117582286D01*
X146867139Y-117532860D01*
X146862806Y-117501072D01*
X146827107Y-117492829D01*
X146819921Y-117501630D01*
X146574665Y-117501630D01*
X146566903Y-117469269D01*
X146557731Y-117443887D01*
X147541117Y-117443887D01*
X147552694Y-117515749D01*
X147553100Y-117518269D01*
X147601132Y-117518432D01*
X147692074Y-117454227D01*
X147737942Y-117406720D01*
X147759854Y-117361339D01*
X147694188Y-117352719D01*
X147607887Y-117375268D01*
X147541117Y-117443887D01*
X146557731Y-117443887D01*
X146535637Y-117382742D01*
X146686997Y-117382742D01*
X146717021Y-117412766D01*
X146747044Y-117382742D01*
X146717021Y-117352719D01*
X146686997Y-117382742D01*
X146535637Y-117382742D01*
X146535197Y-117381525D01*
X146416784Y-117352719D01*
X146318164Y-117362166D01*
X146266666Y-117390868D01*
X146050977Y-117390868D01*
X145970850Y-117147190D01*
X146166029Y-117147190D01*
X146176111Y-117219143D01*
X146255407Y-117278910D01*
X146291800Y-117277637D01*
X146326713Y-117207604D01*
X146314356Y-117160877D01*
X146231639Y-117112529D01*
X146166029Y-117147190D01*
X145970850Y-117147190D01*
X145967831Y-117138009D01*
X145827434Y-116717165D01*
X146059416Y-116717165D01*
X146063613Y-116779151D01*
X146084407Y-116825239D01*
X146122972Y-116872340D01*
X146145343Y-116855698D01*
X146145324Y-116855538D01*
X146207237Y-116855538D01*
X146231639Y-116895018D01*
X146244880Y-116916441D01*
X146356737Y-116967777D01*
X146423604Y-116996538D01*
X146495359Y-117068924D01*
X146508681Y-117140310D01*
X146446808Y-117172577D01*
X146432141Y-117174416D01*
X146386761Y-117233133D01*
X146413144Y-117256521D01*
X146416784Y-117255051D01*
X146506855Y-117218689D01*
X146582298Y-117163915D01*
X146626950Y-117109408D01*
X146596945Y-117045388D01*
X146502359Y-116942764D01*
X146441114Y-116894608D01*
X146815640Y-116894608D01*
X146827107Y-116899031D01*
X146855075Y-116909820D01*
X146891409Y-116904450D01*
X146950494Y-116966562D01*
X146978159Y-117009830D01*
X147046857Y-117022721D01*
X147081590Y-116993518D01*
X147088515Y-116987696D01*
X147095259Y-116925571D01*
X147065276Y-116793853D01*
X147063476Y-116789514D01*
X147419423Y-116789514D01*
X147488359Y-116882757D01*
X147564597Y-116953302D01*
X147577883Y-117057360D01*
X147493830Y-117135705D01*
X147446552Y-117176084D01*
X147445929Y-117252763D01*
X147516191Y-117292203D01*
X147571742Y-117248372D01*
X147626453Y-117141988D01*
X147656756Y-117027352D01*
X147642085Y-116958908D01*
X147613288Y-116923848D01*
X147587706Y-116812293D01*
X147587096Y-116793052D01*
X147552158Y-116687464D01*
X147487776Y-116658944D01*
X147427887Y-116725849D01*
X147419423Y-116789514D01*
X147063476Y-116789514D01*
X147049652Y-116756194D01*
X146969840Y-116705794D01*
X146876140Y-116734782D01*
X146817021Y-116835106D01*
X146815640Y-116894608D01*
X146441114Y-116894608D01*
X146386453Y-116851629D01*
X146294351Y-116812293D01*
X146256075Y-116815641D01*
X146207237Y-116855538D01*
X146145324Y-116855538D01*
X146136989Y-116786872D01*
X146087212Y-116722647D01*
X146059416Y-116717165D01*
X145827434Y-116717165D01*
X145792425Y-116612224D01*
X145606440Y-116059206D01*
X145453815Y-115611453D01*
X145423588Y-115524677D01*
X145742961Y-115524677D01*
X145773998Y-115501230D01*
X145824212Y-115454761D01*
X145865380Y-115514319D01*
X145875501Y-115565116D01*
X145843713Y-115642992D01*
X145802239Y-115679394D01*
X145801829Y-115757597D01*
X145907254Y-115821790D01*
X145973986Y-115856975D01*
X145993782Y-115915907D01*
X146004815Y-115952535D01*
X146097992Y-115973541D01*
X146174024Y-115976296D01*
X146198553Y-115997850D01*
X146119775Y-116063837D01*
X146113453Y-116068670D01*
X146042352Y-116150157D01*
X146073311Y-116222626D01*
X146111031Y-116280241D01*
X146076602Y-116373894D01*
X146076111Y-116374486D01*
X146043644Y-116430385D01*
X146059416Y-116427092D01*
X146108055Y-116416936D01*
X146180222Y-116412523D01*
X146206619Y-116498726D01*
X146247974Y-116608057D01*
X146294351Y-116654383D01*
X146356737Y-116716700D01*
X146419464Y-116754165D01*
X146492664Y-116769560D01*
X146491381Y-116697700D01*
X146417154Y-116533932D01*
X146355152Y-116377695D01*
X146327083Y-116226832D01*
X146330255Y-116177567D01*
X146377061Y-116108887D01*
X146506855Y-116091726D01*
X146516467Y-116091795D01*
X146651721Y-116121592D01*
X146678982Y-116202915D01*
X146596843Y-116332007D01*
X146554595Y-116384788D01*
X146554921Y-116445135D01*
X146652839Y-116509844D01*
X146662325Y-116514799D01*
X146717021Y-116529536D01*
X146825616Y-116558794D01*
X146942526Y-116515491D01*
X146969840Y-116441174D01*
X146987234Y-116393847D01*
X147013293Y-116305898D01*
X147122340Y-116273777D01*
X147137174Y-116274356D01*
X147290368Y-116316365D01*
X147317494Y-116335097D01*
X147382026Y-116379659D01*
X147415705Y-116402916D01*
X147467612Y-116503665D01*
X147470726Y-116525370D01*
X147487776Y-116539366D01*
X147527659Y-116572104D01*
X147549918Y-116566444D01*
X147580334Y-116497045D01*
X147569970Y-116444665D01*
X147519215Y-116314848D01*
X147451424Y-116200767D01*
X147393326Y-116151773D01*
X147372352Y-116141713D01*
X147347517Y-116061702D01*
X147340233Y-116020198D01*
X147283181Y-115971631D01*
X147264046Y-115949404D01*
X147313205Y-115877271D01*
X147367945Y-115807897D01*
X147402824Y-115712141D01*
X147396108Y-115674948D01*
X147369795Y-115710433D01*
X147364681Y-115719218D01*
X147287358Y-115746675D01*
X147170400Y-115734463D01*
X147067012Y-115694087D01*
X147030402Y-115637051D01*
X147076322Y-115595911D01*
X147195532Y-115562323D01*
X147248806Y-115551486D01*
X147333212Y-115505023D01*
X147340899Y-115454750D01*
X147257446Y-115431206D01*
X147216180Y-115425839D01*
X147167375Y-115383221D01*
X147164199Y-115373844D01*
X147092575Y-115321242D01*
X146960352Y-115261066D01*
X146812495Y-115211571D01*
X146693971Y-115191016D01*
X146650869Y-115219290D01*
X146638187Y-115326123D01*
X146638538Y-115328667D01*
X146636753Y-115415085D01*
X146578218Y-115448737D01*
X146431796Y-115448013D01*
X146390405Y-115446577D01*
X146259415Y-115458773D01*
X146206619Y-115493048D01*
X146169358Y-115531356D01*
X146056501Y-115551300D01*
X145957770Y-115536392D01*
X145906383Y-115491253D01*
X145928902Y-115456352D01*
X146026477Y-115431206D01*
X146028148Y-115431199D01*
X146125822Y-115392098D01*
X146137406Y-115300635D01*
X146058175Y-115192406D01*
X146048267Y-115184758D01*
X145940909Y-115166654D01*
X145839616Y-115254026D01*
X145760253Y-115434006D01*
X145759101Y-115438081D01*
X145742961Y-115524677D01*
X145423588Y-115524677D01*
X145332758Y-115263918D01*
X145270659Y-115092237D01*
X146871530Y-115092237D01*
X146882296Y-115154924D01*
X146957210Y-115212731D01*
X147002868Y-115223562D01*
X147047281Y-115199140D01*
X147012885Y-115118738D01*
X146917178Y-115070922D01*
X146871530Y-115092237D01*
X145270659Y-115092237D01*
X145241475Y-115011553D01*
X145216399Y-114947283D01*
X145726241Y-114947283D01*
X145728548Y-114964713D01*
X145786288Y-115010875D01*
X145799877Y-115010186D01*
X145825719Y-114995840D01*
X146894525Y-114995840D01*
X146917178Y-115001839D01*
X146951299Y-115010875D01*
X147030558Y-114990213D01*
X147086177Y-114930164D01*
X147063272Y-114871208D01*
X147024870Y-114869851D01*
X146939831Y-114927106D01*
X146934483Y-114932936D01*
X146894525Y-114995840D01*
X145825719Y-114995840D01*
X145846335Y-114984395D01*
X145843572Y-114974763D01*
X145786288Y-114920804D01*
X145763028Y-114911421D01*
X145726241Y-114947283D01*
X145216399Y-114947283D01*
X145178173Y-114849310D01*
X145141058Y-114772142D01*
X145128337Y-114775000D01*
X145137775Y-114853144D01*
X145179415Y-115025561D01*
X145241767Y-115232563D01*
X145311100Y-115429552D01*
X145373684Y-115571929D01*
X145384850Y-115595789D01*
X145427689Y-115745516D01*
X145456169Y-115932213D01*
X145478300Y-116181797D01*
X145399485Y-115941607D01*
X145369801Y-115853198D01*
X145289367Y-115622040D01*
X145183680Y-115324932D01*
X145060932Y-114984258D01*
X144974016Y-114745299D01*
X146286123Y-114745299D01*
X146296206Y-114817251D01*
X146375502Y-114877019D01*
X146411894Y-114875746D01*
X146446808Y-114805713D01*
X146434451Y-114758985D01*
X146351733Y-114710638D01*
X146286123Y-114745299D01*
X144974016Y-114745299D01*
X144929316Y-114622405D01*
X144797025Y-114261758D01*
X144796479Y-114260284D01*
X146146572Y-114260284D01*
X146176595Y-114290307D01*
X146206619Y-114260284D01*
X146176595Y-114230260D01*
X146146572Y-114260284D01*
X144796479Y-114260284D01*
X144774250Y-114200236D01*
X146807092Y-114200236D01*
X146837115Y-114230260D01*
X146867139Y-114200236D01*
X146837115Y-114170213D01*
X146807092Y-114200236D01*
X144774250Y-114200236D01*
X144672252Y-113924703D01*
X144563190Y-113633626D01*
X144527282Y-113539716D01*
X146807092Y-113539716D01*
X146837115Y-113569740D01*
X146867139Y-113539716D01*
X146837115Y-113509693D01*
X146807092Y-113539716D01*
X144527282Y-113539716D01*
X144478032Y-113410912D01*
X144424972Y-113278947D01*
X144383648Y-113190242D01*
X144304146Y-113062535D01*
X144246822Y-113031177D01*
X144221252Y-113104373D01*
X144201384Y-113113996D01*
X144158122Y-113030760D01*
X144105295Y-112944240D01*
X144056845Y-112940689D01*
X144041773Y-112957632D01*
X143939834Y-113005295D01*
X143820123Y-113015416D01*
X143714087Y-113029759D01*
X143692373Y-113048958D01*
X143733196Y-113080993D01*
X143722599Y-113099577D01*
X143618316Y-113124230D01*
X143434467Y-113149073D01*
X143193311Y-113172046D01*
X142917106Y-113191089D01*
X142628110Y-113204142D01*
X142348581Y-113209145D01*
X142063357Y-113209456D01*
X142063357Y-112936809D01*
X142063357Y-112664162D01*
X143129196Y-112670590D01*
X143194771Y-112670981D01*
X143558706Y-112672498D01*
X143821246Y-112670904D01*
X143998611Y-112664378D01*
X144107016Y-112651097D01*
X144162681Y-112629242D01*
X144181823Y-112596991D01*
X144180659Y-112552522D01*
X144159518Y-112435564D01*
X144083058Y-112226546D01*
X143976311Y-112069510D01*
X143858947Y-111998342D01*
X143749974Y-111944867D01*
X143643522Y-111783333D01*
X143564194Y-111588180D01*
X145763028Y-111588180D01*
G37*
G36*
X158843982Y-126981004D02*
G01*
X158888501Y-127006017D01*
X158936643Y-127080606D01*
X158912249Y-127113017D01*
X158811405Y-127077626D01*
X158725771Y-127007338D01*
X158739739Y-126964708D01*
X158843982Y-126981004D01*
G37*
G36*
X155033569Y-140440898D02*
G01*
X155003546Y-140470922D01*
X154973522Y-140440898D01*
X155003546Y-140410875D01*
X155033569Y-140440898D01*
G37*
G36*
X154553191Y-127951064D02*
G01*
X154523167Y-127981087D01*
X154493144Y-127951064D01*
X154523167Y-127921040D01*
X154553191Y-127951064D01*
G37*
G36*
X154072813Y-139900473D02*
G01*
X154042789Y-139930496D01*
X154012765Y-139900473D01*
X154042789Y-139870449D01*
X154072813Y-139900473D01*
G37*
G36*
X153772576Y-125579196D02*
G01*
X153768243Y-125610985D01*
X153732545Y-125619228D01*
X153725358Y-125610427D01*
X153732545Y-125539165D01*
X153750606Y-125529770D01*
X153772576Y-125579196D01*
G37*
G36*
X153772576Y-127050354D02*
G01*
X153742553Y-127080378D01*
X153712529Y-127050354D01*
X153742553Y-127020331D01*
X153772576Y-127050354D01*
G37*
G36*
X153404926Y-125542704D02*
G01*
X153407398Y-125542799D01*
X153522735Y-125558864D01*
X153556853Y-125587916D01*
X153556965Y-125611719D01*
X153622803Y-125661090D01*
X153665434Y-125680936D01*
X153712529Y-125724366D01*
X153681847Y-125723270D01*
X153577736Y-125691908D01*
X153441262Y-125642037D01*
X153316043Y-125589816D01*
X153245699Y-125551406D01*
X153245574Y-125551286D01*
X153286091Y-125542570D01*
X153404926Y-125542704D01*
G37*
G36*
X153583157Y-127164715D02*
G01*
X153595380Y-127172693D01*
X153650682Y-127232023D01*
X153626002Y-127260520D01*
X153612496Y-127255152D01*
X153556677Y-127191195D01*
X153542067Y-127157638D01*
X153583157Y-127164715D01*
G37*
G36*
X153412293Y-127110402D02*
G01*
X153382269Y-127140425D01*
X153352245Y-127110402D01*
X153382269Y-127080378D01*
X153412293Y-127110402D01*
G37*
G36*
X153172104Y-127020331D02*
G01*
X153167770Y-127052120D01*
X153132072Y-127060362D01*
X153124886Y-127051561D01*
X153132072Y-126980299D01*
X153150133Y-126970905D01*
X153172104Y-127020331D01*
G37*
G36*
X153112056Y-125489125D02*
G01*
X153082033Y-125519149D01*
X153052009Y-125489125D01*
X153082033Y-125459101D01*
X153112056Y-125489125D01*
G37*
G36*
X152571631Y-125369031D02*
G01*
X152541607Y-125399054D01*
X152511583Y-125369031D01*
X152541607Y-125339007D01*
X152571631Y-125369031D01*
G37*
G36*
X152571631Y-128851773D02*
G01*
X152541607Y-128881797D01*
X152511583Y-128851773D01*
X152541607Y-128821749D01*
X152571631Y-128851773D01*
G37*
G36*
X152451536Y-125489125D02*
G01*
X152421513Y-125519149D01*
X152391489Y-125489125D01*
X152421513Y-125459101D01*
X152451536Y-125489125D01*
G37*
G36*
X152451536Y-128131206D02*
G01*
X152421513Y-128161229D01*
X152391489Y-128131206D01*
X152421513Y-128101182D01*
X152451536Y-128131206D01*
G37*
G36*
X152331442Y-125549172D02*
G01*
X152301418Y-125579196D01*
X152271394Y-125549172D01*
X152301418Y-125519149D01*
X152331442Y-125549172D01*
G37*
G36*
X152151300Y-131313711D02*
G01*
X152121276Y-131343735D01*
X152091252Y-131313711D01*
X152121276Y-131283688D01*
X152151300Y-131313711D01*
G37*
G36*
X151970238Y-131355203D02*
G01*
X151963358Y-131408159D01*
X151911111Y-131493853D01*
X151866883Y-131506263D01*
X151858067Y-131453753D01*
X151911111Y-131343735D01*
X151919009Y-131331652D01*
X151960521Y-131288003D01*
X151970238Y-131355203D01*
G37*
G36*
X151791016Y-122186525D02*
G01*
X151760992Y-122216548D01*
X151730969Y-122186525D01*
X151760992Y-122156501D01*
X151791016Y-122186525D01*
G37*
G36*
X151730969Y-131794090D02*
G01*
X151700945Y-131824113D01*
X151670922Y-131794090D01*
X151700945Y-131764066D01*
X151730969Y-131794090D01*
G37*
G36*
X151351440Y-129640931D02*
G01*
X151282524Y-129756017D01*
X151229931Y-129849953D01*
X151192453Y-129999861D01*
X151170084Y-130146066D01*
X151111040Y-130368358D01*
X151027861Y-130624780D01*
X150933058Y-130876861D01*
X150839144Y-131086130D01*
X150772051Y-131193357D01*
X150615982Y-131382549D01*
X150436601Y-131553433D01*
X150299209Y-131659318D01*
X150218146Y-131702869D01*
X150218914Y-131664288D01*
X150269383Y-131584960D01*
X150366735Y-131474760D01*
X150374545Y-131467174D01*
X150440274Y-131364352D01*
X150526599Y-131187255D01*
X150616979Y-130969297D01*
X150726652Y-130684721D01*
X150811234Y-130473049D01*
X150890307Y-130473049D01*
X150920330Y-130503073D01*
X150950354Y-130473049D01*
X150920330Y-130443026D01*
X150890307Y-130473049D01*
X150811234Y-130473049D01*
X150833899Y-130416329D01*
X150887640Y-130292908D01*
X150950354Y-130292908D01*
X150980378Y-130322931D01*
X151010401Y-130292908D01*
X150980378Y-130262884D01*
X150950354Y-130292908D01*
X150887640Y-130292908D01*
X150920330Y-130217834D01*
X150920692Y-130217003D01*
X150973163Y-130112766D01*
X151070449Y-130112766D01*
X151100472Y-130142789D01*
X151130496Y-130112766D01*
X151100472Y-130082742D01*
X151070449Y-130112766D01*
X150973163Y-130112766D01*
X150980378Y-130098433D01*
X150998439Y-130062554D01*
X151078546Y-129928795D01*
X151100472Y-129896737D01*
X151172422Y-129791538D01*
X151260815Y-129673903D01*
X151340123Y-129585344D01*
X151370685Y-129576067D01*
X151351440Y-129640931D01*
G37*
G36*
X150828355Y-127189236D02*
G01*
X150824785Y-127221694D01*
X150807364Y-127354050D01*
X150778886Y-127560428D01*
X150743158Y-127812959D01*
X150722787Y-127963597D01*
X150694846Y-128208860D01*
X150679754Y-128399496D01*
X150680420Y-128503503D01*
X150689879Y-128561441D01*
X150705571Y-128716666D01*
X150739590Y-128790405D01*
X150875295Y-128833972D01*
X150899633Y-128837393D01*
X150865527Y-128846423D01*
X150736726Y-128857123D01*
X150530023Y-128867843D01*
X150486822Y-128869507D01*
X150200527Y-128873674D01*
X149925779Y-128867786D01*
X149716716Y-128852842D01*
X149413811Y-128816192D01*
X149438274Y-128432003D01*
X149435381Y-128105848D01*
X149370635Y-127777509D01*
X149278533Y-127507204D01*
X149559006Y-127420056D01*
X149559432Y-127419923D01*
X149856441Y-127334575D01*
X150148738Y-127262623D01*
X150414200Y-127208091D01*
X150630705Y-127175000D01*
X150776131Y-127167374D01*
X150828355Y-127189236D01*
G37*
G36*
X150590070Y-130773286D02*
G01*
X150560047Y-130803310D01*
X150530023Y-130773286D01*
X150560047Y-130743262D01*
X150590070Y-130773286D01*
G37*
G36*
X150109692Y-130292908D02*
G01*
X150079669Y-130322931D01*
X150049645Y-130292908D01*
X150079669Y-130262884D01*
X150109692Y-130292908D01*
G37*
G36*
X150109692Y-131343735D02*
G01*
X150105359Y-131375524D01*
X150069661Y-131383767D01*
X150062474Y-131374966D01*
X150069661Y-131303704D01*
X150087722Y-131294309D01*
X150109692Y-131343735D01*
G37*
G36*
X149989598Y-131613948D02*
G01*
X149959574Y-131643971D01*
X149929550Y-131613948D01*
X149959574Y-131583924D01*
X149989598Y-131613948D01*
G37*
G36*
X149929550Y-131734042D02*
G01*
X149899527Y-131764066D01*
X149869503Y-131734042D01*
X149899527Y-131704019D01*
X149929550Y-131734042D01*
G37*
G36*
X149622293Y-130896359D02*
G01*
X149518923Y-131118259D01*
X149404530Y-131328348D01*
X149312909Y-131455240D01*
X149253337Y-131484155D01*
X149225002Y-131472940D01*
X149235242Y-131517786D01*
X149243261Y-131539702D01*
X149201689Y-131642738D01*
X149055772Y-131781086D01*
X148811528Y-131948626D01*
X148751665Y-131982124D01*
X148581298Y-132059346D01*
X148383521Y-132133620D01*
X148192691Y-132193641D01*
X148043164Y-132228108D01*
X147969295Y-132225717D01*
X147997495Y-132195110D01*
X148106281Y-132157688D01*
X148178130Y-132136318D01*
X148464468Y-132000670D01*
X148763635Y-131792434D01*
X149038659Y-131536250D01*
X149169235Y-131402461D01*
X149283384Y-131301658D01*
X149344089Y-131268699D01*
X149379719Y-131261401D01*
X149383727Y-131204945D01*
X149338300Y-131153585D01*
X149331548Y-131145639D01*
X149365713Y-131083353D01*
X149467409Y-130986430D01*
X149509137Y-130953342D01*
X149598615Y-130892979D01*
X149622293Y-130896359D01*
G37*
G36*
X149569267Y-132267380D02*
G01*
X149566565Y-132277938D01*
X149509219Y-132334515D01*
X149487960Y-132345700D01*
X149449172Y-132341603D01*
X149451874Y-132331045D01*
X149509219Y-132274468D01*
X149530479Y-132263283D01*
X149569267Y-132267380D01*
G37*
G36*
X149449172Y-124648463D02*
G01*
X149419148Y-124678487D01*
X149389125Y-124648463D01*
X149419148Y-124618440D01*
X149449172Y-124648463D01*
G37*
G36*
X149336737Y-132505010D02*
G01*
X149314999Y-132532085D01*
X149287736Y-132591574D01*
X149351749Y-132604728D01*
X149399743Y-132608562D01*
X149449172Y-132634079D01*
X149411737Y-132650321D01*
X149299054Y-132651006D01*
X149283436Y-132649618D01*
X149170512Y-132624269D01*
X149171016Y-132574130D01*
X149284042Y-132489431D01*
X149355216Y-132446450D01*
X149385809Y-132439694D01*
X149336737Y-132505010D01*
G37*
G36*
X148699676Y-129272182D02*
G01*
X148773098Y-129302682D01*
X148830362Y-129404747D01*
X148885317Y-129602364D01*
X148944624Y-129814868D01*
X149037665Y-130089853D01*
X149140522Y-130352955D01*
X149154886Y-130386854D01*
X149239172Y-130593782D01*
X149299752Y-130756043D01*
X149324333Y-130840993D01*
X149314297Y-130880944D01*
X149255860Y-130964316D01*
X149180742Y-131030196D01*
X149130101Y-131037044D01*
X149076535Y-130937579D01*
X148993317Y-130749039D01*
X148903269Y-130521571D01*
X148822404Y-130295903D01*
X148766735Y-130112766D01*
X148690339Y-129812529D01*
X148523461Y-130518085D01*
X148508131Y-130582629D01*
X148438381Y-130863633D01*
X148383802Y-131049397D01*
X148336660Y-131158759D01*
X148289216Y-131210560D01*
X148233735Y-131223640D01*
X148215163Y-131223349D01*
X148159024Y-131209146D01*
X148133162Y-131154398D01*
X148132205Y-131032869D01*
X148150786Y-130818321D01*
X148158476Y-130745791D01*
X148214676Y-130374067D01*
X148292983Y-130027645D01*
X148386766Y-129725380D01*
X148489391Y-129486131D01*
X148594228Y-129328753D01*
X148694642Y-129272104D01*
X148699676Y-129272182D01*
G37*
G36*
X149236533Y-112140389D02*
G01*
X149256003Y-112198611D01*
X149211045Y-112251819D01*
X149092509Y-112298788D01*
X149001291Y-112296963D01*
X148981821Y-112238741D01*
X149026779Y-112185533D01*
X149145315Y-112138564D01*
X149236533Y-112140389D01*
G37*
G36*
X148968794Y-124948700D02*
G01*
X148938770Y-124978723D01*
X148908747Y-124948700D01*
X148938770Y-124918676D01*
X148968794Y-124948700D01*
G37*
G36*
X146533520Y-119063651D02*
G01*
X146757822Y-119074803D01*
X147039076Y-119090865D01*
X147355173Y-119110382D01*
X147684006Y-119131900D01*
X148003469Y-119153966D01*
X148291455Y-119175127D01*
X148525855Y-119193927D01*
X148684564Y-119208915D01*
X148745473Y-119218635D01*
X148745981Y-119219390D01*
X148777145Y-119291456D01*
X148825611Y-119424350D01*
X148828245Y-119432036D01*
X148866015Y-119560145D01*
X148873595Y-119624154D01*
X148842340Y-119626967D01*
X148709476Y-119624472D01*
X148491047Y-119615074D01*
X148207252Y-119599685D01*
X147878289Y-119579218D01*
X147672301Y-119565956D01*
X147336174Y-119545592D01*
X147041730Y-119529293D01*
X146815012Y-119518466D01*
X146682060Y-119514521D01*
X146673423Y-119514503D01*
X146532321Y-119500814D01*
X146455403Y-119438221D01*
X146398786Y-119292297D01*
X146385584Y-119248255D01*
X146351054Y-119117856D01*
X146343676Y-119060700D01*
X146388276Y-119058861D01*
X146533520Y-119063651D01*
G37*
G36*
X148848699Y-132814893D02*
G01*
X148818676Y-132844917D01*
X148788652Y-132814893D01*
X148818676Y-132784870D01*
X148848699Y-132814893D01*
G37*
G36*
X148588319Y-133095956D02*
G01*
X148594579Y-133205201D01*
X148593998Y-133245942D01*
X148584523Y-133328972D01*
X148567118Y-133310284D01*
X148557780Y-133252412D01*
X148567118Y-133100118D01*
X148572732Y-133083081D01*
X148588319Y-133095956D01*
G37*
G36*
X148548463Y-133505437D02*
G01*
X148544129Y-133537226D01*
X148508431Y-133545469D01*
X148501245Y-133536668D01*
X148508431Y-133465406D01*
X148526493Y-133456011D01*
X148548463Y-133505437D01*
G37*
G36*
X148488416Y-133648468D02*
G01*
X148485714Y-133659025D01*
X148428368Y-133715603D01*
X148407108Y-133726787D01*
X148368321Y-133722690D01*
X148371023Y-133712133D01*
X148428368Y-133655555D01*
X148449628Y-133644371D01*
X148488416Y-133648468D01*
G37*
G36*
X148378267Y-126672481D02*
G01*
X148375114Y-126789430D01*
X148363093Y-127086864D01*
X148347432Y-127332879D01*
X148329807Y-127504584D01*
X148311893Y-127579092D01*
X148229238Y-127611399D01*
X148087849Y-127563671D01*
X147913406Y-127432345D01*
X147875328Y-127392635D01*
X148094242Y-127392635D01*
X148116530Y-127426787D01*
X148142636Y-127441049D01*
X148154986Y-127505838D01*
X148147212Y-127524718D01*
X148184635Y-127560756D01*
X148221235Y-127539069D01*
X148248226Y-127442546D01*
X148228163Y-127362331D01*
X148146180Y-127363495D01*
X148094242Y-127392635D01*
X147875328Y-127392635D01*
X147718953Y-127229560D01*
X147517533Y-126967453D01*
X147322190Y-126658160D01*
X147274130Y-126569444D01*
X147184126Y-126334683D01*
X147188675Y-126166489D01*
X147287470Y-126059574D01*
X147289005Y-126058755D01*
X147382018Y-126025807D01*
X147407612Y-126072473D01*
X147417945Y-126129689D01*
X147477882Y-126289467D01*
X147576146Y-126496942D01*
X147695306Y-126718595D01*
X147817928Y-126920904D01*
X147926578Y-127070349D01*
X148098108Y-127270486D01*
X148098108Y-126559947D01*
X148098108Y-125849409D01*
X148228163Y-125834170D01*
X148248226Y-125831819D01*
X148398345Y-125814228D01*
X148378267Y-126672481D01*
G37*
G36*
X148123941Y-125201804D02*
G01*
X148015562Y-125239299D01*
X147797872Y-125304920D01*
X147734666Y-125323584D01*
X147500974Y-125393247D01*
X147309752Y-125451220D01*
X147197399Y-125486495D01*
X147171439Y-125493035D01*
X147185429Y-125471261D01*
X147286796Y-125408794D01*
X147353060Y-125371274D01*
X147441181Y-125313457D01*
X147436263Y-125284368D01*
X147346844Y-125263322D01*
X147311530Y-125254874D01*
X147322861Y-125243039D01*
X147437588Y-125240878D01*
X147507413Y-125240882D01*
X147741839Y-125229142D01*
X147978014Y-125204775D01*
X148038807Y-125196715D01*
X148129519Y-125188816D01*
X148123941Y-125201804D01*
G37*
G36*
X148248226Y-131553901D02*
G01*
X148218203Y-131583924D01*
X148188179Y-131553901D01*
X148218203Y-131523877D01*
X148248226Y-131553901D01*
G37*
G36*
X148188179Y-129152009D02*
G01*
X148158156Y-129182033D01*
X148128132Y-129152009D01*
X148158156Y-129121986D01*
X148188179Y-129152009D01*
G37*
G36*
X148008037Y-133415366D02*
G01*
X147978014Y-133445390D01*
X147947990Y-133415366D01*
X147978014Y-133385343D01*
X148008037Y-133415366D01*
G37*
G36*
X147947990Y-133235224D02*
G01*
X147917966Y-133265248D01*
X147887943Y-133235224D01*
X147917966Y-133205201D01*
X147947990Y-133235224D01*
G37*
G36*
X147287470Y-130683215D02*
G01*
X147283136Y-130715004D01*
X147247438Y-130723246D01*
X147240252Y-130714446D01*
X147247438Y-130643183D01*
X147265500Y-130633789D01*
X147287470Y-130683215D01*
G37*
G36*
X147167375Y-130382979D02*
G01*
X147195686Y-130434416D01*
X147225584Y-130533097D01*
X147214955Y-130551136D01*
X147167375Y-130503073D01*
X147139065Y-130451635D01*
X147109167Y-130352955D01*
X147119796Y-130334915D01*
X147167375Y-130382979D01*
G37*
G36*
X147133204Y-125287946D02*
G01*
X147151113Y-125315238D01*
X147129869Y-125327137D01*
X147036022Y-125319979D01*
X147008228Y-125298365D01*
X147072301Y-125283700D01*
X147133204Y-125287946D01*
G37*
G36*
X146958975Y-131528210D02*
G01*
X146967218Y-131563908D01*
X146958417Y-131571095D01*
X146887155Y-131563908D01*
X146877761Y-131545847D01*
X146927186Y-131523877D01*
X146958975Y-131528210D01*
G37*
G36*
X146867139Y-127650827D02*
G01*
X146837115Y-127680851D01*
X146807092Y-127650827D01*
X146837115Y-127620804D01*
X146867139Y-127650827D01*
G37*
G36*
X146867139Y-130533097D02*
G01*
X146837115Y-130563120D01*
X146807092Y-130533097D01*
X146837115Y-130503073D01*
X146867139Y-130533097D01*
G37*
G36*
X146805863Y-127757541D02*
G01*
X146797509Y-127826367D01*
X146747732Y-127890591D01*
X146719936Y-127896073D01*
X146724133Y-127834088D01*
X146744928Y-127788000D01*
X146783492Y-127740898D01*
X146805863Y-127757541D01*
G37*
G36*
X146714699Y-129879995D02*
G01*
X146762754Y-129904587D01*
X146784162Y-129945546D01*
X146745966Y-129949712D01*
X146646465Y-129909930D01*
X146577932Y-129859942D01*
X146600680Y-129845974D01*
X146714699Y-129879995D01*
G37*
G36*
X146566903Y-126990307D02*
G01*
X146536879Y-127020331D01*
X146506855Y-126990307D01*
X146536879Y-126960284D01*
X146566903Y-126990307D01*
G37*
G36*
X146544733Y-127233303D02*
G01*
X146566903Y-127317023D01*
X146561291Y-127399352D01*
X146532838Y-127434298D01*
X146485879Y-127352514D01*
X146476765Y-127306991D01*
X146509478Y-127228875D01*
X146544733Y-127233303D01*
G37*
G36*
X146506855Y-127650827D02*
G01*
X146476832Y-127680851D01*
X146446808Y-127650827D01*
X146476832Y-127620804D01*
X146506855Y-127650827D01*
G37*
G36*
X146386761Y-128551536D02*
G01*
X146356737Y-128581560D01*
X146326713Y-128551536D01*
X146356737Y-128521513D01*
X146386761Y-128551536D01*
G37*
G36*
X146386761Y-129992671D02*
G01*
X146356737Y-130022695D01*
X146326713Y-129992671D01*
X146356737Y-129962648D01*
X146386761Y-129992671D01*
G37*
G36*
X146266666Y-127110402D02*
G01*
X146236643Y-127140425D01*
X146206619Y-127110402D01*
X146236643Y-127080378D01*
X146266666Y-127110402D01*
G37*
G36*
X145825973Y-117061450D02*
G01*
X145876359Y-117172577D01*
X145885855Y-117197857D01*
X145936605Y-117359107D01*
X145957293Y-117472813D01*
X145955050Y-117488023D01*
X145926745Y-117463846D01*
X145876359Y-117352719D01*
X145866863Y-117327438D01*
X145816113Y-117166188D01*
X145795424Y-117052482D01*
X145797668Y-117037272D01*
X145825973Y-117061450D01*
G37*
G36*
X145786288Y-116902364D02*
G01*
X145756264Y-116932388D01*
X145726241Y-116902364D01*
X145756264Y-116872340D01*
X145786288Y-116902364D01*
G37*
G36*
X145597969Y-116343383D02*
G01*
X145618596Y-116459952D01*
X145666193Y-116542080D01*
X145701274Y-116589735D01*
X145723890Y-116710754D01*
X145717256Y-116769142D01*
X145689411Y-116754682D01*
X145631324Y-116634334D01*
X145621578Y-116610794D01*
X145572455Y-116439519D01*
X145565450Y-116304074D01*
X145573129Y-116269209D01*
X145588480Y-116248514D01*
X145597969Y-116343383D01*
G37*
G36*
X145546099Y-126690071D02*
G01*
X145516075Y-126720094D01*
X145486052Y-126690071D01*
X145516075Y-126660047D01*
X145546099Y-126690071D01*
G37*
G36*
X145486052Y-126810165D02*
G01*
X145456028Y-126840189D01*
X145426004Y-126810165D01*
X145456028Y-126780142D01*
X145486052Y-126810165D01*
G37*
G36*
X143855972Y-129869864D02*
G01*
X143842644Y-129940810D01*
X143865823Y-130071529D01*
X143900617Y-130185746D01*
X143919661Y-130245937D01*
X143890604Y-130242424D01*
X143789716Y-130209035D01*
X143699048Y-130144155D01*
X143652162Y-130028824D01*
X143673436Y-129931417D01*
X143697462Y-129931417D01*
X143704649Y-130002679D01*
X143722710Y-130012073D01*
X143744680Y-129962648D01*
X143740347Y-129930859D01*
X143704649Y-129922616D01*
X143697462Y-129931417D01*
X143673436Y-129931417D01*
X143676745Y-129916265D01*
X143704649Y-129897923D01*
X143774704Y-129851875D01*
X143840281Y-129846717D01*
X143855972Y-129869864D01*
G37*
G36*
X142541841Y-129543848D02*
G01*
X142730058Y-129561690D01*
X142833478Y-129594917D01*
X142840341Y-129637682D01*
X142738888Y-129684138D01*
X142717598Y-129690471D01*
X142677888Y-129709286D01*
X142753900Y-129711649D01*
X142779122Y-129711099D01*
X142904018Y-129717508D01*
X142930952Y-129718890D01*
X143007129Y-129763099D01*
X143046621Y-129864010D01*
X143057321Y-129899892D01*
X143123978Y-129981935D01*
X143263159Y-129999116D01*
X143265736Y-129999019D01*
X143391887Y-129980035D01*
X143444307Y-129944092D01*
X143447997Y-129929360D01*
X143501869Y-129931003D01*
X143543308Y-129975113D01*
X143532489Y-130052462D01*
X143452321Y-130111100D01*
X143331223Y-130119616D01*
X143331044Y-130119579D01*
X143242475Y-130106566D01*
X143249664Y-130120277D01*
X143264597Y-130127681D01*
X143299750Y-130184871D01*
X143245520Y-130238675D01*
X143125652Y-130261965D01*
X143090455Y-130261192D01*
X143034348Y-130245352D01*
X143084160Y-130196253D01*
X143103356Y-130182168D01*
X143130819Y-130151491D01*
X143054137Y-130172032D01*
X143051856Y-130172783D01*
X142930236Y-130197701D01*
X142731928Y-130224108D01*
X142498699Y-130246411D01*
X142063357Y-130280218D01*
X142063357Y-129911267D01*
X142063357Y-129822537D01*
X142863987Y-129822537D01*
X142872788Y-129829724D01*
X142944050Y-129822537D01*
X142953444Y-129804476D01*
X142904018Y-129782506D01*
X142872230Y-129786839D01*
X142863987Y-129822537D01*
X142063357Y-129822537D01*
X142063357Y-129542317D01*
X142453664Y-129542317D01*
X142541841Y-129543848D01*
G37*
G36*
X142666518Y-119713661D02*
G01*
X142851477Y-119738936D01*
X142971941Y-119768260D01*
X142989360Y-119786164D01*
X142904018Y-119800115D01*
X142809418Y-119802213D01*
X142615131Y-119789752D01*
X142393617Y-119763064D01*
X142033334Y-119709207D01*
X142341075Y-119701885D01*
X142436154Y-119701628D01*
X142666518Y-119713661D01*
G37*
G36*
X156114420Y-120415130D02*
G01*
X156110087Y-120446919D01*
X156074389Y-120455161D01*
X156067202Y-120446360D01*
X156074389Y-120375098D01*
X156092450Y-120365704D01*
X156114420Y-120415130D01*
G37*
G36*
X155059445Y-120183927D02*
G01*
X155077354Y-120211219D01*
X155056110Y-120223118D01*
X154962263Y-120215960D01*
X154934469Y-120194346D01*
X154998542Y-120179681D01*
X155059445Y-120183927D01*
G37*
G36*
X154313002Y-122606856D02*
G01*
X154282978Y-122636879D01*
X154252955Y-122606856D01*
X154282978Y-122576832D01*
X154313002Y-122606856D01*
G37*
G36*
X154224696Y-128645941D02*
G01*
X154232939Y-128681639D01*
X154224138Y-128688825D01*
X154152876Y-128681639D01*
X154143482Y-128663578D01*
X154192907Y-128641607D01*
X154224696Y-128645941D01*
G37*
G36*
X153952718Y-129062085D02*
G01*
X153957409Y-129070123D01*
X153902429Y-129103458D01*
X153863607Y-129111065D01*
X153759474Y-129072855D01*
X153745621Y-129038787D01*
X153811659Y-129029832D01*
X153952718Y-129062085D01*
G37*
G36*
X152509744Y-131193617D02*
G01*
X152502347Y-131234268D01*
X152451536Y-131343735D01*
X152418106Y-131384500D01*
X152393328Y-131373759D01*
X152400725Y-131333108D01*
X152451536Y-131223640D01*
X152484966Y-131182876D01*
X152509744Y-131193617D01*
G37*
G36*
X152631678Y-130052719D02*
G01*
X152601654Y-130082742D01*
X152571631Y-130052719D01*
X152601654Y-130022695D01*
X152631678Y-130052719D01*
G37*
G36*
X152511583Y-130052719D02*
G01*
X152481560Y-130082742D01*
X152451536Y-130052719D01*
X152481560Y-130022695D01*
X152511583Y-130052719D01*
G37*
G36*
X146927186Y-115461229D02*
G01*
X146897163Y-115491253D01*
X146867139Y-115461229D01*
X146897163Y-115431206D01*
X146927186Y-115461229D01*
G37*
G36*
X146927186Y-115881560D02*
G01*
X146897163Y-115911584D01*
X146867139Y-115881560D01*
X146897163Y-115851536D01*
X146927186Y-115881560D01*
G37*
G36*
X146361854Y-115717070D02*
G01*
X146474744Y-115800900D01*
X146498675Y-115822660D01*
X146572095Y-115913679D01*
X146565889Y-115961961D01*
X146550813Y-115963638D01*
X146465353Y-115925689D01*
X146367324Y-115843745D01*
X146294608Y-115754090D01*
X146285086Y-115693006D01*
X146290440Y-115690204D01*
X146361854Y-115717070D01*
G37*
D12*
%TO.C,J18*%
X177805000Y-47924800D02*
G75*
G02*
X177043000Y-47924800I-381000J0D01*
G01*
X177043000Y-47924800D02*
G75*
G02*
X177805000Y-47924800I381000J0D01*
G01*
%TO.C,J1*%
X146181000Y-35984000D02*
G75*
G02*
X145419000Y-35984000I-381000J0D01*
G01*
X145419000Y-35984000D02*
G75*
G02*
X146181000Y-35984000I381000J0D01*
G01*
%TO.C,J21*%
X177867000Y-70025200D02*
G75*
G02*
X177105000Y-70025200I-381000J0D01*
G01*
X177105000Y-70025200D02*
G75*
G02*
X177867000Y-70025200I381000J0D01*
G01*
%TO.C,J6*%
X164781000Y-35904000D02*
G75*
G02*
X164019000Y-35904000I-381000J0D01*
G01*
X164019000Y-35904000D02*
G75*
G02*
X164781000Y-35904000I381000J0D01*
G01*
%TO.C,J12*%
X164881000Y-83794400D02*
G75*
G02*
X164119000Y-83794400I-381000J0D01*
G01*
X164119000Y-83794400D02*
G75*
G02*
X164881000Y-83794400I381000J0D01*
G01*
%TO.C,J14*%
X178067000Y-81624800D02*
G75*
G02*
X177305000Y-81624800I-381000J0D01*
G01*
X177305000Y-81624800D02*
G75*
G02*
X178067000Y-81624800I381000J0D01*
G01*
%TO.C,J2*%
X155381000Y-35964000D02*
G75*
G02*
X154619000Y-35964000I-381000J0D01*
G01*
X154619000Y-35964000D02*
G75*
G02*
X155381000Y-35964000I381000J0D01*
G01*
%TO.C,J3*%
X155381000Y-79964000D02*
G75*
G02*
X154619000Y-79964000I-381000J0D01*
G01*
X154619000Y-79964000D02*
G75*
G02*
X155381000Y-79964000I381000J0D01*
G01*
%TO.C,J22*%
X155381000Y-70481400D02*
G75*
G02*
X154619000Y-70481400I-381000J0D01*
G01*
X154619000Y-70481400D02*
G75*
G02*
X155381000Y-70481400I381000J0D01*
G01*
%TO.C,J8*%
X188281000Y-95156000D02*
G75*
G02*
X187519000Y-95156000I-381000J0D01*
G01*
X187519000Y-95156000D02*
G75*
G02*
X188281000Y-95156000I381000J0D01*
G01*
%TO.C,J16*%
X178143000Y-115264400D02*
G75*
G02*
X177381000Y-115264400I-381000J0D01*
G01*
X177381000Y-115264400D02*
G75*
G02*
X178143000Y-115264400I381000J0D01*
G01*
%TO.C,J19*%
X178405000Y-126624800D02*
G75*
G02*
X177643000Y-126624800I-381000J0D01*
G01*
X177643000Y-126624800D02*
G75*
G02*
X178405000Y-126624800I381000J0D01*
G01*
%TO.C,J4*%
X178005000Y-103864800D02*
G75*
G02*
X177243000Y-103864800I-381000J0D01*
G01*
X177243000Y-103864800D02*
G75*
G02*
X178005000Y-103864800I381000J0D01*
G01*
%TO.C,J9*%
X188319000Y-119136000D02*
G75*
G02*
X187557000Y-119136000I-381000J0D01*
G01*
X187557000Y-119136000D02*
G75*
G02*
X188319000Y-119136000I381000J0D01*
G01*
%TO.C,J11*%
X146181000Y-65984000D02*
G75*
G02*
X145419000Y-65984000I-381000J0D01*
G01*
X145419000Y-65984000D02*
G75*
G02*
X146181000Y-65984000I381000J0D01*
G01*
%TO.C,J17*%
X178043000Y-36364400D02*
G75*
G02*
X177281000Y-36364400I-381000J0D01*
G01*
X177281000Y-36364400D02*
G75*
G02*
X178043000Y-36364400I381000J0D01*
G01*
%TO.C,J20*%
X177867000Y-58825200D02*
G75*
G02*
X177105000Y-58825200I-381000J0D01*
G01*
X177105000Y-58825200D02*
G75*
G02*
X177867000Y-58825200I381000J0D01*
G01*
%TO.C,J7*%
X188319000Y-71385600D02*
G75*
G02*
X187557000Y-71385600I-381000J0D01*
G01*
X187557000Y-71385600D02*
G75*
G02*
X188319000Y-71385600I381000J0D01*
G01*
%TO.C,J5*%
X164781000Y-59824000D02*
G75*
G02*
X164019000Y-59824000I-381000J0D01*
G01*
X164019000Y-59824000D02*
G75*
G02*
X164781000Y-59824000I381000J0D01*
G01*
%TO.C,J10*%
X188281000Y-143056000D02*
G75*
G02*
X187519000Y-143056000I-381000J0D01*
G01*
X187519000Y-143056000D02*
G75*
G02*
X188281000Y-143056000I381000J0D01*
G01*
%TO.C,J23*%
X155643000Y-99051000D02*
G75*
G02*
X154881000Y-99051000I-381000J0D01*
G01*
X154881000Y-99051000D02*
G75*
G02*
X155643000Y-99051000I381000J0D01*
G01*
%TO.C,J15*%
X163419000Y-114105600D02*
G75*
G02*
X162657000Y-114105600I-381000J0D01*
G01*
X162657000Y-114105600D02*
G75*
G02*
X163419000Y-114105600I381000J0D01*
G01*
%TO.C,J13*%
X178067000Y-92724800D02*
G75*
G02*
X177305000Y-92724800I-381000J0D01*
G01*
X177305000Y-92724800D02*
G75*
G02*
X178067000Y-92724800I381000J0D01*
G01*
%TD*%
M02*
