<?xml version="1.0" encoding="UTF-8" standalone="no"?>
<!DOCTYPE svg PUBLIC "-//W3C//DTD SVG 1.1//EN"
 "http://www.w3.org/Graphics/SVG/1.1/DTD/svg11.dtd">
<!-- Generated by graphviz version 14.1.5 (20260411.2331)
 -->
<!-- Title: TaskStateMachines Pages: 1 -->
<svg width="6353pt" height="909pt"
 viewBox="0.00 0.00 6353.00 909.00" xmlns="http://www.w3.org/2000/svg" xmlns:xlink="http://www.w3.org/1999/xlink">
<g id="graph0" class="graph" transform="scale(1 1) rotate(0) translate(4 904.5)">
<title>TaskStateMachines</title>
<polygon fill="white" stroke="none" points="-4,4 -4,-904.5 6349,-904.5 6349,4 -4,4"/>
<text xml:space="preserve" text-anchor="middle" x="3172.5" y="-886.05" font-family="Arial" font-size="11.00">State Machines: controlTask, launcherTask, ptichnyawTask</text>
<g id="clust1" class="cluster">
<title>cluster_controlTask</title>
<polygon fill="none" stroke="#9ecae1" points="75.52,-8 75.52,-154 778,-154 778,-8 75.52,-8"/>
<text xml:space="preserve" text-anchor="middle" x="426.76" y="-139.55" font-family="Arial" font-size="11.00">controlTask.c</text>
</g>
<g id="clust2" class="cluster">
<title>cluster_launcherTask</title>
<polygon fill="none" stroke="#fdae6b" points="8,-162 8,-512 6337,-512 6337,-162 8,-162"/>
<text xml:space="preserve" text-anchor="middle" x="3172.5" y="-497.55" font-family="Arial" font-size="11.00">launcherTask.c</text>
</g>
<g id="clust3" class="cluster">
<title>cluster_ptichnyawTask</title>
<polygon fill="none" stroke="#74c476" points="75.52,-520 75.52,-871 1789.25,-871 1789.25,-520 75.52,-520"/>
<text xml:space="preserve" text-anchor="middle" x="932.39" y="-856.55" font-family="Arial" font-size="11.00">ptichnyawTask.c</text>
</g>
<!-- ctl_start -->
<g id="node1" class="node">
<title>ctl_start</title>
<ellipse fill="#ffffff" stroke="black" cx="90" cy="-56" rx="6.48" ry="6.48"/>
</g>
<!-- ctl_init -->
<g id="node2" class="node">
<title>ctl_init</title>
<path fill="#f7f7f7" stroke="black" d="M405.75,-74C405.75,-74 310.25,-74 310.25,-74 304.25,-74 298.25,-68 298.25,-62 298.25,-62 298.25,-50 298.25,-50 298.25,-44 304.25,-38 310.25,-38 310.25,-38 405.75,-38 405.75,-38 411.75,-38 417.75,-44 417.75,-50 417.75,-50 417.75,-62 417.75,-62 417.75,-68 411.75,-74 405.75,-74"/>
<text xml:space="preserve" text-anchor="middle" x="358" y="-58.5" font-family="Arial" font-size="10.00">MX_USB_DEVICE_Init</text>
<text xml:space="preserve" text-anchor="middle" x="358" y="-46.5" font-family="Arial" font-size="10.00">ui_interface_init</text>
</g>
<!-- ctl_start&#45;&gt;ctl_init -->
<g id="edge1" class="edge">
<title>ctl_start&#45;&gt;ctl_init</title>
<path fill="none" stroke="black" d="M96.56,-56C120.65,-56 218.01,-56 286.6,-56"/>
<polygon fill="black" stroke="black" points="286.25,-59.5 296.25,-56 286.25,-52.5 286.25,-59.5"/>
</g>
<!-- ctl_loop -->
<g id="node3" class="node">
<title>ctl_loop</title>
<path fill="#f7f7f7" stroke="black" d="M758,-96C758,-96 645.25,-96 645.25,-96 639.25,-96 633.25,-90 633.25,-84 633.25,-84 633.25,-28 633.25,-28 633.25,-22 639.25,-16 645.25,-16 645.25,-16 758,-16 758,-16 764,-16 770,-22 770,-28 770,-28 770,-84 770,-84 770,-90 764,-96 758,-96"/>
<text xml:space="preserve" text-anchor="middle" x="701.62" y="-82.5" font-family="Arial" font-size="10.00">UI Tick Loop</text>
<text xml:space="preserve" text-anchor="middle" x="701.62" y="-70.5" font-family="Arial" font-size="10.00">lv_timer_handler</text>
<text xml:space="preserve" text-anchor="middle" x="701.62" y="-58.5" font-family="Arial" font-size="10.00">ui_tick</text>
<text xml:space="preserve" text-anchor="middle" x="701.62" y="-46.5" font-family="Arial" font-size="10.00">ui_interface_error_tick</text>
<text xml:space="preserve" text-anchor="middle" x="701.62" y="-34.5" font-family="Arial" font-size="10.00">ui_interface_update_display</text>
<text xml:space="preserve" text-anchor="middle" x="701.62" y="-22.5" font-family="Arial" font-size="10.00">osDelay(max(delay,5))</text>
</g>
<!-- ctl_init&#45;&gt;ctl_loop -->
<g id="edge2" class="edge">
<title>ctl_init&#45;&gt;ctl_loop</title>
<path fill="none" stroke="black" d="M418.12,-56C474.39,-56 559.46,-56 621.54,-56"/>
<polygon fill="black" stroke="black" points="621.34,-59.5 631.34,-56 621.34,-52.5 621.34,-59.5"/>
</g>
<!-- ctl_loop&#45;&gt;ctl_loop -->
<g id="edge3" class="edge">
<title>ctl_loop&#45;&gt;ctl_loop</title>
<path fill="none" stroke="black" d="M675.41,-96.39C677.24,-106.47 685.98,-114 701.62,-114 711.4,-114 718.48,-111.06 722.86,-106.39"/>
<polygon fill="black" stroke="black" points="725.84,-108.25 727.16,-97.74 719.58,-105.14 725.84,-108.25"/>
<text xml:space="preserve" text-anchor="middle" x="701.62" y="-115.95" font-family="Arial" font-size="9.00">for(;;)</text>
</g>
<!-- lnf_entry -->
<g id="node4" class="node">
<title>lnf_entry</title>
<ellipse fill="#ffffff" stroke="black" cx="90" cy="-232" rx="6.48" ry="6.48"/>
</g>
<!-- lnf_wait -->
<g id="node5" class="node">
<title>lnf_wait</title>
<path fill="#f7f7f7" stroke="black" d="M377.62,-250C377.62,-250 338.38,-250 338.38,-250 332.38,-250 326.38,-244 326.38,-238 326.38,-238 326.38,-226 326.38,-226 326.38,-220 332.38,-214 338.38,-214 338.38,-214 377.62,-214 377.62,-214 383.62,-214 389.62,-220 389.62,-226 389.62,-226 389.62,-238 389.62,-238 389.62,-244 383.62,-250 377.62,-250"/>
<text xml:space="preserve" text-anchor="middle" x="358" y="-228.5" font-family="Arial" font-size="10.00">LnF: WAIT</text>
</g>
<!-- lnf_entry&#45;&gt;lnf_wait -->
<g id="edge4" class="edge">
<title>lnf_entry&#45;&gt;lnf_wait</title>
<path fill="none" stroke="black" d="M96.56,-232C124.22,-232 248.38,-232 314.78,-232"/>
<polygon fill="black" stroke="black" points="314.57,-235.5 324.57,-232 314.57,-228.5 314.57,-235.5"/>
</g>
<!-- lnf_fire -->
<g id="node6" class="node">
<title>lnf_fire</title>
<path fill="#f7f7f7" stroke="black" d="M726.12,-253C726.12,-253 677.12,-253 677.12,-253 671.12,-253 665.12,-247 665.12,-241 665.12,-241 665.12,-229 665.12,-229 665.12,-223 671.12,-217 677.12,-217 677.12,-217 726.12,-217 726.12,-217 732.12,-217 738.12,-223 738.12,-229 738.12,-229 738.12,-241 738.12,-241 738.12,-247 732.12,-253 726.12,-253"/>
<text xml:space="preserve" text-anchor="middle" x="701.62" y="-231.5" font-family="Arial" font-size="10.00">LnF: FIRING</text>
</g>
<!-- lnf_wait&#45;&gt;lnf_fire -->
<g id="edge5" class="edge">
<title>lnf_wait&#45;&gt;lnf_fire</title>
<path fill="none" stroke="black" d="M389.92,-232.27C449.9,-232.8 582.37,-233.96 653.42,-234.59"/>
<polygon fill="black" stroke="black" points="653.15,-238.08 663.18,-234.67 653.21,-231.08 653.15,-238.08"/>
<text xml:space="preserve" text-anchor="middle" x="528.38" y="-257.06" font-family="Arial" font-size="9.00">arm condition met</text>
<text xml:space="preserve" text-anchor="middle" x="528.38" y="-246.56" font-family="Arial" font-size="9.00">(auto dart count &gt; 0</text>
<text xml:space="preserve" text-anchor="middle" x="528.38" y="-236.06" font-family="Arial" font-size="9.00">or testing switch)</text>
</g>
<!-- lnf_manual -->
<g id="node7" class="node">
<title>lnf_manual</title>
<path fill="#f7f7f7" stroke="black" d="M1018,-253C1018,-253 922.5,-253 922.5,-253 916.5,-253 910.5,-247 910.5,-241 910.5,-241 910.5,-229 910.5,-229 910.5,-223 916.5,-217 922.5,-217 922.5,-217 1018,-217 1018,-217 1024,-217 1030,-223 1030,-229 1030,-229 1030,-241 1030,-241 1030,-247 1024,-253 1018,-253"/>
<text xml:space="preserve" text-anchor="middle" x="970.25" y="-237.5" font-family="Arial" font-size="10.00">Manual launcher control</text>
<text xml:space="preserve" text-anchor="middle" x="970.25" y="-225.5" font-family="Arial" font-size="10.00">(rc.s[1] != 1)</text>
</g>
<!-- lnf_wait&#45;&gt;lnf_manual -->
<g id="edge7" class="edge">
<title>lnf_wait&#45;&gt;lnf_manual</title>
<path fill="none" stroke="black" d="M389.77,-216.56C406.47,-209.03 427.74,-200.8 447.75,-197 607.04,-166.72 797.93,-197.2 898.77,-218.38"/>
<polygon fill="black" stroke="black" points="898.03,-221.8 908.54,-220.47 899.49,-214.96 898.03,-221.8"/>
<text xml:space="preserve" text-anchor="middle" x="701.62" y="-198.77" font-family="Arial" font-size="9.00">rc.s[1] != 1</text>
</g>
<!-- lnf_fire&#45;&gt;lnf_wait -->
<g id="edge6" class="edge">
<title>lnf_fire&#45;&gt;lnf_wait</title>
<path fill="none" stroke="black" d="M665.04,-221.93C648.28,-216.45 627.88,-210.72 609,-208 538.07,-197.77 518.79,-198.56 447.75,-208 432.12,-210.08 415.33,-214.13 400.61,-218.32"/>
<polygon fill="black" stroke="black" points="399.85,-214.89 391.26,-221.09 401.84,-221.6 399.85,-214.89"/>
<text xml:space="preserve" text-anchor="middle" x="528.38" y="-220.45" font-family="Arial" font-size="9.00">dart_count exhausted</text>
<text xml:space="preserve" text-anchor="middle" x="528.38" y="-209.95" font-family="Arial" font-size="9.00">or reverse cycle completes</text>
</g>
<!-- lnf_fire&#45;&gt;lnf_manual -->
<g id="edge8" class="edge">
<title>lnf_fire&#45;&gt;lnf_manual</title>
<path fill="none" stroke="black" d="M738.58,-235C779.48,-235 847.26,-235 898.8,-235"/>
<polygon fill="black" stroke="black" points="898.68,-238.5 908.68,-235 898.68,-231.5 898.68,-238.5"/>
<text xml:space="preserve" text-anchor="middle" x="843.38" y="-236.95" font-family="Arial" font-size="9.00">rc.s[1] != 1</text>
</g>
<!-- lnf_manual&#45;&gt;lnf_wait -->
<g id="edge9" class="edge">
<title>lnf_manual&#45;&gt;lnf_wait</title>
<path fill="none" stroke="black" d="M910.29,-249.11C812.93,-270.16 612.87,-303.86 447.75,-270 431.63,-266.69 414.82,-260.34 400.23,-253.75"/>
<polygon fill="black" stroke="black" points="401.94,-250.69 391.4,-249.6 398.96,-257.02 401.94,-250.69"/>
<text xml:space="preserve" text-anchor="middle" x="701.62" y="-286.09" font-family="Arial" font-size="9.00">rc.s[1] == 1</text>
</g>
<!-- l_wait -->
<g id="node8" class="node">
<title>l_wait</title>
<path fill="#f7f7f7" stroke="black" d="M152,-386C152,-386 28,-386 28,-386 22,-386 16,-380 16,-374 16,-374 16,-362 16,-362 16,-356 22,-350 28,-350 28,-350 152,-350 152,-350 158,-350 164,-356 164,-362 164,-362 164,-374 164,-374 164,-380 158,-386 152,-386"/>
<text xml:space="preserve" text-anchor="middle" x="90" y="-364.5" font-family="Arial" font-size="10.00">Launcher: LAUNCHER_WAIT</text>
</g>
<!-- l_wait&#45;&gt;l_wait -->
<g id="edge11" class="edge">
<title>l_wait&#45;&gt;l_wait</title>
<path fill="none" stroke="black" d="M65.55,-386.15C61.79,-395.54 69.94,-404 90,-404 101.28,-404 108.8,-401.32 112.54,-397.31"/>
<polygon fill="black" stroke="black" points="115.96,-398.09 114.19,-387.64 109.06,-396.91 115.96,-398.09"/>
<text xml:space="preserve" text-anchor="middle" x="90" y="-405.95" font-family="Arial" font-size="9.00">no darts</text>
</g>
<!-- l_seek -->
<g id="node9" class="node">
<title>l_seek</title>
<path fill="#f7f7f7" stroke="black" d="M417.75,-459C417.75,-459 298.25,-459 298.25,-459 292.25,-459 286.25,-453 286.25,-447 286.25,-447 286.25,-435 286.25,-435 286.25,-429 292.25,-423 298.25,-423 298.25,-423 417.75,-423 417.75,-423 423.75,-423 429.75,-429 429.75,-435 429.75,-435 429.75,-447 429.75,-447 429.75,-453 423.75,-459 417.75,-459"/>
<text xml:space="preserve" text-anchor="middle" x="358" y="-437.5" font-family="Arial" font-size="10.00">Launcher: SEEK_LOCK_CW</text>
</g>
<!-- l_wait&#45;&gt;l_seek -->
<g id="edge10" class="edge">
<title>l_wait&#45;&gt;l_seek</title>
<path fill="none" stroke="black" d="M158.12,-386.42C194.98,-396.54 240.87,-409.13 279.28,-419.67"/>
<polygon fill="black" stroke="black" points="277.87,-422.91 288.44,-422.18 279.72,-416.16 277.87,-422.91"/>
<text xml:space="preserve" text-anchor="middle" x="225.12" y="-427.75" font-family="Arial" font-size="9.00">dart_count &gt; 0</text>
<text xml:space="preserve" text-anchor="middle" x="225.12" y="-417.25" font-family="Arial" font-size="9.00">(or lock precondition)</text>
</g>
<!-- l_locked -->
<g id="node10" class="node">
<title>l_locked</title>
<path fill="#f7f7f7" stroke="black" d="M741.12,-422C741.12,-422 662.12,-422 662.12,-422 656.12,-422 650.12,-416 650.12,-410 650.12,-410 650.12,-398 650.12,-398 650.12,-392 656.12,-386 662.12,-386 662.12,-386 741.12,-386 741.12,-386 747.12,-386 753.12,-392 753.12,-398 753.12,-398 753.12,-410 753.12,-410 753.12,-416 747.12,-422 741.12,-422"/>
<text xml:space="preserve" text-anchor="middle" x="701.62" y="-400.5" font-family="Arial" font-size="10.00">Launcher: LOCKED</text>
</g>
<!-- l_seek&#45;&gt;l_locked -->
<g id="edge12" class="edge">
<title>l_seek&#45;&gt;l_locked</title>
<path fill="none" stroke="black" d="M414.39,-422.55C425.34,-419.53 436.82,-416.81 447.75,-415 512.24,-404.31 587.16,-402.33 638.62,-402.55"/>
<polygon fill="black" stroke="black" points="638.34,-406.05 648.36,-402.62 638.39,-399.05 638.34,-406.05"/>
<text xml:space="preserve" text-anchor="middle" x="528.38" y="-427.45" font-family="Arial" font-size="9.00">LOCK pin active</text>
<text xml:space="preserve" text-anchor="middle" x="528.38" y="-416.95" font-family="Arial" font-size="9.00">for 2000 ms</text>
</g>
<!-- l_feed -->
<g id="node11" class="node">
<title>l_feed</title>
<path fill="#f7f7f7" stroke="black" d="M1002.62,-403C1002.62,-403 937.88,-403 937.88,-403 931.88,-403 925.88,-397 925.88,-391 925.88,-391 925.88,-379 925.88,-379 925.88,-373 931.88,-367 937.88,-367 937.88,-367 1002.62,-367 1002.62,-367 1008.62,-367 1014.62,-373 1014.62,-379 1014.62,-379 1014.62,-391 1014.62,-391 1014.62,-397 1008.62,-403 1002.62,-403"/>
<text xml:space="preserve" text-anchor="middle" x="970.25" y="-381.5" font-family="Arial" font-size="10.00">Launcher: FEED</text>
</g>
<!-- l_locked&#45;&gt;l_feed -->
<g id="edge13" class="edge">
<title>l_locked&#45;&gt;l_feed</title>
<path fill="none" stroke="black" d="M753.4,-400.38C799.46,-397.1 867.2,-392.27 914.47,-388.9"/>
<polygon fill="black" stroke="black" points="914.48,-392.41 924.21,-388.21 913.99,-385.43 914.48,-392.41"/>
<text xml:space="preserve" text-anchor="middle" x="843.38" y="-399.26" font-family="Arial" font-size="9.00">op_sen_feeder interrupt</text>
</g>
<!-- l_rev -->
<g id="node12" class="node">
<title>l_rev</title>
<path fill="#f7f7f7" stroke="black" d="M1437.5,-328C1437.5,-328 1286.5,-328 1286.5,-328 1280.5,-328 1274.5,-322 1274.5,-316 1274.5,-316 1274.5,-304 1274.5,-304 1274.5,-298 1280.5,-292 1286.5,-292 1286.5,-292 1437.5,-292 1437.5,-292 1443.5,-292 1449.5,-298 1449.5,-304 1449.5,-304 1449.5,-316 1449.5,-316 1449.5,-322 1443.5,-328 1437.5,-328"/>
<text xml:space="preserve" text-anchor="middle" x="1362" y="-306.5" font-family="Arial" font-size="10.00">Launcher: REVERSE_TO_WEIGHT</text>
</g>
<!-- l_feed&#45;&gt;l_rev -->
<g id="edge14" class="edge">
<title>l_feed&#45;&gt;l_rev</title>
<path fill="none" stroke="black" d="M992.86,-366.69C1007.45,-355.45 1027.68,-341.93 1048,-335 1086.48,-321.88 1186.39,-315.56 1263.07,-312.57"/>
<polygon fill="black" stroke="black" points="1262.83,-316.09 1272.69,-312.21 1262.57,-309.09 1262.83,-316.09"/>
<text xml:space="preserve" text-anchor="middle" x="1152.25" y="-347.45" font-family="Arial" font-size="9.00">(Feeder at POS_2_0/POS_3_0/POS_4_0 &amp;&amp; done)</text>
<text xml:space="preserve" text-anchor="middle" x="1152.25" y="-336.95" font-family="Arial" font-size="9.00">or dart_count == 4</text>
</g>
<!-- f_u1 -->
<g id="node15" class="node">
<title>f_u1</title>
<path fill="#f7f7f7" stroke="black" d="M1402.25,-402C1402.25,-402 1321.75,-402 1321.75,-402 1315.75,-402 1309.75,-396 1309.75,-390 1309.75,-390 1309.75,-378 1309.75,-378 1309.75,-372 1315.75,-366 1321.75,-366 1321.75,-366 1402.25,-366 1402.25,-366 1408.25,-366 1414.25,-372 1414.25,-378 1414.25,-378 1414.25,-390 1414.25,-390 1414.25,-396 1408.25,-402 1402.25,-402"/>
<text xml:space="preserve" text-anchor="middle" x="1362" y="-380.5" font-family="Arial" font-size="10.00">Feeder: UNLOAD_1</text>
</g>
<!-- l_feed&#45;&gt;f_u1 -->
<g id="edge38" class="edge">
<title>l_feed&#45;&gt;f_u1</title>
<path fill="none" stroke="#636363" stroke-dasharray="5,2" d="M1014.82,-384.89C1083.84,-384.71 1218.58,-384.37 1298.08,-384.16"/>
<polygon fill="#636363" stroke="#636363" points="1297.89,-387.66 1307.88,-384.14 1297.87,-380.66 1297.89,-387.66"/>
<text xml:space="preserve" text-anchor="middle" x="1152.25" y="-386.73" font-family="Arial" font-size="9.00">if Feeder at POS_1_1</text>
</g>
<!-- f_u2 -->
<g id="node21" class="node">
<title>f_u2</title>
<path fill="#f7f7f7" stroke="black" d="M3009.5,-429C3009.5,-429 2929,-429 2929,-429 2923,-429 2917,-423 2917,-417 2917,-417 2917,-405 2917,-405 2917,-399 2923,-393 2929,-393 2929,-393 3009.5,-393 3009.5,-393 3015.5,-393 3021.5,-399 3021.5,-405 3021.5,-405 3021.5,-417 3021.5,-417 3021.5,-423 3015.5,-429 3009.5,-429"/>
<text xml:space="preserve" text-anchor="middle" x="2969.25" y="-407.5" font-family="Arial" font-size="10.00">Feeder: UNLOAD_2</text>
</g>
<!-- l_feed&#45;&gt;f_u2 -->
<g id="edge39" class="edge">
<title>l_feed&#45;&gt;f_u2</title>
<path fill="none" stroke="#636363" stroke-dasharray="5,2" d="M1014.95,-393.83C1025.72,-395.77 1037.25,-397.65 1048,-399 1186.36,-416.43 1221.55,-421 1361,-421 1361,-421 1361,-421 2698.5,-421 2787.64,-421 2809.97,-420.32 2899,-416 2901.17,-415.89 2903.37,-415.78 2905.6,-415.66"/>
<polygon fill="#636363" stroke="#636363" points="2905.55,-419.17 2915.33,-415.07 2905.13,-412.18 2905.55,-419.17"/>
<text xml:space="preserve" text-anchor="middle" x="2111.88" y="-422.95" font-family="Arial" font-size="9.00">if Feeder at POS_2_1</text>
</g>
<!-- f_u3 -->
<g id="node30" class="node">
<title>f_u3</title>
<path fill="#f7f7f7" stroke="black" d="M5064.5,-414C5064.5,-414 4984,-414 4984,-414 4978,-414 4972,-408 4972,-402 4972,-402 4972,-390 4972,-390 4972,-384 4978,-378 4984,-378 4984,-378 5064.5,-378 5064.5,-378 5070.5,-378 5076.5,-384 5076.5,-390 5076.5,-390 5076.5,-402 5076.5,-402 5076.5,-408 5070.5,-414 5064.5,-414"/>
<text xml:space="preserve" text-anchor="middle" x="5024.25" y="-392.5" font-family="Arial" font-size="10.00">Feeder: UNLOAD_3</text>
</g>
<!-- l_feed&#45;&gt;f_u3 -->
<g id="edge40" class="edge">
<title>l_feed&#45;&gt;f_u3</title>
<path fill="none" stroke="#636363" stroke-dasharray="5,2" d="M1014.71,-380.15C1143.64,-366.22 1535.31,-327 1861.25,-327 1861.25,-327 1861.25,-327 4753.5,-327 4829.93,-327 4914.84,-353.32 4968.61,-373.45"/>
<polygon fill="#636363" stroke="#636363" points="4967.26,-376.68 4977.85,-376.97 4969.76,-370.14 4967.26,-376.68"/>
<text xml:space="preserve" text-anchor="middle" x="3146.12" y="-328.95" font-family="Arial" font-size="9.00">if Feeder at POS_3_1</text>
</g>
<!-- l_rev&#45;&gt;l_wait -->
<g id="edge15" class="edge">
<title>l_rev&#45;&gt;l_wait</title>
<path fill="none" stroke="black" d="M1274.29,-310.47C1211.45,-311.03 1124.45,-312.27 1048,-315 725.52,-326.5 342.47,-350.99 175.65,-362.19"/>
<polygon fill="black" stroke="black" points="175.75,-358.68 166.01,-362.84 176.22,-365.66 175.75,-358.68"/>
<text xml:space="preserve" text-anchor="middle" x="701.62" y="-357.33" font-family="Arial" font-size="9.00">reverse target reached</text>
<text xml:space="preserve" text-anchor="middle" x="701.62" y="-346.83" font-family="Arial" font-size="9.00">hold 10000 ms</text>
<text xml:space="preserve" text-anchor="middle" x="701.62" y="-336.33" font-family="Arial" font-size="9.00">release servo</text>
</g>
<!-- f_p10 -->
<g id="node13" class="node">
<title>f_p10</title>
<path fill="#f7f7f7" stroke="black" d="M6126.25,-414C6126.25,-414 6056.25,-414 6056.25,-414 6050.25,-414 6044.25,-408 6044.25,-402 6044.25,-402 6044.25,-390 6044.25,-390 6044.25,-384 6050.25,-378 6056.25,-378 6056.25,-378 6126.25,-378 6126.25,-378 6132.25,-378 6138.25,-384 6138.25,-390 6138.25,-390 6138.25,-402 6138.25,-402 6138.25,-408 6132.25,-414 6126.25,-414"/>
<text xml:space="preserve" text-anchor="middle" x="6091.25" y="-392.5" font-family="Arial" font-size="10.00">Feeder: POS_1_0</text>
</g>
<!-- f_p10&#45;&gt;l_seek -->
<g id="edge41" class="edge">
<title>f_p10&#45;&gt;l_seek</title>
<path fill="none" stroke="#636363" stroke-dasharray="1,5" d="M6064.41,-414.4C6030.23,-436.89 5967.29,-472 5907.5,-472 3429.62,-472 3429.62,-472 3429.62,-472 2844.39,-472 2698.11,-481 2112.88,-481 700.62,-481 700.62,-481 700.62,-481 587.81,-481 559.4,-475.13 447.75,-459 445.59,-458.69 443.41,-458.36 441.2,-458.01"/>
<polygon fill="#636363" stroke="#636363" points="442.02,-454.6 431.58,-456.4 440.86,-461.5 442.02,-454.6"/>
<text xml:space="preserve" text-anchor="middle" x="3538.75" y="-473.95" font-family="Arial" font-size="9.00">ready path begins</text>
</g>
<!-- f_p11 -->
<g id="node14" class="node">
<title>f_p11</title>
<path fill="#f7f7f7" stroke="black" d="M6317,-387C6317,-387 6247,-387 6247,-387 6241,-387 6235,-381 6235,-375 6235,-375 6235,-363 6235,-363 6235,-357 6241,-351 6247,-351 6247,-351 6317,-351 6317,-351 6323,-351 6329,-357 6329,-363 6329,-363 6329,-375 6329,-375 6329,-381 6323,-387 6317,-387"/>
<text xml:space="preserve" text-anchor="middle" x="6282" y="-365.5" font-family="Arial" font-size="10.00">Feeder: POS_1_1</text>
</g>
<!-- f_p10&#45;&gt;f_p11 -->
<g id="edge16" class="edge">
<title>f_p10&#45;&gt;f_p11</title>
<path fill="none" stroke="black" d="M6138.42,-389.4C6164.02,-385.73 6196.07,-381.15 6223.31,-377.25"/>
<polygon fill="black" stroke="black" points="6223.75,-380.73 6233.15,-375.84 6222.76,-373.8 6223.75,-380.73"/>
<text xml:space="preserve" text-anchor="middle" x="6186.62" y="-388.45" font-family="Arial" font-size="9.00">ready &amp;&amp; done</text>
</g>
<!-- f_p11&#45;&gt;f_u1 -->
<g id="edge17" class="edge">
<title>f_p11&#45;&gt;f_u1</title>
<path fill="none" stroke="black" d="M6234.51,-364.39C6196.34,-361.01 6140.85,-357 6092.25,-357 3287.38,-357 3287.38,-357 3287.38,-357 2983.23,-357 2907.27,-347 2603.12,-347 1706.25,-347 1706.25,-347 1706.25,-347 1607.74,-347 1494.24,-362.25 1425.6,-373.17"/>
<polygon fill="black" stroke="black" points="1425.38,-369.66 1416.06,-374.71 1426.49,-376.57 1425.38,-369.66"/>
<text xml:space="preserve" text-anchor="middle" x="3964.5" y="-358.95" font-family="Arial" font-size="9.00">LauncherState == FEED &amp;&amp; done</text>
</g>
<!-- f_pa1 -->
<g id="node16" class="node">
<title>f_pa1</title>
<path fill="#f7f7f7" stroke="black" d="M1743.38,-402C1743.38,-402 1671.12,-402 1671.12,-402 1665.12,-402 1659.12,-396 1659.12,-390 1659.12,-390 1659.12,-378 1659.12,-378 1659.12,-372 1665.12,-366 1671.12,-366 1671.12,-366 1743.38,-366 1743.38,-366 1749.38,-366 1755.38,-372 1755.38,-378 1755.38,-378 1755.38,-390 1755.38,-390 1755.38,-396 1749.38,-402 1743.38,-402"/>
<text xml:space="preserve" text-anchor="middle" x="1707.25" y="-380.5" font-family="Arial" font-size="10.00">Feeder: PAUSE_1</text>
</g>
<!-- f_u1&#45;&gt;f_pa1 -->
<g id="edge18" class="edge">
<title>f_u1&#45;&gt;f_pa1</title>
<path fill="none" stroke="black" d="M1414.39,-384C1476.76,-384 1581.69,-384 1647.29,-384"/>
<polygon fill="black" stroke="black" points="1647.15,-387.5 1657.15,-384 1647.15,-380.5 1647.15,-387.5"/>
<text xml:space="preserve" text-anchor="middle" x="1541.38" y="-385.95" font-family="Arial" font-size="9.00">4000 ms</text>
</g>
<!-- f_pa11 -->
<g id="node17" class="node">
<title>f_pa11</title>
<path fill="#f7f7f7" stroke="black" d="M2038,-402C2038,-402 1955.25,-402 1955.25,-402 1949.25,-402 1943.25,-396 1943.25,-390 1943.25,-390 1943.25,-378 1943.25,-378 1943.25,-372 1949.25,-366 1955.25,-366 1955.25,-366 2038,-366 2038,-366 2044,-366 2050,-372 2050,-378 2050,-378 2050,-390 2050,-390 2050,-396 2044,-402 2038,-402"/>
<text xml:space="preserve" text-anchor="middle" x="1996.62" y="-380.5" font-family="Arial" font-size="10.00">Feeder: PAUSE_1_1</text>
</g>
<!-- f_pa1&#45;&gt;f_pa11 -->
<g id="edge19" class="edge">
<title>f_pa1&#45;&gt;f_pa11</title>
<path fill="none" stroke="black" d="M1755.7,-384C1803.83,-384 1878.6,-384 1931.87,-384"/>
<polygon fill="black" stroke="black" points="1931.72,-387.5 1941.72,-384 1931.72,-380.5 1931.72,-387.5"/>
<text xml:space="preserve" text-anchor="middle" x="1862.25" y="-385.95" font-family="Arial" font-size="9.00">launch pos ~= PAUSE_1_DIST</text>
</g>
<!-- f_r1 -->
<g id="node18" class="node">
<title>f_r1</title>
<path fill="#f7f7f7" stroke="black" d="M2265.5,-402C2265.5,-402 2185.75,-402 2185.75,-402 2179.75,-402 2173.75,-396 2173.75,-390 2173.75,-390 2173.75,-378 2173.75,-378 2173.75,-372 2179.75,-366 2185.75,-366 2185.75,-366 2265.5,-366 2265.5,-366 2271.5,-366 2277.5,-372 2277.5,-378 2277.5,-378 2277.5,-390 2277.5,-390 2277.5,-396 2271.5,-402 2265.5,-402"/>
<text xml:space="preserve" text-anchor="middle" x="2225.62" y="-380.5" font-family="Arial" font-size="10.00">Feeder: RELOAD_1</text>
</g>
<!-- f_pa11&#45;&gt;f_r1 -->
<g id="edge20" class="edge">
<title>f_pa11&#45;&gt;f_r1</title>
<path fill="none" stroke="black" d="M2050.27,-384C2083.72,-384 2127.17,-384 2162.33,-384"/>
<polygon fill="black" stroke="black" points="2161.92,-387.5 2171.92,-384 2161.92,-380.5 2161.92,-387.5"/>
<text xml:space="preserve" text-anchor="middle" x="2111.88" y="-385.95" font-family="Arial" font-size="9.00">2000 ms</text>
</g>
<!-- f_p20 -->
<g id="node19" class="node">
<title>f_p20</title>
<path fill="#f7f7f7" stroke="black" d="M2541.75,-402C2541.75,-402 2471.75,-402 2471.75,-402 2465.75,-402 2459.75,-396 2459.75,-390 2459.75,-390 2459.75,-378 2459.75,-378 2459.75,-372 2465.75,-366 2471.75,-366 2471.75,-366 2541.75,-366 2541.75,-366 2547.75,-366 2553.75,-372 2553.75,-378 2553.75,-378 2553.75,-390 2553.75,-390 2553.75,-396 2547.75,-402 2541.75,-402"/>
<text xml:space="preserve" text-anchor="middle" x="2506.75" y="-380.5" font-family="Arial" font-size="10.00">Feeder: POS_2_0</text>
</g>
<!-- f_r1&#45;&gt;f_p20 -->
<g id="edge21" class="edge">
<title>f_r1&#45;&gt;f_p20</title>
<path fill="none" stroke="black" d="M2277.82,-384C2326,-384 2398.06,-384 2448.21,-384"/>
<polygon fill="black" stroke="black" points="2448,-387.5 2458,-384 2448,-380.5 2448,-387.5"/>
<text xml:space="preserve" text-anchor="middle" x="2368.62" y="-385.95" font-family="Arial" font-size="9.00">2000 ms &amp;&amp; launch pos ~= OFFSET</text>
</g>
<!-- f_p20&#45;&gt;l_seek -->
<g id="edge42" class="edge">
<title>f_p20&#45;&gt;l_seek</title>
<path fill="none" stroke="#636363" stroke-dasharray="1,5" d="M2459.42,-399.43C2404.52,-416.31 2309.96,-441 2226.62,-441 700.62,-441 700.62,-441 700.62,-441 612,-441 510.44,-441 441.24,-441"/>
<polygon fill="#636363" stroke="#636363" points="441.5,-437.5 431.5,-441 441.5,-444.5 441.5,-437.5"/>
</g>
<!-- f_p21 -->
<g id="node20" class="node">
<title>f_p21</title>
<path fill="#f7f7f7" stroke="black" d="M2732.5,-402C2732.5,-402 2662.5,-402 2662.5,-402 2656.5,-402 2650.5,-396 2650.5,-390 2650.5,-390 2650.5,-378 2650.5,-378 2650.5,-372 2656.5,-366 2662.5,-366 2662.5,-366 2732.5,-366 2732.5,-366 2738.5,-366 2744.5,-372 2744.5,-378 2744.5,-378 2744.5,-390 2744.5,-390 2744.5,-396 2738.5,-402 2732.5,-402"/>
<text xml:space="preserve" text-anchor="middle" x="2697.5" y="-380.5" font-family="Arial" font-size="10.00">Feeder: POS_2_1</text>
</g>
<!-- f_p20&#45;&gt;f_p21 -->
<g id="edge22" class="edge">
<title>f_p20&#45;&gt;f_p21</title>
<path fill="none" stroke="black" d="M2553.92,-384C2579.52,-384 2611.57,-384 2638.81,-384"/>
<polygon fill="black" stroke="black" points="2638.64,-387.5 2648.64,-384 2638.64,-380.5 2638.64,-387.5"/>
<text xml:space="preserve" text-anchor="middle" x="2602.12" y="-385.95" font-family="Arial" font-size="9.00">ready &amp;&amp; done</text>
</g>
<!-- f_p21&#45;&gt;f_u2 -->
<g id="edge23" class="edge">
<title>f_p21&#45;&gt;f_u2</title>
<path fill="none" stroke="black" d="M2744.87,-388.64C2789.08,-393.07 2856,-399.76 2905.07,-404.68"/>
<polygon fill="black" stroke="black" points="2904.7,-408.16 2915,-405.67 2905.4,-401.19 2904.7,-408.16"/>
<text xml:space="preserve" text-anchor="middle" x="2830.75" y="-405.71" font-family="Arial" font-size="9.00">LauncherState == FEED &amp;&amp; done</text>
</g>
<!-- f_pa21 -->
<g id="node22" class="node">
<title>f_pa21</title>
<path fill="#f7f7f7" stroke="black" d="M3187.5,-429C3187.5,-429 3104.75,-429 3104.75,-429 3098.75,-429 3092.75,-423 3092.75,-417 3092.75,-417 3092.75,-405 3092.75,-405 3092.75,-399 3098.75,-393 3104.75,-393 3104.75,-393 3187.5,-393 3187.5,-393 3193.5,-393 3199.5,-399 3199.5,-405 3199.5,-405 3199.5,-417 3199.5,-417 3199.5,-423 3193.5,-429 3187.5,-429"/>
<text xml:space="preserve" text-anchor="middle" x="3146.12" y="-407.5" font-family="Arial" font-size="10.00">Feeder: PAUSE_2_1</text>
</g>
<!-- f_u2&#45;&gt;f_pa21 -->
<g id="edge24" class="edge">
<title>f_u2&#45;&gt;f_pa21</title>
<path fill="none" stroke="black" d="M3021.77,-411C3040.39,-411 3061.63,-411 3081.17,-411"/>
<polygon fill="black" stroke="black" points="3080.94,-414.5 3090.94,-411 3080.94,-407.5 3080.94,-414.5"/>
<text xml:space="preserve" text-anchor="middle" x="3057.12" y="-412.95" font-family="Arial" font-size="9.00">3000 ms</text>
</g>
<!-- f_pa22 -->
<g id="node23" class="node">
<title>f_pa22</title>
<path fill="#f7f7f7" stroke="black" d="M3472,-429C3472,-429 3389.25,-429 3389.25,-429 3383.25,-429 3377.25,-423 3377.25,-417 3377.25,-417 3377.25,-405 3377.25,-405 3377.25,-399 3383.25,-393 3389.25,-393 3389.25,-393 3472,-393 3472,-393 3478,-393 3484,-399 3484,-405 3484,-405 3484,-417 3484,-417 3484,-423 3478,-429 3472,-429"/>
<text xml:space="preserve" text-anchor="middle" x="3430.62" y="-407.5" font-family="Arial" font-size="10.00">Feeder: PAUSE_2_2</text>
</g>
<!-- f_pa21&#45;&gt;f_pa22 -->
<g id="edge25" class="edge">
<title>f_pa21&#45;&gt;f_pa22</title>
<path fill="none" stroke="black" d="M3199.93,-411C3246.9,-411 3315.69,-411 3365.74,-411"/>
<polygon fill="black" stroke="black" points="3365.57,-414.5 3375.57,-411 3365.57,-407.5 3365.57,-414.5"/>
<text xml:space="preserve" text-anchor="middle" x="3288.38" y="-412.95" font-family="Arial" font-size="9.00">launch pos ~= PAUSE_2_123DIST</text>
</g>
<!-- f_pa23 -->
<g id="node24" class="node">
<title>f_pa23</title>
<path fill="#f7f7f7" stroke="black" d="M3688.25,-429C3688.25,-429 3605.5,-429 3605.5,-429 3599.5,-429 3593.5,-423 3593.5,-417 3593.5,-417 3593.5,-405 3593.5,-405 3593.5,-399 3599.5,-393 3605.5,-393 3605.5,-393 3688.25,-393 3688.25,-393 3694.25,-393 3700.25,-399 3700.25,-405 3700.25,-405 3700.25,-417 3700.25,-417 3700.25,-423 3694.25,-429 3688.25,-429"/>
<text xml:space="preserve" text-anchor="middle" x="3646.88" y="-407.5" font-family="Arial" font-size="10.00">Feeder: PAUSE_2_3</text>
</g>
<!-- f_pa22&#45;&gt;f_pa23 -->
<g id="edge26" class="edge">
<title>f_pa22&#45;&gt;f_pa23</title>
<path fill="none" stroke="black" d="M3484.31,-411C3513.77,-411 3550.72,-411 3581.84,-411"/>
<polygon fill="black" stroke="black" points="3581.51,-414.5 3591.51,-411 3581.51,-407.5 3581.51,-414.5"/>
<text xml:space="preserve" text-anchor="middle" x="3538.75" y="-412.95" font-family="Arial" font-size="9.00">done</text>
</g>
<!-- f_pa24 -->
<g id="node25" class="node">
<title>f_pa24</title>
<path fill="#f7f7f7" stroke="black" d="M3866.25,-429C3866.25,-429 3783.5,-429 3783.5,-429 3777.5,-429 3771.5,-423 3771.5,-417 3771.5,-417 3771.5,-405 3771.5,-405 3771.5,-399 3777.5,-393 3783.5,-393 3783.5,-393 3866.25,-393 3866.25,-393 3872.25,-393 3878.25,-399 3878.25,-405 3878.25,-405 3878.25,-417 3878.25,-417 3878.25,-423 3872.25,-429 3866.25,-429"/>
<text xml:space="preserve" text-anchor="middle" x="3824.88" y="-407.5" font-family="Arial" font-size="10.00">Feeder: PAUSE_2_4</text>
</g>
<!-- f_pa23&#45;&gt;f_pa24 -->
<g id="edge27" class="edge">
<title>f_pa23&#45;&gt;f_pa24</title>
<path fill="none" stroke="black" d="M3700.68,-411C3719.21,-411 3740.24,-411 3759.61,-411"/>
<polygon fill="black" stroke="black" points="3759.59,-414.5 3769.59,-411 3759.59,-407.5 3759.59,-414.5"/>
<text xml:space="preserve" text-anchor="middle" x="3735.88" y="-412.95" font-family="Arial" font-size="9.00">3000 ms</text>
</g>
<!-- f_pa25 -->
<g id="node26" class="node">
<title>f_pa25</title>
<path fill="#f7f7f7" stroke="black" d="M4145.5,-429C4145.5,-429 4062.75,-429 4062.75,-429 4056.75,-429 4050.75,-423 4050.75,-417 4050.75,-417 4050.75,-405 4050.75,-405 4050.75,-399 4056.75,-393 4062.75,-393 4062.75,-393 4145.5,-393 4145.5,-393 4151.5,-393 4157.5,-399 4157.5,-405 4157.5,-405 4157.5,-417 4157.5,-417 4157.5,-423 4151.5,-429 4145.5,-429"/>
<text xml:space="preserve" text-anchor="middle" x="4104.12" y="-407.5" font-family="Arial" font-size="10.00">Feeder: PAUSE_2_5</text>
</g>
<!-- f_pa24&#45;&gt;f_pa25 -->
<g id="edge28" class="edge">
<title>f_pa24&#45;&gt;f_pa25</title>
<path fill="none" stroke="black" d="M3878.68,-411C3924.35,-411 3990.51,-411 4039.17,-411"/>
<polygon fill="black" stroke="black" points="4039.01,-414.5 4049.01,-411 4039.01,-407.5 4039.01,-414.5"/>
<text xml:space="preserve" text-anchor="middle" x="3964.5" y="-412.95" font-family="Arial" font-size="9.00">launch pos ~= PAUSE_2_4DIST</text>
</g>
<!-- f_r2 -->
<g id="node27" class="node">
<title>f_r2</title>
<path fill="#f7f7f7" stroke="black" d="M4320.5,-429C4320.5,-429 4240.75,-429 4240.75,-429 4234.75,-429 4228.75,-423 4228.75,-417 4228.75,-417 4228.75,-405 4228.75,-405 4228.75,-399 4234.75,-393 4240.75,-393 4240.75,-393 4320.5,-393 4320.5,-393 4326.5,-393 4332.5,-399 4332.5,-405 4332.5,-405 4332.5,-417 4332.5,-417 4332.5,-423 4326.5,-429 4320.5,-429"/>
<text xml:space="preserve" text-anchor="middle" x="4280.62" y="-407.5" font-family="Arial" font-size="10.00">Feeder: RELOAD_2</text>
</g>
<!-- f_pa25&#45;&gt;f_r2 -->
<g id="edge29" class="edge">
<title>f_pa25&#45;&gt;f_r2</title>
<path fill="none" stroke="black" d="M4157.95,-411C4176.57,-411 4197.67,-411 4217.01,-411"/>
<polygon fill="black" stroke="black" points="4216.96,-414.5 4226.96,-411 4216.96,-407.5 4216.96,-414.5"/>
<text xml:space="preserve" text-anchor="middle" x="4193.12" y="-412.95" font-family="Arial" font-size="9.00">2000 ms</text>
</g>
<!-- f_p30 -->
<g id="node28" class="node">
<title>f_p30</title>
<path fill="#f7f7f7" stroke="black" d="M4596.75,-429C4596.75,-429 4526.75,-429 4526.75,-429 4520.75,-429 4514.75,-423 4514.75,-417 4514.75,-417 4514.75,-405 4514.75,-405 4514.75,-399 4520.75,-393 4526.75,-393 4526.75,-393 4596.75,-393 4596.75,-393 4602.75,-393 4608.75,-399 4608.75,-405 4608.75,-405 4608.75,-417 4608.75,-417 4608.75,-423 4602.75,-429 4596.75,-429"/>
<text xml:space="preserve" text-anchor="middle" x="4561.75" y="-407.5" font-family="Arial" font-size="10.00">Feeder: POS_3_0</text>
</g>
<!-- f_r2&#45;&gt;f_p30 -->
<g id="edge30" class="edge">
<title>f_r2&#45;&gt;f_p30</title>
<path fill="none" stroke="black" d="M4332.82,-411C4381,-411 4453.06,-411 4503.21,-411"/>
<polygon fill="black" stroke="black" points="4503,-414.5 4513,-411 4503,-407.5 4503,-414.5"/>
<text xml:space="preserve" text-anchor="middle" x="4423.62" y="-412.95" font-family="Arial" font-size="9.00">2000 ms &amp;&amp; launch pos ~= OFFSET</text>
</g>
<!-- f_p30&#45;&gt;l_seek -->
<g id="edge43" class="edge">
<title>f_p30&#45;&gt;l_seek</title>
<path fill="none" stroke="#636363" stroke-dasharray="1,5" d="M4514.4,-422.6C4508.48,-423.86 4502.49,-425.04 4496.75,-426 4401.96,-441.89 4377.73,-448 4281.62,-448 3645.88,-448 3645.88,-448 3645.88,-448 2964.52,-448 2794.23,-461 2112.88,-461 700.62,-461 700.62,-461 700.62,-461 611.99,-461 510.63,-454.21 441.49,-448.54"/>
<polygon fill="#636363" stroke="#636363" points="442.01,-445.07 431.76,-447.73 441.43,-452.05 442.01,-445.07"/>
</g>
<!-- f_p31 -->
<g id="node29" class="node">
<title>f_p31</title>
<path fill="#f7f7f7" stroke="black" d="M4787.5,-423C4787.5,-423 4717.5,-423 4717.5,-423 4711.5,-423 4705.5,-417 4705.5,-411 4705.5,-411 4705.5,-399 4705.5,-399 4705.5,-393 4711.5,-387 4717.5,-387 4717.5,-387 4787.5,-387 4787.5,-387 4793.5,-387 4799.5,-393 4799.5,-399 4799.5,-399 4799.5,-411 4799.5,-411 4799.5,-417 4793.5,-423 4787.5,-423"/>
<text xml:space="preserve" text-anchor="middle" x="4752.5" y="-401.5" font-family="Arial" font-size="10.00">Feeder: POS_3_1</text>
</g>
<!-- f_p30&#45;&gt;f_p31 -->
<g id="edge31" class="edge">
<title>f_p30&#45;&gt;f_p31</title>
<path fill="none" stroke="black" d="M4608.92,-409.53C4634.52,-408.72 4666.57,-407.7 4693.81,-406.83"/>
<polygon fill="black" stroke="black" points="4693.75,-410.34 4703.64,-406.52 4693.53,-403.34 4693.75,-410.34"/>
<text xml:space="preserve" text-anchor="middle" x="4657.12" y="-410.84" font-family="Arial" font-size="9.00">ready &amp;&amp; done</text>
</g>
<!-- f_p31&#45;&gt;f_u3 -->
<g id="edge32" class="edge">
<title>f_p31&#45;&gt;f_u3</title>
<path fill="none" stroke="black" d="M4799.87,-403.45C4844.08,-401.98 4911,-399.75 4960.07,-398.11"/>
<polygon fill="black" stroke="black" points="4960.11,-401.61 4969.99,-397.78 4959.88,-394.61 4960.11,-401.61"/>
<text xml:space="preserve" text-anchor="middle" x="4885.75" y="-404.78" font-family="Arial" font-size="9.00">LauncherState == FEED &amp;&amp; done</text>
</g>
<!-- f_pa3 -->
<g id="node31" class="node">
<title>f_pa3</title>
<path fill="#f7f7f7" stroke="black" d="M5232,-414C5232,-414 5159.75,-414 5159.75,-414 5153.75,-414 5147.75,-408 5147.75,-402 5147.75,-402 5147.75,-390 5147.75,-390 5147.75,-384 5153.75,-378 5159.75,-378 5159.75,-378 5232,-378 5232,-378 5238,-378 5244,-384 5244,-390 5244,-390 5244,-402 5244,-402 5244,-408 5238,-414 5232,-414"/>
<text xml:space="preserve" text-anchor="middle" x="5195.88" y="-392.5" font-family="Arial" font-size="10.00">Feeder: PAUSE_3</text>
</g>
<!-- f_u3&#45;&gt;f_pa3 -->
<g id="edge33" class="edge">
<title>f_u3&#45;&gt;f_pa3</title>
<path fill="none" stroke="black" d="M5076.6,-396C5095.34,-396 5116.68,-396 5136.03,-396"/>
<polygon fill="black" stroke="black" points="5135.94,-399.5 5145.94,-396 5135.94,-392.5 5135.94,-399.5"/>
<text xml:space="preserve" text-anchor="middle" x="5112.12" y="-397.95" font-family="Arial" font-size="9.00">2000 ms</text>
</g>
<!-- f_pa31 -->
<g id="node32" class="node">
<title>f_pa31</title>
<path fill="#f7f7f7" stroke="black" d="M5490.25,-414C5490.25,-414 5407.5,-414 5407.5,-414 5401.5,-414 5395.5,-408 5395.5,-402 5395.5,-402 5395.5,-390 5395.5,-390 5395.5,-384 5401.5,-378 5407.5,-378 5407.5,-378 5490.25,-378 5490.25,-378 5496.25,-378 5502.25,-384 5502.25,-390 5502.25,-390 5502.25,-402 5502.25,-402 5502.25,-408 5496.25,-414 5490.25,-414"/>
<text xml:space="preserve" text-anchor="middle" x="5448.88" y="-392.5" font-family="Arial" font-size="10.00">Feeder: PAUSE_3_1</text>
</g>
<!-- f_pa3&#45;&gt;f_pa31 -->
<g id="edge34" class="edge">
<title>f_pa3&#45;&gt;f_pa31</title>
<path fill="none" stroke="black" d="M5244.38,-396C5283.91,-396 5340.55,-396 5384.04,-396"/>
<polygon fill="black" stroke="black" points="5383.85,-399.5 5393.85,-396 5383.85,-392.5 5383.85,-399.5"/>
<text xml:space="preserve" text-anchor="middle" x="5319.75" y="-397.95" font-family="Arial" font-size="9.00">launch pos ~= pause_3_dist</text>
</g>
<!-- f_r3 -->
<g id="node33" class="node">
<title>f_r3</title>
<path fill="#f7f7f7" stroke="black" d="M5665.25,-414C5665.25,-414 5585.5,-414 5585.5,-414 5579.5,-414 5573.5,-408 5573.5,-402 5573.5,-402 5573.5,-390 5573.5,-390 5573.5,-384 5579.5,-378 5585.5,-378 5585.5,-378 5665.25,-378 5665.25,-378 5671.25,-378 5677.25,-384 5677.25,-390 5677.25,-390 5677.25,-402 5677.25,-402 5677.25,-408 5671.25,-414 5665.25,-414"/>
<text xml:space="preserve" text-anchor="middle" x="5625.38" y="-392.5" font-family="Arial" font-size="10.00">Feeder: RELOAD_3</text>
</g>
<!-- f_pa31&#45;&gt;f_r3 -->
<g id="edge35" class="edge">
<title>f_pa31&#45;&gt;f_r3</title>
<path fill="none" stroke="black" d="M5502.7,-396C5521.32,-396 5542.42,-396 5561.76,-396"/>
<polygon fill="black" stroke="black" points="5561.71,-399.5 5571.71,-396 5561.71,-392.5 5561.71,-399.5"/>
<text xml:space="preserve" text-anchor="middle" x="5537.88" y="-397.95" font-family="Arial" font-size="9.00">2000 ms</text>
</g>
<!-- f_p40 -->
<g id="node34" class="node">
<title>f_p40</title>
<path fill="#f7f7f7" stroke="black" d="M5941.5,-414C5941.5,-414 5871.5,-414 5871.5,-414 5865.5,-414 5859.5,-408 5859.5,-402 5859.5,-402 5859.5,-390 5859.5,-390 5859.5,-384 5865.5,-378 5871.5,-378 5871.5,-378 5941.5,-378 5941.5,-378 5947.5,-378 5953.5,-384 5953.5,-390 5953.5,-390 5953.5,-402 5953.5,-402 5953.5,-408 5947.5,-414 5941.5,-414"/>
<text xml:space="preserve" text-anchor="middle" x="5906.5" y="-392.5" font-family="Arial" font-size="10.00">Feeder: POS_4_0</text>
</g>
<!-- f_r3&#45;&gt;f_p40 -->
<g id="edge36" class="edge">
<title>f_r3&#45;&gt;f_p40</title>
<path fill="none" stroke="black" d="M5677.57,-396C5725.75,-396 5797.81,-396 5847.96,-396"/>
<polygon fill="black" stroke="black" points="5847.75,-399.5 5857.75,-396 5847.75,-392.5 5847.75,-399.5"/>
<text xml:space="preserve" text-anchor="middle" x="5768.38" y="-397.95" font-family="Arial" font-size="9.00">2000 ms &amp;&amp; launch pos ~= OFFSET</text>
</g>
<!-- f_p40&#45;&gt;f_p10 -->
<g id="edge37" class="edge">
<title>f_p40&#45;&gt;f_p10</title>
<path fill="none" stroke="black" d="M5953.62,-396C5977.55,-396 6007.02,-396 6032.46,-396"/>
<polygon fill="black" stroke="black" points="6032.32,-399.5 6042.32,-396 6032.32,-392.5 6032.32,-399.5"/>
<text xml:space="preserve" text-anchor="middle" x="5998.88" y="-397.95" font-family="Arial" font-size="9.00">final &amp;&amp; done</text>
</g>
<!-- py_start -->
<g id="node35" class="node">
<title>py_start</title>
<ellipse fill="#ffffff" stroke="black" cx="90" cy="-735" rx="6.48" ry="6.48"/>
</g>
<!-- py_init -->
<g id="node36" class="node">
<title>py_init</title>
<path fill="#f7f7f7" stroke="black" d="M383.25,-769C383.25,-769 332.75,-769 332.75,-769 326.75,-769 320.75,-763 320.75,-757 320.75,-757 320.75,-713 320.75,-713 320.75,-707 326.75,-701 332.75,-701 332.75,-701 383.25,-701 383.25,-701 389.25,-701 395.25,-707 395.25,-713 395.25,-713 395.25,-757 395.25,-757 395.25,-763 389.25,-769 383.25,-769"/>
<text xml:space="preserve" text-anchor="middle" x="358" y="-755.5" font-family="Arial" font-size="10.00">Init hardware</text>
<text xml:space="preserve" text-anchor="middle" x="358" y="-743.5" font-family="Arial" font-size="10.00">Encoder start</text>
<text xml:space="preserve" text-anchor="middle" x="358" y="-731.5" font-family="Arial" font-size="10.00">PID init</text>
<text xml:space="preserve" text-anchor="middle" x="358" y="-719.5" font-family="Arial" font-size="10.00">PWM start</text>
<text xml:space="preserve" text-anchor="middle" x="358" y="-707.5" font-family="Arial" font-size="10.00">Motor_Stop</text>
</g>
<!-- py_start&#45;&gt;py_init -->
<g id="edge44" class="edge">
<title>py_start&#45;&gt;py_init</title>
<path fill="none" stroke="black" d="M96.56,-735C123.46,-735 241.68,-735 309.23,-735"/>
<polygon fill="black" stroke="black" points="308.9,-738.5 318.9,-735 308.9,-731.5 308.9,-738.5"/>
</g>
<!-- py_cal -->
<g id="node37" class="node">
<title>py_cal</title>
<path fill="#f7f7f7" stroke="black" d="M756.88,-714C756.88,-714 646.38,-714 646.38,-714 640.38,-714 634.38,-708 634.38,-702 634.38,-702 634.38,-682 634.38,-682 634.38,-676 640.38,-670 646.38,-670 646.38,-670 756.88,-670 756.88,-670 762.88,-670 768.88,-676 768.88,-682 768.88,-682 768.88,-702 768.88,-702 768.88,-708 762.88,-714 756.88,-714"/>
<text xml:space="preserve" text-anchor="middle" x="701.62" y="-700.5" font-family="Arial" font-size="10.00">Startup calibration</text>
<text xml:space="preserve" text-anchor="middle" x="701.62" y="-688.5" font-family="Arial" font-size="10.00">(wait for yaw opto sensors)</text>
<text xml:space="preserve" text-anchor="middle" x="701.62" y="-676.5" font-family="Arial" font-size="10.00">[non&#45;testing builds]</text>
</g>
<!-- py_init&#45;&gt;py_cal -->
<g id="edge45" class="edge">
<title>py_init&#45;&gt;py_cal</title>
<path fill="none" stroke="black" d="M395.56,-730.4C449.48,-723.61 551.61,-710.76 622.78,-701.8"/>
<polygon fill="black" stroke="black" points="622.93,-705.31 632.42,-700.59 622.06,-698.36 622.93,-705.31"/>
<text xml:space="preserve" text-anchor="middle" x="528.38" y="-725.42" font-family="Arial" font-size="9.00">if !TESTING &amp;&amp; !TESTING_WOUT_YAW</text>
</g>
<!-- py_loop -->
<g id="node38" class="node">
<title>py_loop</title>
<path fill="#f7f7f7" stroke="black" d="M1011.25,-750C1011.25,-750 929.25,-750 929.25,-750 923.25,-750 917.25,-744 917.25,-738 917.25,-738 917.25,-726 917.25,-726 917.25,-720 923.25,-714 929.25,-714 929.25,-714 1011.25,-714 1011.25,-714 1017.25,-714 1023.25,-720 1023.25,-726 1023.25,-726 1023.25,-738 1023.25,-738 1023.25,-744 1017.25,-750 1011.25,-750"/>
<text xml:space="preserve" text-anchor="middle" x="970.25" y="-728.5" font-family="Arial" font-size="10.00">Main loop dispatcher</text>
</g>
<!-- py_init&#45;&gt;py_loop -->
<g id="edge46" class="edge">
<title>py_init&#45;&gt;py_loop</title>
<path fill="none" stroke="black" d="M395.7,-736.52C411.68,-737.11 430.64,-737.71 447.75,-738 645.39,-741.34 694.89,-739.91 892.5,-735 896.68,-734.9 900.98,-734.77 905.32,-734.64"/>
<polygon fill="black" stroke="black" points="905.43,-738.13 915.31,-734.3 905.2,-731.14 905.43,-738.13"/>
<text xml:space="preserve" text-anchor="middle" x="701.62" y="-741.76" font-family="Arial" font-size="9.00">if TESTING || TESTING_WOUT_YAW</text>
</g>
<!-- py_cal&#45;&gt;py_loop -->
<g id="edge47" class="edge">
<title>py_cal&#45;&gt;py_loop</title>
<path fill="none" stroke="black" d="M769.22,-701.99C810.95,-708.25 864.44,-716.28 905.6,-722.45"/>
<polygon fill="black" stroke="black" points="904.96,-725.89 915.37,-723.92 905.99,-718.97 904.96,-725.89"/>
<text xml:space="preserve" text-anchor="middle" x="843.38" y="-722.13" font-family="Arial" font-size="9.00">calibration done</text>
</g>
<!-- py_rc -->
<g id="node39" class="node">
<title>py_rc</title>
<path fill="#f7f7f7" stroke="black" d="M1398.5,-619C1398.5,-619 1325.5,-619 1325.5,-619 1319.5,-619 1313.5,-613 1313.5,-607 1313.5,-607 1313.5,-587 1313.5,-587 1313.5,-581 1319.5,-575 1325.5,-575 1325.5,-575 1398.5,-575 1398.5,-575 1404.5,-575 1410.5,-581 1410.5,-587 1410.5,-587 1410.5,-607 1410.5,-607 1410.5,-613 1404.5,-619 1398.5,-619"/>
<text xml:space="preserve" text-anchor="middle" x="1362" y="-605.5" font-family="Arial" font-size="10.00">SELECT_RC</text>
<text xml:space="preserve" text-anchor="middle" x="1362" y="-593.5" font-family="Arial" font-size="10.00">read remote deltas</text>
<text xml:space="preserve" text-anchor="middle" x="1362" y="-581.5" font-family="Arial" font-size="10.00">clamp pitch/yaw</text>
</g>
<!-- py_loop&#45;&gt;py_rc -->
<g id="edge48" class="edge">
<title>py_loop&#45;&gt;py_rc</title>
<path fill="none" stroke="black" d="M982.92,-713.59C996.2,-694.29 1019.75,-664.71 1048,-649.5 1128.44,-606.2 1235.97,-596.96 1301.76,-595.83"/>
<polygon fill="black" stroke="black" points="1301.67,-599.33 1311.63,-595.73 1301.6,-592.33 1301.67,-599.33"/>
<text xml:space="preserve" text-anchor="middle" x="1152.25" y="-651.45" font-family="Arial" font-size="9.00">selection == SELECT_RC</text>
</g>
<!-- py_auto -->
<g id="node40" class="node">
<title>py_auto</title>
<path fill="#f7f7f7" stroke="black" d="M1394.75,-673C1394.75,-673 1329.25,-673 1329.25,-673 1323.25,-673 1317.25,-667 1317.25,-661 1317.25,-661 1317.25,-649 1317.25,-649 1317.25,-643 1323.25,-637 1329.25,-637 1329.25,-637 1394.75,-637 1394.75,-637 1400.75,-637 1406.75,-643 1406.75,-649 1406.75,-649 1406.75,-661 1406.75,-661 1406.75,-667 1400.75,-673 1394.75,-673"/>
<text xml:space="preserve" text-anchor="middle" x="1362" y="-657.5" font-family="Arial" font-size="10.00">SELECT_AUTO</text>
<text xml:space="preserve" text-anchor="middle" x="1362" y="-645.5" font-family="Arial" font-size="10.00">use preset target</text>
</g>
<!-- py_loop&#45;&gt;py_auto -->
<g id="edge49" class="edge">
<title>py_loop&#45;&gt;py_auto</title>
<path fill="none" stroke="black" d="M1010.83,-713.59C1022.59,-708.72 1035.64,-703.88 1048,-700.5 1136.26,-676.37 1242.23,-664.37 1305.46,-658.94"/>
<polygon fill="black" stroke="black" points="1305.58,-662.44 1315.25,-658.13 1305,-655.47 1305.58,-662.44"/>
<text xml:space="preserve" text-anchor="middle" x="1152.25" y="-702.45" font-family="Arial" font-size="9.00">selection == SELECT_AUTO</text>
</g>
<!-- py_ui -->
<g id="node41" class="node">
<title>py_ui</title>
<path fill="#f7f7f7" stroke="black" d="M1409.38,-727C1409.38,-727 1314.62,-727 1314.62,-727 1308.62,-727 1302.62,-721 1302.62,-715 1302.62,-715 1302.62,-703 1302.62,-703 1302.62,-697 1308.62,-691 1314.62,-691 1314.62,-691 1409.38,-691 1409.38,-691 1415.38,-691 1421.38,-697 1421.38,-703 1421.38,-703 1421.38,-715 1421.38,-715 1421.38,-721 1415.38,-727 1409.38,-727"/>
<text xml:space="preserve" text-anchor="middle" x="1362" y="-711.5" font-family="Arial" font-size="10.00">UI direct setpoint</text>
<text xml:space="preserve" text-anchor="middle" x="1362" y="-699.5" font-family="Arial" font-size="10.00">(ui_interface_get_set_*)</text>
</g>
<!-- py_loop&#45;&gt;py_ui -->
<g id="edge50" class="edge">
<title>py_loop&#45;&gt;py_ui</title>
<path fill="none" stroke="black" d="M1023.41,-728.92C1092.27,-724.86 1213.75,-717.69 1290.67,-713.15"/>
<polygon fill="black" stroke="black" points="1290.86,-716.65 1300.64,-712.56 1290.45,-709.66 1290.86,-716.65"/>
<text xml:space="preserve" text-anchor="middle" x="1152.25" y="-728.98" font-family="Arial" font-size="9.00">else</text>
</g>
<!-- py_test_dispatch -->
<g id="node43" class="node">
<title>py_test_dispatch</title>
<path fill="#f7f7f7" stroke="black" d="M1397.75,-821C1397.75,-821 1326.25,-821 1326.25,-821 1320.25,-821 1314.25,-815 1314.25,-809 1314.25,-809 1314.25,-797 1314.25,-797 1314.25,-791 1320.25,-785 1326.25,-785 1326.25,-785 1397.75,-785 1397.75,-785 1403.75,-785 1409.75,-791 1409.75,-797 1409.75,-797 1409.75,-809 1409.75,-809 1409.75,-815 1403.75,-821 1397.75,-821"/>
<text xml:space="preserve" text-anchor="middle" x="1362" y="-799.5" font-family="Arial" font-size="10.00">Testing dispatcher</text>
</g>
<!-- py_loop&#45;&gt;py_test_dispatch -->
<g id="edge55" class="edge">
<title>py_loop&#45;&gt;py_test_dispatch</title>
<path fill="none" stroke="black" stroke-dasharray="5,2" d="M1001.17,-750.45C1014.94,-758.08 1031.8,-766.24 1048,-771 1134.09,-796.32 1238.58,-802.32 1302.4,-803.37"/>
<polygon fill="black" stroke="black" points="1302.28,-806.87 1312.32,-803.49 1302.36,-799.87 1302.28,-806.87"/>
<text xml:space="preserve" text-anchor="middle" x="1152.25" y="-803.74" font-family="Arial" font-size="9.00">if TESTING || TESTING_WOUT_YAW</text>
</g>
<!-- py_ctrl -->
<g id="node42" class="node">
<title>py_ctrl</title>
<path fill="#f7f7f7" stroke="black" d="M1769.25,-655C1769.25,-655 1645.25,-655 1645.25,-655 1639.25,-655 1633.25,-649 1633.25,-643 1633.25,-643 1633.25,-599 1633.25,-599 1633.25,-593 1639.25,-587 1645.25,-587 1645.25,-587 1769.25,-587 1769.25,-587 1775.25,-587 1781.25,-593 1781.25,-599 1781.25,-599 1781.25,-643 1781.25,-643 1781.25,-649 1775.25,-655 1769.25,-655"/>
<text xml:space="preserve" text-anchor="middle" x="1707.25" y="-641.5" font-family="Arial" font-size="10.00">Control update</text>
<text xml:space="preserve" text-anchor="middle" x="1707.25" y="-629.5" font-family="Arial" font-size="10.00">read sensors</text>
<text xml:space="preserve" text-anchor="middle" x="1707.25" y="-617.5" font-family="Arial" font-size="10.00">Pitch PID &#45;&gt; Motor_SetTorque</text>
<text xml:space="preserve" text-anchor="middle" x="1707.25" y="-605.5" font-family="Arial" font-size="10.00">clamp_yaw_sync_ui</text>
<text xml:space="preserve" text-anchor="middle" x="1707.25" y="-593.5" font-family="Arial" font-size="10.00">send yaw motor cmd</text>
</g>
<!-- py_rc&#45;&gt;py_ctrl -->
<g id="edge51" class="edge">
<title>py_rc&#45;&gt;py_ctrl</title>
<path fill="none" stroke="black" d="M1410.73,-600.34C1465.15,-604.14 1555.15,-610.43 1621.55,-615.08"/>
<polygon fill="black" stroke="black" points="1621.1,-618.55 1631.32,-615.76 1621.59,-611.57 1621.1,-618.55"/>
</g>
<!-- py_auto&#45;&gt;py_ctrl -->
<g id="edge52" class="edge">
<title>py_auto&#45;&gt;py_ctrl</title>
<path fill="none" stroke="black" d="M1407.17,-650.62C1461.2,-645.27 1553.83,-636.1 1621.73,-629.37"/>
<polygon fill="black" stroke="black" points="1621.71,-632.89 1631.32,-628.42 1621.02,-625.93 1621.71,-632.89"/>
</g>
<!-- py_ui&#45;&gt;py_ctrl -->
<g id="edge53" class="edge">
<title>py_ui&#45;&gt;py_ctrl</title>
<path fill="none" stroke="black" d="M1421.62,-693.97C1476.71,-679.85 1559.77,-658.55 1621.97,-642.61"/>
<polygon fill="black" stroke="black" points="1622.65,-646.05 1631.47,-640.17 1620.91,-639.27 1622.65,-646.05"/>
</g>
<!-- py_ctrl&#45;&gt;py_loop -->
<g id="edge54" class="edge">
<title>py_ctrl&#45;&gt;py_loop</title>
<path fill="none" stroke="black" d="M1632.76,-597.04C1581.92,-581.76 1512.37,-563.39 1449.5,-555.5 1372.33,-545.81 1352,-548.96 1274.5,-555.5 1172.75,-564.09 1131.35,-535.02 1048,-594 1010.73,-620.37 989.47,-670.84 979.16,-702.89"/>
<polygon fill="black" stroke="black" points="975.85,-701.75 976.29,-712.33 982.55,-703.78 975.85,-701.75"/>
<text xml:space="preserve" text-anchor="middle" x="1362" y="-557.45" font-family="Arial" font-size="9.00">next iteration</text>
</g>
<!-- py_test0 -->
<g id="node44" class="node">
<title>py_test0</title>
<path fill="#f7f7f7" stroke="black" d="M1750.88,-787C1750.88,-787 1663.62,-787 1663.62,-787 1657.62,-787 1651.62,-781 1651.62,-775 1651.62,-775 1651.62,-763 1651.62,-763 1651.62,-757 1657.62,-751 1663.62,-751 1663.62,-751 1750.88,-751 1750.88,-751 1756.88,-751 1762.88,-757 1762.88,-763 1762.88,-763 1762.88,-775 1762.88,-775 1762.88,-781 1756.88,-787 1750.88,-787"/>
<text xml:space="preserve" text-anchor="middle" x="1707.25" y="-765.5" font-family="Arial" font-size="10.00">testing_pitch_n_yaw()</text>
</g>
<!-- py_test_dispatch&#45;&gt;py_test0 -->
<g id="edge56" class="edge">
<title>py_test_dispatch&#45;&gt;py_test0</title>
<path fill="none" stroke="black" stroke-dasharray="5,2" d="M1410.01,-798.34C1469.54,-792.45 1572.48,-782.25 1639.97,-775.57"/>
<polygon fill="black" stroke="black" points="1640.2,-779.06 1649.81,-774.59 1639.51,-772.09 1640.2,-779.06"/>
<text xml:space="preserve" text-anchor="middle" x="1541.38" y="-793.95" font-family="Arial" font-size="9.00">TESTING_PITCH_YAW_INPUT == 0</text>
</g>
<!-- py_test1 -->
<g id="node45" class="node">
<title>py_test1</title>
<path fill="#f7f7f7" stroke="black" d="M1749.75,-733C1749.75,-733 1664.75,-733 1664.75,-733 1658.75,-733 1652.75,-727 1652.75,-721 1652.75,-721 1652.75,-709 1652.75,-709 1652.75,-703 1658.75,-697 1664.75,-697 1664.75,-697 1749.75,-697 1749.75,-697 1755.75,-697 1761.75,-703 1761.75,-709 1761.75,-709 1761.75,-721 1761.75,-721 1761.75,-727 1755.75,-733 1749.75,-733"/>
<text xml:space="preserve" text-anchor="middle" x="1707.25" y="-711.5" font-family="Arial" font-size="10.00">testing_yaw_screen()</text>
</g>
<!-- py_test_dispatch&#45;&gt;py_test1 -->
<g id="edge57" class="edge">
<title>py_test_dispatch&#45;&gt;py_test1</title>
<path fill="none" stroke="black" stroke-dasharray="5,2" d="M1406.96,-784.58C1425.43,-777.32 1447.28,-769.33 1467.5,-763.5 1525.44,-746.78 1592.89,-733.64 1641.29,-725.28"/>
<polygon fill="black" stroke="black" points="1641.79,-728.75 1651.06,-723.62 1640.61,-721.85 1641.79,-728.75"/>
<text xml:space="preserve" text-anchor="middle" x="1541.38" y="-765.45" font-family="Arial" font-size="9.00">TESTING_PITCH_YAW_INPUT == 1</text>
</g>
<!-- py_test2 -->
<g id="node46" class="node">
<title>py_test2</title>
<path fill="#f7f7f7" stroke="black" d="M1751.25,-841C1751.25,-841 1663.25,-841 1663.25,-841 1657.25,-841 1651.25,-835 1651.25,-829 1651.25,-829 1651.25,-817 1651.25,-817 1651.25,-811 1657.25,-805 1663.25,-805 1663.25,-805 1751.25,-805 1751.25,-805 1757.25,-805 1763.25,-811 1763.25,-817 1763.25,-817 1763.25,-829 1763.25,-829 1763.25,-835 1757.25,-841 1751.25,-841"/>
<text xml:space="preserve" text-anchor="middle" x="1707.25" y="-819.5" font-family="Arial" font-size="10.00">testing_pitch_screen()</text>
</g>
<!-- py_test_dispatch&#45;&gt;py_test2 -->
<g id="edge58" class="edge">
<title>py_test_dispatch&#45;&gt;py_test2</title>
<path fill="none" stroke="black" stroke-dasharray="5,2" d="M1410.01,-805.74C1469.45,-809.2 1572.18,-815.19 1639.68,-819.12"/>
<polygon fill="black" stroke="black" points="1639.32,-822.61 1649.51,-819.69 1639.73,-815.62 1639.32,-822.61"/>
<text xml:space="preserve" text-anchor="middle" x="1541.38" y="-819.59" font-family="Arial" font-size="9.00">TESTING_PITCH_YAW_INPUT == 2</text>
</g>
<!-- py_test0&#45;&gt;py_loop -->
<g id="edge59" class="edge">
<title>py_test0&#45;&gt;py_loop</title>
<path fill="none" stroke="black" stroke-dasharray="5,2" d="M1651.59,-769.38C1515.43,-770.04 1163.79,-769.99 1048,-753 1043.66,-752.36 1039.23,-751.56 1034.77,-750.65"/>
<polygon fill="black" stroke="black" points="1035.74,-747.28 1025.22,-748.5 1034.2,-754.11 1035.74,-747.28"/>
</g>
<!-- py_test1&#45;&gt;py_loop -->
<g id="edge60" class="edge">
<title>py_test1&#45;&gt;py_loop</title>
<path fill="none" stroke="black" stroke-dasharray="5,2" d="M1652.5,-713.41C1603.68,-713.08 1529.97,-715.37 1467.5,-729 1459.11,-730.83 1457.92,-734.31 1449.5,-736 1274.54,-771.17 1226.15,-751.41 1048,-741 1043.68,-740.75 1039.23,-740.42 1034.75,-740.03"/>
<polygon fill="black" stroke="black" points="1035.41,-736.58 1025.12,-739.11 1034.74,-743.54 1035.41,-736.58"/>
</g>
<!-- py_test2&#45;&gt;py_loop -->
<g id="edge61" class="edge">
<title>py_test2&#45;&gt;py_loop</title>
<path fill="none" stroke="black" stroke-dasharray="5,2" d="M1651.19,-837.22C1533.56,-864.55 1251.88,-913.51 1048,-816 1022.54,-803.82 1001.59,-779.08 988.05,-759.58"/>
<polygon fill="black" stroke="black" points="991.13,-757.89 982.68,-751.5 985.3,-761.76 991.13,-757.89"/>
</g>
</g>
</svg>
